<svg width="1241" height="871" viewBox="0 0 1241 871" xmlns="http://www.w3.org/2000/svg"><title>ipad</title><g fill="none" fill-rule="evenodd"><path d="M60 871c-33.137 0-60-26.872-60-59.996V59.996C0 26.861 26.856 0 60 0h1121c33.137 0 60 26.872 60 59.996v751.008c0 33.135-26.856 59.996-60 59.996H60zm1157-435c0-14.912-12.088-27-27-27s-27 12.088-27 27 12.088 27 27 27 27-12.088 27-27zm-1154-.5a6.5 6.5 0 1 0-13 0 6.5 6.5 0 0 0 13 0z" fill="#ECEFF1"/><path fill="#CFD8DC" d="M106 827V44h1038v783z"/></g></svg>