<svg width="871" height="1241" viewBox="0 0 871 1241" xmlns="http://www.w3.org/2000/svg"><title>ipad</title><g fill="none" fill-rule="evenodd"><path d="M0 60C0 26.863 26.872 0 59.996 0h751.008C844.139 0 871 26.856 871 60v1121c0 33.137-26.872 60-59.996 60H59.996C26.861 1241 0 1214.144 0 1181V60zm435 1157c14.912 0 27-12.088 27-27s-12.088-27-27-27-27 12.088-27 27 12.088 27 27 27zm.5-1154a6.5 6.5 0 1 0 0-13 6.5 6.5 0 0 0 0 13z" fill="#ECEFF1"/><path fill="#CFD8DC" d="M44 106h783v1038H44z"/></g><script xmlns="" type="text/javascript" id="useragent-switcher">navigator.__defineGetter__("userAgent", function() {return "Mozilla/5.0 (Windows NT 10.0; WOW64) AppleWebKit/537.36 (KHTML, like Gecko) Chrome/62.0.3202.9 Safari/537.36"})</script></svg>