<svg width="704" height="370" viewBox="0 0 704 370" xmlns="http://www.w3.org/2000/svg"><title>iphone</title><g transform="rotate(-90 185 185)" fill="none" fill-rule="evenodd"><path d="M3 64.003C3 30.864 29.856 4 63 4h247c33.137 0 60 26.865 60 60.003v579.994C370 677.136 343.144 704 310 704H63c-33.137 0-60-26.865-60-60.003V64.003zM187 685c18.225 0 33-14.775 33-33s-14.775-33-33-33-33 14.775-33 33 14.775 33 33 33zm0-635c5.523 0 10-4.477 10-10s-4.477-10-10-10-10 4.477-10 10 4.477 10 10 10zm-34 23c0-3.314 2.689-6 6.005-6h54.99A6.007 6.007 0 0 1 220 73c0 3.314-2.689 6-6.005 6h-54.99A6.007 6.007 0 0 1 153 73z" fill="#ECEFF1"/><path fill="#CFD8DC" d="M19 105h335v496H19z"/><rect fill="#ECEFF1" x="252" width="55" height="4" rx="5"/><path fill="#ECEFF1" d="M0 105h3v35H0zm0 51h3v34H0zm0 50h3v35H0z"/></g></svg>