<?xml version="1.0" encoding="UTF-8"?><svg id="a" xmlns="http://www.w3.org/2000/svg" viewBox="0 0 422.46 81.59"><defs><style>.b{fill:#231f20;}</style></defs><path class="b" d="M8.33,64.12c-.8,2.34-.52,3.78,.85,4.32,1.37,.54,3.93,.6,7.68,.2,3.95-.6,7.76-1.54,11.44-2.81,3.68-1.27,7.29-2.75,10.84-4.42,3.21-1.47,6.41-3.06,9.59-4.77,3.18-1.71,6.14-3.67,8.88-5.87,.4-.54,.89-.94,1.46-1.21,.57-.27,1.17-.4,1.81-.4s1.24,.15,1.81,.45c.57,.3,1.02,.72,1.36,1.25,.4,.6,.58,1.22,.55,1.86-.03,.64-.18,1.22-.45,1.76-.27,.54-.64,1.04-1.1,1.51s-.94,.9-1.41,1.31c-3.21,2.48-6.61,4.62-10.19,6.42-3.58,1.81-7.21,3.48-10.89,5.02-1.54,.67-3.7,1.56-6.48,2.66-2.78,1.1-5.77,2.14-8.99,3.11-3.21,.97-6.44,1.71-9.69,2.21-3.25,.5-6.09,.48-8.53-.05-2.44-.54-4.32-1.72-5.62-3.56-1.31-1.84-1.59-4.67-.85-8.48,.54-3.08,1.66-5.97,3.36-8.68,1.71-2.71,3.5-5.27,5.37-7.68,4.48-6.09,9.47-11.88,14.96-17.37,5.29-5.42,10.74-10.64,16.36-15.66S52.1,5.63,58.53,1.48c1.81-1.21,3.53-1.67,5.17-1.41,1.64,.27,2.86,.95,3.66,2.06,.8,1.1,1.09,2.43,.85,3.97-.24,1.54-1.29,2.98-3.16,4.32-2.14,1.54-4.32,3-6.53,4.37-2.21,1.37-4.38,2.83-6.53,4.37-3.95,2.81-7.75,5.72-11.39,8.73-3.65,3.01-7.18,6.12-10.59,9.34-1.94,1.88-4,3.83-6.17,5.87-2.18,2.04-4.27,4.18-6.28,6.43-2.01,2.24-3.83,4.58-5.47,7.03-1.64,2.44-2.9,4.97-3.76,7.58Z"/><path class="b" d="M79.21,63.12c-2.48,0-4.62-.67-6.43-2.01-2.54-1.67-4.08-4.05-4.62-7.13-.54-3.08-.07-6.63,1.41-10.64,1-2.81,2.44-5.64,4.32-8.48,1.87-2.84,3.98-5.4,6.33-7.68,4.68-4.48,9.3-6.93,13.85-7.33,.07,0,.1-.03,.1-.1,1.14-.87,2.34-1.1,3.61-.7,3.61,1.14,5.99,3.41,7.13,6.83,1.41,.6,2.89,1.04,4.47,1.31,1.57,.27,3.13,.37,4.67,.3,1.54-.07,2.99-.27,4.37-.6,1.37-.33,2.53-.84,3.46-1.51,.67-.47,1.29-.63,1.86-.5,.57,.14,.95,.42,1.16,.85,.2,.44,.22,.97,.05,1.61-.17,.64-.59,1.19-1.25,1.66-1.41,1-2.96,1.79-4.67,2.36-1.71,.57-3.43,.99-5.17,1.25-1.74,.27-3.45,.4-5.12,.4s-3.21-.1-4.62-.3c-.34,2.95-1.02,5.82-2.06,8.63-1.04,2.81-2.29,5.44-3.77,7.88-1.47,2.44-3.11,4.64-4.92,6.58-1.81,1.94-3.65,3.48-5.52,4.62-2.95,1.81-5.82,2.71-8.63,2.71Zm14.96-37.75c-1.47,.14-3.06,.85-4.77,2.16-1.71,1.3-3.36,2.93-4.97,4.87-1.61,1.94-3.1,4.12-4.47,6.53-1.37,2.41-2.46,4.75-3.26,7.03-.2,.4-.42,1-.65,1.81-.24,.8-.4,1.66-.5,2.56s-.07,1.77,.1,2.61c.17,.84,.58,1.49,1.25,1.96,1.81,1.2,4.15,.9,7.03-.9,1.81-1.07,3.55-2.56,5.22-4.47,1.67-1.91,3.18-3.95,4.52-6.12s2.43-4.37,3.26-6.58c.84-2.21,1.25-4.22,1.25-6.02-.74-.54-1.51-1.24-2.31-2.11-.8-.87-1.37-1.97-1.71-3.31Z"/><path class="b" d="M108.62,81.59c-1.41,0-2.91-.27-4.52-.8-2.01-.54-3.65-1.29-4.92-2.26-1.27-.97-2.21-1.92-2.81-2.86-.8-1.34-1.04-2.58-.7-3.71,.34-1.14,.87-1.97,1.61-2.51,.54-.34,1.31-.57,2.31-.7,1-.14,2.28,.37,3.81,1.51,.54,.4,1.07,.9,1.61,1.51,.54,.6,1.14,1.27,1.81,2.01,.34,.07,.69,.12,1.05,.15,.37,.03,.75,.05,1.15,.05,2.48-.13,5.32-1.87,8.53-5.22,3.21-3.35,6.73-8.7,10.54-16.06-1.14,1.94-2.43,3.63-3.87,5.07-1.44,1.44-2.95,2.59-4.52,3.46-1.57,.87-3.11,1.39-4.62,1.56-1.51,.17-2.86-.08-4.07-.75-1.74-.94-3.06-2.26-3.96-3.97-.9-1.71-1.32-3.66-1.26-5.87,.07-2.61,.77-5.45,2.11-8.53,1.34-3.08,3.1-6.07,5.27-8.99,2.17-2.91,4.63-5.61,7.38-8.08,2.74-2.48,5.59-4.42,8.53-5.82,3.35-1.54,6.54-2.26,9.59-2.16,3.04,.1,5.77,1.05,8.18,2.86,.87,.67,1.36,1.41,1.46,2.21,.1,.8-.03,1.51-.4,2.11-.37,.6-.94,.99-1.71,1.15-.77,.17-1.59-.08-2.46-.75-2.54-1.87-5.82-1.81-9.84,.2-2.48,1.21-4.92,2.9-7.33,5.07-2.41,2.18-4.6,4.52-6.58,7.03-1.97,2.51-3.56,5.02-4.77,7.53-1.21,2.51-1.84,4.64-1.91,6.38,0,1.14,.17,1.89,.5,2.26,.33,.37,.6,.62,.8,.75,.87,.47,2.11,.25,3.71-.65,1.61-.9,3.45-2.39,5.52-4.47s4.25-4.65,6.53-7.73c2.27-3.08,4.52-6.56,6.73-10.44,.54-.87,1.27-1.46,2.21-1.76,.94-.3,1.87-.22,2.81,.25,.94,.47,1.56,1.17,1.86,2.11,.3,.94,.25,1.87-.15,2.81l-1.1,2.51c-1,2.28-2.16,4.79-3.46,7.53-1.31,2.75-2.66,5.51-4.07,8.28-1.41,2.78-2.81,5.49-4.22,8.13-1.41,2.64-2.75,5-4.02,7.08,1.67-1.27,3.58-2.95,5.72-5.02,2.14-2.08,4.38-4.43,6.73-7.08,2.34-2.64,4.73-5.5,7.18-8.58,2.44-3.08,4.83-6.29,7.18-9.64,.6-.87,1.25-1.44,1.96-1.71,.7-.27,1.29-.28,1.76-.05,.47,.24,.74,.67,.8,1.3,.07,.64-.2,1.39-.8,2.26-2.88,4.08-5.64,7.98-8.28,11.7-2.64,3.71-5.27,7.14-7.88,10.29-2.61,3.14-5.25,5.96-7.93,8.43-2.68,2.48-5.52,4.52-8.53,6.12-5.49,2.94-10.54,4.42-15.16,4.42-.2,.07-.57,.1-1.1,.1Z"/><path class="b" d="M161.33,63.12c-2.48,0-4.62-.67-6.42-2.01-2.54-1.67-4.08-4.05-4.62-7.13-.54-3.08-.07-6.63,1.41-10.64,1-2.81,2.44-5.64,4.32-8.48,1.87-2.84,3.98-5.4,6.33-7.68,4.68-4.48,9.3-6.93,13.85-7.33,.07,0,.1-.03,.1-.1,1.14-.87,2.34-1.1,3.61-.7,3.61,1.14,5.99,3.41,7.13,6.83,1.41,.6,2.89,1.04,4.47,1.31,1.57,.27,3.13,.37,4.67,.3,1.54-.07,3-.27,4.37-.6,1.37-.33,2.53-.84,3.46-1.51,.67-.47,1.29-.63,1.86-.5,.57,.14,.95,.42,1.15,.85,.2,.44,.22,.97,.05,1.61-.17,.64-.59,1.19-1.25,1.66-1.41,1-2.96,1.79-4.67,2.36-1.71,.57-3.43,.99-5.17,1.25-1.74,.27-3.45,.4-5.12,.4s-3.21-.1-4.62-.3c-.34,2.95-1.02,5.82-2.06,8.63-1.04,2.81-2.29,5.44-3.76,7.88-1.47,2.44-3.11,4.64-4.92,6.58-1.81,1.94-3.65,3.48-5.52,4.62-2.95,1.81-5.82,2.71-8.63,2.71Zm14.96-37.75c-1.47,.14-3.06,.85-4.77,2.16-1.71,1.3-3.36,2.93-4.97,4.87-1.61,1.94-3.1,4.12-4.47,6.53-1.37,2.41-2.46,4.75-3.26,7.03-.2,.4-.42,1-.65,1.81-.24,.8-.4,1.66-.5,2.56s-.07,1.77,.1,2.61c.17,.84,.58,1.49,1.25,1.96,1.81,1.2,4.15,.9,7.03-.9,1.81-1.07,3.55-2.56,5.22-4.47,1.67-1.91,3.18-3.95,4.52-6.12,1.34-2.17,2.42-4.37,3.26-6.58,.84-2.21,1.25-4.22,1.25-6.02-.74-.54-1.51-1.24-2.31-2.11-.8-.87-1.37-1.97-1.71-3.31Z"/><path class="b" d="M236.52,56.9c-2.28,.87-4.2,1.66-5.77,2.36-1.57,.7-3,1.09-4.27,1.15-1.41,.07-2.53-.3-3.36-1.1-.84-.8-1.32-1.77-1.46-2.91-.14-1.14,.13-2.31,.8-3.51,.67-1.21,1.81-2.14,3.41-2.81,3.41-1.34,6.98-2.39,10.69-3.16,3.71-.77,7.38-1.56,10.99-2.36,1.67-.33,4.02-.9,7.03-1.71,4.02-6.49,8.25-12.78,12.7-18.87,4.45-6.09,8.92-12.18,13.4-18.27,.74-1,1.76-1.59,3.06-1.76,1.31-.17,2.36,.25,3.16,1.25,.54,.67,.8,1.34,.8,2.01s-.13,1.32-.4,1.96c-.27,.64-.62,1.26-1.05,1.86-.44,.6-.85,1.14-1.25,1.61-2.28,2.88-4.47,5.81-6.58,8.79-2.11,2.98-4.2,5.97-6.27,8.99-1.2,1.67-2.39,3.36-3.56,5.07-1.17,1.71-2.33,3.43-3.46,5.17,2.68-.53,5.42-1,8.23-1.41,2.81-.4,5.49-.65,8.03-.75,2.54-.1,4.85-.02,6.93,.25,2.07,.27,3.78,.84,5.12,1.71,.33-.67,.67-1.31,1-1.91,.33-.6,.67-1.17,1-1.71,3.41-5.89,7.21-11.45,11.39-16.67,4.18-5.22,8.58-10.31,13.2-15.26,.47-.47,1.04-.77,1.71-.9,.67-.13,1.32-.12,1.96,.05,.64,.17,1.19,.47,1.66,.9,.47,.44,.8,.99,1,1.66,.27,1.41-.08,2.68-1.05,3.82-.97,1.14-1.89,2.14-2.76,3.01-2.75,2.81-5.31,5.76-7.68,8.83-2.38,3.08-4.7,6.22-6.98,9.44-1.67,2.41-3.36,4.92-5.07,7.53s-3.26,5.32-4.67,8.13c-1.41,2.81-2.54,5.69-3.41,8.63-.87,2.95-1.34,5.96-1.41,9.04-.07,1.41,.05,2.58,.35,3.51,.3,.94,.72,2.01,1.25,3.21,.33,.67,.55,1.39,.65,2.16,.1,.77-.02,1.52-.35,2.26-.74,1.27-1.56,1.91-2.46,1.91s-1.77-.35-2.61-1.05c-.84-.7-1.59-1.56-2.26-2.56s-1.1-1.87-1.3-2.61c-.67-2.08-1.02-4.2-1.05-6.38-.04-2.17,.17-4.37,.6-6.58,.43-2.21,1.04-4.4,1.81-6.58,.77-2.17,1.66-4.3,2.66-6.38-1.14-.27-2.28-.5-3.41-.7-1.14-.2-2.34-.3-3.61-.3-3.21,.07-6.39,.35-9.54,.85-3.15,.5-6.26,1.12-9.34,1.86-.8,.2-1.62,.4-2.46,.6-.84,.2-1.66,.44-2.46,.7-.87,1.34-1.69,2.71-2.46,4.12-.77,1.41-1.52,2.85-2.26,4.32-.67,1.54-1.19,3.11-1.56,4.72-.37,1.61-.92,3.14-1.66,4.62-.34,.6-.77,1.19-1.31,1.76-.54,.57-1.12,.97-1.76,1.2-.64,.23-1.27,.3-1.91,.2-.64-.1-1.25-.52-1.86-1.25-.74-.94-1-1.98-.8-3.11,.2-1.14,.47-2.21,.8-3.21,.54-1.74,1.17-3.45,1.91-5.12,.74-1.67,1.54-3.35,2.41-5.02-2.21,.74-4.37,1.51-6.48,2.31-2.11,.8-4.23,1.61-6.38,2.41Z"/><path class="b" d="M324.67,63.22c-3.88,0-6.83-.9-8.83-2.71-1.81-1.67-2.96-3.61-3.46-5.82s-.55-4.53-.15-6.98c.4-2.44,1.14-4.87,2.21-7.28,1.07-2.41,2.31-4.65,3.71-6.73,1.67-2.54,3.6-4.9,5.77-7.08s4.43-3.95,6.78-5.32c2.34-1.37,4.67-2.21,6.98-2.51,2.31-.3,4.47,.12,6.48,1.25,1.67,.94,2.91,2.23,3.71,3.87,.8,1.64,1.07,3.46,.8,5.47-.13,1.61-.57,3.18-1.31,4.72-.74,1.54-1.66,2.98-2.76,4.32-1.1,1.34-2.39,2.51-3.87,3.51-1.47,1-3.05,1.77-4.72,2.31-.74,.2-1.62,.39-2.66,.55-1.04,.17-2.16,.2-3.36,.1-1.2-.1-2.46-.4-3.76-.9-1.3-.5-2.66-1.25-4.07-2.26-.67,1.34-1.22,2.66-1.66,3.97-.44,1.3-.72,2.53-.85,3.66-.13,1.14-.1,2.19,.1,3.16,.2,.97,.6,1.76,1.21,2.36,1.41,1.41,3.38,1.96,5.92,1.66,2.54-.3,5.29-1.24,8.23-2.81,2.94-1.57,5.92-3.66,8.94-6.27s5.72-5.52,8.13-8.73c.6-.87,1.25-1.42,1.96-1.66,.7-.23,1.27-.23,1.71,0,.43,.24,.69,.67,.75,1.3,.07,.64-.24,1.39-.9,2.26-4.95,6.76-9.89,12.1-14.81,16.01-4.92,3.92-9.52,6.07-13.8,6.48-.4,.07-.8,.1-1.21,.1h-1.2Zm1.61-27.91c2.28,1.94,4.75,2.51,7.43,1.71,1.61-.47,3.01-1.29,4.22-2.46,1.2-1.17,2.16-2.39,2.86-3.66,.7-1.27,1.1-2.44,1.2-3.51,.1-1.07-.18-1.81-.85-2.21-.6-.4-1.49-.43-2.66-.1-1.17,.34-2.46,.95-3.87,1.86s-2.85,2.08-4.32,3.51c-1.47,1.44-2.81,3.06-4.02,4.87Z"/><path class="b" d="M352.18,38.72c.94-1.47,1.87-3.08,2.81-4.82,.94-1.74,1.81-3.51,2.61-5.32,.8-1.81,1.49-3.58,2.06-5.32,.57-1.74,.95-3.28,1.15-4.62,.2-1.34,.7-2.36,1.51-3.06,.8-.7,1.61-1.02,2.41-.95,.8,.07,1.44,.54,1.91,1.41,.47,.87,.47,2.18,0,3.92,1.54,.07,3.08,.35,4.62,.85,1.54,.5,2.81,1.46,3.81,2.86,1.14,1.74,1.54,3.83,1.21,6.27-.34,2.44-1.47,5.3-3.41,8.58-2.01,3.35-3.56,6.01-4.67,7.98-1.1,1.98-1.89,3.8-2.36,5.47-.33,1.14-.52,1.99-.55,2.56-.03,.57,.02,.92,.15,1.05,.2,0,.67-.15,1.41-.45,.74-.3,1.76-1.02,3.06-2.16,1.3-1.14,2.89-2.83,4.77-5.07,1.87-2.24,4.02-5.3,6.43-9.19,.6-.94,1.24-1.56,1.91-1.86,.67-.3,1.25-.35,1.76-.15s.8,.6,.9,1.21-.15,1.37-.75,2.31c-1.07,1.74-2.38,3.92-3.92,6.53-1.54,2.61-3.18,5.12-4.92,7.53-1.74,2.41-3.53,4.48-5.37,6.22-1.84,1.74-3.6,2.61-5.27,2.61-2.01,0-3.65-.6-4.92-1.81-1.47-1.27-2.38-2.73-2.71-4.37-.34-1.64-.2-3.55,.4-5.72,.6-2.17,1.61-4.63,3.01-7.38,1.41-2.74,3.11-5.82,5.12-9.24,1.41-2.34,2.17-4.02,2.31-5.02,.13-1,.2-1.54,.2-1.61-.14-.13-.59-.28-1.36-.45-.77-.17-2.23-.08-4.37,.25-.67,1.27-1.37,2.58-2.11,3.92-.74,1.34-1.44,2.59-2.11,3.76-.67,1.17-1.29,2.23-1.86,3.16-.57,.94-1.02,1.61-1.36,2.01-.54,.74-1.14,1.22-1.81,1.46-.67,.24-1.24,.25-1.71,.05-.47-.2-.74-.58-.8-1.15-.07-.57,.2-1.32,.8-2.26Z"/><path class="b" d="M390.53,63.22c-3.88,0-6.83-.9-8.83-2.71-1.81-1.67-2.96-3.61-3.46-5.82s-.55-4.53-.15-6.98c.4-2.44,1.14-4.87,2.21-7.28,1.07-2.41,2.31-4.65,3.71-6.73,1.67-2.54,3.6-4.9,5.77-7.08s4.43-3.95,6.78-5.32c2.34-1.37,4.67-2.21,6.98-2.51,2.31-.3,4.47,.12,6.48,1.25,1.67,.94,2.91,2.23,3.71,3.87,.8,1.64,1.07,3.46,.8,5.47-.13,1.61-.57,3.18-1.31,4.72-.74,1.54-1.66,2.98-2.76,4.32-1.1,1.34-2.39,2.51-3.87,3.51-1.47,1-3.05,1.77-4.72,2.31-.74,.2-1.62,.39-2.66,.55-1.04,.17-2.16,.2-3.36,.1-1.2-.1-2.46-.4-3.76-.9-1.3-.5-2.66-1.25-4.07-2.26-.67,1.34-1.22,2.66-1.66,3.97-.44,1.3-.72,2.53-.85,3.66-.13,1.14-.1,2.19,.1,3.16,.2,.97,.6,1.76,1.21,2.36,1.41,1.41,3.38,1.96,5.92,1.66,2.54-.3,5.29-1.24,8.23-2.81,2.94-1.57,5.92-3.66,8.94-6.27s5.72-5.52,8.13-8.73c.6-.87,1.25-1.42,1.96-1.66,.7-.23,1.27-.23,1.71,0,.43,.24,.69,.67,.75,1.3,.07,.64-.24,1.39-.9,2.26-4.95,6.76-9.89,12.1-14.81,16.01-4.92,3.92-9.52,6.07-13.8,6.48-.4,.07-.8,.1-1.21,.1h-1.2Zm1.61-27.91c2.28,1.94,4.75,2.51,7.43,1.71,1.61-.47,3.01-1.29,4.22-2.46,1.2-1.17,2.16-2.39,2.86-3.66,.7-1.27,1.1-2.44,1.2-3.51,.1-1.07-.18-1.81-.85-2.21-.6-.4-1.49-.43-2.66-.1-1.17,.34-2.46,.95-3.87,1.86s-2.85,2.08-4.32,3.51c-1.47,1.44-2.81,3.06-4.02,4.87Z"/></svg>