<?xml version="1.0" standalone="no"?>
<!DOCTYPE svg PUBLIC "-//W3C//DTD SVG 1.1//EN" "http://www.w3.org/Graphics/SVG/1.1/DTD/svg11.dtd" >
<svg xmlns="http://www.w3.org/2000/svg">
<metadata>Generated by IcoMoon</metadata>
<defs>
<font id="npf-icons" horiz-adv-x="1024">
<font-face units-per-em="1024" ascent="960" descent="-64" />
<missing-glyph horiz-adv-x="1024" />
<glyph unicode="&#x20;" horiz-adv-x="512" d="" />
<glyph unicode="&#xe900;" glyph-name="advanced" horiz-adv-x="1489" d="M1434.836 488.929c-10.811 20.078-271.831 443.27-670.311 443.27h-41.701c-398.48 0-659.499-423.192-670.311-443.27-15.445-26.256-15.445-57.146 0-83.403 10.811-16.989 271.831-441.725 670.311-441.725h41.701c398.48 0 659.499 424.736 670.311 441.725 15.445 26.256 15.445 60.235 0 83.403zM762.98 125.973h-41.701c-245.575 0-437.092 227.041-508.139 324.344 71.047 95.759 261.020 324.344 508.139 324.344h41.701c245.575 0 437.092-227.041 508.139-324.344-71.047-97.303-261.020-324.344-508.139-324.344zM742.902 576.965c-71.047 0-128.193-57.146-128.193-129.738 0-71.047 57.146-129.738 128.193-129.738s128.193 57.146 128.193 129.738-57.146 129.738-128.193 129.738z" />
<glyph unicode="&#xe901;" glyph-name="application" horiz-adv-x="964" d="M701.173 267.052h51.406v596.305c0 0 0 61.687-61.687 61.687h-596.305c0 0-61.687 0-61.687-61.687v-801.928c0 0 0-61.687 61.687-61.687h328.996v51.406h-308.434c-30.843 0-30.843 30.843-30.843 30.843v760.803c0 30.843 30.843 30.843 30.843 30.843h555.181c30.843 0 30.843-30.843 30.843-30.843v-575.743zM596.305 287.614v0c16.45 0 30.843 14.394 30.843 30.843s-14.394 30.843-30.843 30.843v0h-407.133c-16.45 0-30.843-14.394-30.843-30.843s14.394-30.843 30.843-30.843v0h407.133zM189.173 721.478v0c-16.45 0-30.843-14.394-30.843-30.843s14.394-30.843 30.843-30.843v0h407.133c16.45 0 30.843 14.394 30.843 30.843s-14.394 30.843-30.843 30.843v0h-407.133zM625.092 503.518c0 16.45-14.394 30.843-30.843 30.843v0h-405.076c-16.45 0-30.843-14.394-30.843-30.843s14.394-30.843 30.843-30.843v0h407.133c16.45 2.056 28.787 14.394 28.787 30.843zM923.245 299.952c-12.337 12.337-30.843 12.337-43.181 0v0l-242.635-242.635-100.755 100.755c-12.337 10.281-30.843 10.281-43.181 0-12.337-12.337-12.337-30.843 0-43.181v0l143.936-143.936 285.815 285.815c0 0 0 0 0 0v0l2.056 2.056c10.281 12.337 10.281 30.843-2.056 41.124z" />
<glyph unicode="&#xe902;" glyph-name="application-navi" horiz-adv-x="994" d="M760.065 418.767v442.675h-661.507v-826.884h304.026c21.716 0 40.091-18.375 40.091-40.091s-18.375-40.091-40.091-40.091h-344.117c-21.716 0-40.091 18.375-40.091 40.091v907.067c0 21.716 18.375 40.091 40.091 40.091h740.020c21.716 0 40.091-18.375 40.091-40.091v-482.767c0-21.716-18.375-40.091-40.091-40.091s-38.421 18.375-38.421 40.091zM963.863 321.879c-16.705 15.034-41.762 13.364-56.796-3.341l-217.162-242.219-108.581 105.24c-16.705 15.034-41.762 15.034-56.796-1.67s-15.034-41.762 1.67-56.796l138.649-133.638c6.682-6.682 16.705-11.693 28.398-11.693 0 0 0 0 1.67 0 10.023 0 21.716 5.011 28.398 13.364l243.889 273.958c15.034 18.375 13.364 43.432-3.341 56.796zM614.734 709.429h-357.481c-21.716 0-40.091-18.375-40.091-40.091s18.375-40.091 40.091-40.091h357.481c21.716 0 40.091 18.375 40.091 40.091 0 23.387-18.375 40.091-40.091 40.091zM654.825 452.176c0 21.716-18.375 40.091-40.091 40.091h-357.481c-21.716 0-40.091-18.375-40.091-40.091s18.375-40.091 40.091-40.091h357.481c21.716 0 40.091 18.375 40.091 40.091zM257.253 280.117c-21.716 0-40.091-18.375-40.091-40.091s18.375-40.091 40.091-40.091h105.24c21.716 0 40.091 18.375 40.091 40.091s-18.375 40.091-40.091 40.091h-105.24z" />
<glyph unicode="&#xe903;" glyph-name="bell" horiz-adv-x="987" d="M906.748 274.076c-11.725 9.771-21.496 19.542-25.405 27.359 0 0 0 1.954-1.954 1.954v0c-19.542 31.267-25.405 107.481-31.267 154.382 0 7.817-1.954 13.679-1.954 19.542v1.954c-9.771 72.305-35.176 173.924-97.71 259.908-42.992 58.626-95.756 97.71-158.29 117.252-7.817 46.901-48.855 82.076-97.71 82.076s-89.893-35.176-97.71-82.076c-62.534-19.542-117.252-60.58-158.29-117.252-62.534-85.985-87.939-187.603-97.71-259.908v0-1.954c0-5.863-1.954-13.679-1.954-19.542-3.908-46.901-11.725-125.069-31.267-154.382v0c0 0 0-1.954-1.954-1.954-3.908-7.817-15.634-17.588-25.405-27.359-29.313-25.405-87.939-78.168-39.084-170.015 9.771-19.542 29.313-31.267 50.809-31.267h138.748c5.863-64.489 60.58-115.298 127.023-115.298s121.16 50.809 127.023 115.298h416.244c21.496 0 41.038 11.725 50.809 31.267 44.947 91.847-13.679 142.656-42.992 170.015v0zM351.756 12.214c-35.176 0-62.534 25.405-68.397 58.626h136.794c-3.908-31.267-33.221-58.626-68.397-58.626v0zM895.023 129.466c0 0 0-1.954 0 0h-807.084c-25.405 48.855-5.863 70.351 25.405 99.664 13.679 11.725 29.313 25.405 39.084 42.992v0c23.45 39.084 31.267 107.481 39.084 179.786 0 7.817 1.954 13.679 1.954 19.542v0c9.771 64.489 31.267 158.29 87.939 232.55 39.084 52.763 87.939 87.939 146.565 101.618l21.496 5.863v27.359c0 23.45 19.542 41.038 41.038 41.038 23.45 0 41.038-19.542 41.038-41.038v-27.359l21.496-5.863c58.626-13.679 107.481-48.855 146.565-101.618 56.672-76.214 78.168-168.061 87.939-232.55v0c0-5.863 1.954-13.679 1.954-19.542 5.863-72.305 15.634-140.702 39.084-179.786v0c9.771-17.588 23.45-29.313 39.084-42.992 33.221-29.313 52.763-50.809 27.359-99.664v0z" />
<glyph unicode="&#xe904;" glyph-name="calendar" horiz-adv-x="994" d="M944.249 873.869h-114.841v49.445c0 9.57-7.975 15.95-15.95 15.95h-114.841c-9.57 0-15.95-7.975-15.95-15.95v-49.445h-363.664v49.445c0 9.57-7.975 15.95-15.95 15.95h-114.841c-9.57 0-15.95-7.975-15.95-15.95v-49.445h-114.841c-9.57 0-15.95-7.975-15.95-15.95v-886.829c0-9.57 7.975-15.95 15.95-15.95h886.829c9.57 0 15.95 7.975 15.95 15.95v886.829c0 7.975-7.975 15.95-15.95 15.95zM712.972 907.364h82.941v-98.891h-82.941v98.891zM204.162 907.364h82.941v-98.891h-82.941v49.445c0 0 0 49.445 0 49.445zM73.371 840.374h98.891v-49.445c0-9.57 7.975-15.95 15.95-15.95h114.841c9.57 0 15.95 7.975 15.95 15.95v49.445h362.069v-49.445c0-9.57 7.975-15.95 15.95-15.95h114.841c9.57 0 15.95 7.975 15.95 15.95v49.445h98.891v-148.336h-853.333v148.336zM73.371-12.96v673.097h854.928v-673.097c0 0-854.928 0-854.928 0zM631.626 561.246h-445.009v-478.505h626.841v478.505h-181.832zM516.785 529.346h114.841v-114.841h-114.841v114.841zM631.626 266.168h-114.841v114.841h114.841v-114.841zM368.449 381.009h114.841v-114.841h-114.841c0 0 0 114.841 0 114.841zM368.449 529.346h114.841v-114.841h-114.841c0 0 0 114.841 0 114.841zM220.112 529.346h114.841v-114.841h-114.841c0 0 0 114.841 0 114.841zM220.112 381.009h114.841v-114.841h-114.841c0 0 0 114.841 0 114.841zM334.953 117.832h-114.841v114.841h114.841v-114.841zM483.29 117.832h-114.841v114.841h114.841v-114.841zM631.626 117.832h-114.841v114.841h114.841v-114.841zM779.963 117.832h-114.841v114.841h114.841v-114.841zM779.963 266.168h-114.841v114.841h114.841v-114.841zM779.963 529.346v-114.841h-114.841v114.841h114.841z" />
<glyph unicode="&#xe905;" glyph-name="campaigns" horiz-adv-x="1032" d="M527.015 414.968h453.443c15.015 0 27.026 12.012 27.026 27.026s-12.012 27.026-27.026 27.026h-453.443c-13.513 64.563-70.569 112.61-138.135 112.61s-124.622-48.047-138.135-112.61h-202.698c-15.015 0-27.026-12.012-27.026-27.026s12.012-27.026 27.026-27.026h201.196c13.513-64.563 70.569-112.61 138.135-112.61 69.067-1.501 126.123 48.047 139.636 112.61zM303.296 441.994c0 46.545 37.537 85.584 85.584 85.584s85.584-37.537 85.584-85.584-37.537-85.584-85.584-85.584-85.584 39.038-85.584 85.584zM759.742 754.299h220.716c15.015 0 27.026 12.012 27.026 27.026s-12.012 27.026-27.026 27.026h-220.716c-13.513 64.563-70.569 112.61-138.135 112.61s-124.622-48.047-138.135-112.61h-435.425c-15.015 0-27.026-12.012-27.026-27.026s12.012-27.026 27.026-27.026h433.924c13.513-64.563 70.569-112.61 138.135-112.61s126.123 48.047 139.636 112.61zM536.023 781.326c0 46.545 37.537 85.584 85.584 85.584s85.584-37.537 85.584-85.584-37.537-85.584-85.584-85.584-85.584 39.038-85.584 85.584zM759.742 77.138h220.716c15.015 0 27.026 12.012 27.026 27.026s-12.012 27.026-27.026 27.026h-220.716c-13.513 64.563-70.569 112.61-138.135 112.61s-124.622-48.047-138.135-112.61h-435.425c-15.015 0-27.026-12.012-27.026-27.026s12.012-27.026 27.026-27.026h435.425c13.513-64.563 70.569-112.61 138.135-112.61s124.622 48.047 138.135 112.61zM536.023 104.164c0 46.545 37.537 85.584 85.584 85.584s85.584-37.537 85.584-85.584-37.537-85.584-85.584-85.584-85.584 39.038-85.584 85.584z" />
<glyph unicode="&#xe906;" glyph-name="dashboard" horiz-adv-x="1007" d="M27.966 437.244h159.193v-473.277h-159.193v473.277zM423.798 932.034h159.193v-968.067h-159.193v968.067zM819.63 654.521h159.193v-690.555h-159.193v690.555z" />
<glyph unicode="&#xe907;" glyph-name="details" horiz-adv-x="1026" d="M55.076 890.645h171.347v-150.948h-171.347v150.948zM377.371 890.645h465.084v-150.948h-465.084v150.948zM618.072 515.315h354.932v-150.948h-354.932v150.948zM55.076 515.315h412.048v-150.948h-412.048v150.948zM59.155 139.984h520.159v-150.948h-520.159v150.948zM730.263 139.984h161.147v-150.948h-161.147v150.948z" />
<glyph unicode="&#xe908;" glyph-name="down-arrow" horiz-adv-x="741" d="M31.165 352.278c-22.261-22.261-22.261-57.878 0-80.139l300.522-300.522c11.13-11.13 24.487-17.809 40.070-17.809s28.939 6.678 40.070 17.809l300.522 300.522c22.261 22.261 22.261 57.878 0 80.139-11.13 11.13-26.713 17.809-40.070 17.809s-28.939-4.452-40.070-17.809l-204.8-204.8v736.835c0 31.165-24.487 55.652-55.652 55.652s-55.652-24.487-55.652-55.652v-736.835l-204.8 204.8c-22.261 22.261-57.878 22.261-80.139 0z" />
<glyph unicode="&#xe909;" glyph-name="download" horiz-adv-x="989" d="M832.333 315.785v-218.288h-672.61v218.288h-127.778v-283.951c0-35.494 28.395-63.889 63.889-63.889h798.614c35.494 0 63.889 28.395 63.889 63.889v283.951h-126.003zM482.718 337.081l-181.019 223.612c0 0-28.395 26.62 1.775 26.62s104.707 0 104.707 0 0 17.747 0 46.142c0 78.087 0 220.062 0 278.627 0 0-3.549 15.972 19.522 15.972 24.846 0 129.553 0 145.525 0 17.747 0 15.972-12.423 15.972-12.423 0-56.79 0-204.090 0-278.627 0-24.846 0-40.818 0-40.818s58.565 0 95.834 0c37.269 0 8.873-28.395 8.873-28.395s-156.173-207.64-179.244-230.711c-14.198-17.747-31.945 0-31.945 0z" />
<glyph unicode="&#xe90a;" glyph-name="drop-down" horiz-adv-x="1614" d="M360.769 847.032l444.584-481.025 444.584 481.025c29.153 29.153 65.594 47.374 112.968 47.374 83.815 0 153.053-65.594 153.053-149.409 0-40.085-14.577-72.883-40.085-102.036v0l-557.552-597.637c-29.153-29.153-69.238-47.374-112.968-47.374s-83.815 18.221-112.968 47.374l-553.907 601.281c-25.509 25.509-40.085 61.95-40.085 102.036 0 83.815 69.238 149.409 153.053 149.409 43.73 0 83.815-21.865 109.324-51.018v0z" />
<glyph unicode="&#xe90b;" glyph-name="filter" horiz-adv-x="1110" d="M1108.217 940.86c-5.742 11.484-17.226 19.14-30.624 19.14h-1043.14c-13.398 0-24.882-7.656-30.624-19.14s-3.828-24.882 3.828-36.366l400.030-486.161v-447.88c0-11.484 5.742-22.968 15.312-28.71 5.742-3.828 11.484-5.742 17.226-5.742s9.57 1.914 15.312 3.828l227.768 111.013c11.484 5.742 19.14 17.226 19.14 30.624v336.867l401.944 486.161c7.656 9.57 9.57 24.882 3.828 36.366zM643.11 452.785c-5.742-5.742-7.656-13.398-7.656-21.054v-327.297l-158.864-78.475v403.858c0 7.656-1.914 15.312-7.656 21.054l-363.664 440.224h899.589l-361.75-438.31z" />
<glyph unicode="&#xe90c;" glyph-name="geographical" horiz-adv-x="1023" d="M755.128 61.855c-5.721 8.581-17.162 11.441-25.743 7.151h-1.43c-8.581-5.721-11.441-17.162-7.151-25.743 2.86-5.721 10.011-8.581 15.732-8.581 2.86 0 5.721 1.43 10.011 2.86h1.43c8.581 4.291 12.872 17.162 7.151 24.313zM922.458 685.408c-62.927 110.123-165.899 188.782-288.894 221.676s-250.279 15.732-360.402-47.196-188.782-165.899-221.676-288.894-15.732-250.279 47.196-360.402c57.207-98.682 147.307-173.050 254.57-211.665 51.486-17.162 104.402-27.173 157.318-27.173 57.207 0 115.844 10.011 170.19 31.464 10.011 4.291 14.302 14.302 10.011 24.313s-14.302 14.302-24.313 10.011c-144.447-55.777-301.765-30.034-419.039 57.207l17.162 87.24 8.581 2.86c30.034 10.011 47.196 42.905 37.184 72.939l-5.721 18.592c-1.43 4.291-1.43 8.581 0 12.872 5.721 15.732 2.86 32.894-5.721 47.196s-22.883 24.313-38.615 27.173l-41.475 10.011-81.52 61.497c-4.291 4.291-11.441 4.291-17.162 2.86l-47.196-15.732c-1.43 17.162-1.43 34.324 0 50.056 1.43-1.43 2.86-2.86 4.291-4.291s1.43-2.86 2.86-4.291c4.291-2.86 7.151-5.721 14.302-5.721s17.162 1.43 32.894 4.291c15.732 2.86 31.464 4.291 31.464 4.291 5.721 1.43 11.441 5.721 14.302 11.441s1.43 12.872-1.43 17.162l-22.883 32.894 32.894 22.883c2.86 1.43 4.291 2.86 5.721 5.721l50.056 88.67 20.022 21.453c21.453 22.883 27.173 54.346 15.732 82.95-7.151 17.162-18.592 30.034-34.324 40.045 15.732 12.872 32.894 24.313 51.486 35.754 67.218 38.615 141.587 57.207 214.525 58.637l-32.894-41.475-122.994-42.905c-4.291-1.43-8.581-5.721-11.441-10.011l-34.324-82.95c-2.86-5.721-1.43-12.872 1.43-17.162l50.056-70.078c-7.151-7.151-14.302-15.732-22.883-28.603-4.291-5.721-7.151-10.011-10.011-12.872-1.43-2.86-4.291-4.291-5.721-7.151-11.441-11.441-21.453-24.313-30.034-41.475-17.162-37.184-14.302-80.089 8.581-111.553s58.637-47.196 98.682-42.905c5.721 1.43 12.872 2.86 18.592 4.291 15.732 4.291 21.453 4.291 25.743 0 2.86-2.86 2.86-2.86 2.86-10.011 0-5.721 0-11.441 1.43-18.592 2.86-11.441 10.011-18.592 15.732-25.743 2.86-2.86 5.721-5.721 7.151-8.581 5.721-14.302 2.86-21.453-2.86-38.615 0-1.43-1.43-2.86-1.43-4.291-8.581-25.743 2.86-51.486 14.302-74.369 2.86-7.151 7.151-14.302 8.581-20.022 17.162-50.056 28.603-61.497 38.615-65.788 5.721-2.86 10.011-2.86 15.732-2.86 27.173 0 54.346 24.313 67.218 40.045 8.581 10.011 10.011 20.022 11.441 27.173 1.43 4.291 1.43 7.151 2.86 8.581 1.43 2.86 4.291 5.721 5.721 7.151 4.291 5.721 11.441 12.872 15.732 25.743 2.86 10.011 5.721 11.441 12.872 20.022 1.43 1.43 2.86 2.86 4.291 4.291 24.313 27.173 18.592 47.196 11.441 68.648-5.721 18.592 4.291 30.034 28.603 52.916 10.011 10.011 21.453 20.022 30.034 31.464 4.291 5.721 14.302 21.453 7.151 37.184s-24.313 18.592-37.184 20.022c-5.721 1.43-14.302 1.43-15.732 4.291-11.441 7.151-18.592 22.883-25.743 38.615-1.43 2.86-2.86 5.721-4.291 8.581-2.86 5.721-4.291 11.441-7.151 18.592-7.151 17.162-14.302 37.184-27.173 51.486-11.441 12.872-34.324 18.592-52.916 24.313-7.151 1.43-12.872 2.86-17.162 4.291-2.86 1.43-7.151 1.43-10.011 0-10.011-2.86-15.732-4.291-20.022-8.581-1.43-1.43-4.291-4.291-7.151-8.581-7.151 2.86-15.732 10.011-21.453 12.872v0c1.43 7.151 0 14.302-1.43 18.592-10.011 21.453-44.335 20.022-51.486 20.022-4.291 0-8.581 0-14.302 0-8.581 0-17.162 0-25.743-1.43v1.43c7.151 18.592 24.313 31.464 44.335 31.464h10.011c10.011 0 18.592 8.581 18.592 18.592s-8.581 18.592-18.592 18.592h-10.011c-30.034 0-57.207-15.732-71.508-40.045l-27.173 38.615 27.173 65.788 120.134 41.475c2.86 1.43 5.721 2.86 8.581 5.721l52.916 67.218c135.866-12.872 264.581-90.101 338.95-217.385 20.022-34.324 34.324-70.078 44.335-105.832l-8.581-7.151c-10.011-8.581-15.732-22.883-17.162-35.754v0l-11.441 34.324c-1.43 5.721-4.291 10.011-8.581 14.302l-22.883 27.173c-8.581 10.011-21.453 15.732-35.754 15.732h-28.603c-10.011 0-18.592-5.721-24.313-14.302-4.291-8.581-4.291-21.453 1.43-28.603l2.86-4.291c-18.592-15.732-38.615-28.603-61.497-35.754l-37.184 74.369v14.302c0 5.721-1.43 10.011-5.721 12.872l-34.324 32.894c-1.43 1.43-4.291 2.86-7.151 4.291l-31.464 11.441c-10.011 2.86-20.022-1.43-24.313-11.441-2.86-10.011 1.43-20.022 11.441-24.313l27.173-10.011 25.743-24.313v-12.872c0-2.86 1.43-5.721 1.43-8.581l48.626-91.531c4.291-8.581 14.302-11.441 22.883-8.581l14.302 5.721c32.894 11.441 62.927 31.464 87.24 55.777 5.721 5.721 7.151 15.732 2.86 22.883l-1.43 1.43h8.581c2.86 0 5.721-1.43 7.151-2.86l22.883-27.173c1.43-1.43 1.43-1.43 1.43-2.86l25.743-70.078c2.86-5.721 7.151-10.011 12.872-11.441 1.43 0 2.86 0 4.291 0 4.291 0 10.011 1.43 12.872 5.721l11.441 11.441c7.151 7.151 12.872 17.162 15.732 28.603 18.592-148.737-40.045-303.196-163.039-400.447-8.581-5.721-10.011-18.592-2.86-25.743 5.721-8.581 18.592-10.011 25.743-2.86 88.67 70.078 150.168 170.19 173.050 281.743 24.313 114.413 4.291 228.827-52.916 328.939zM122.994 399.374l77.229-58.637c2.86-1.43 4.291-2.86 7.151-2.86l45.765-8.581c5.721-1.43 11.441-4.291 14.302-10.011s4.291-11.441 1.43-17.162c-4.291-11.441-4.291-24.313 0-35.754l5.721-18.592c2.86-11.441-2.86-22.883-12.872-25.743l-18.592-7.151c-7.151-1.43-11.441-7.151-12.872-14.302l-14.302-77.229c-32.894 30.034-61.497 65.788-84.38 105.832-28.603 48.626-45.765 101.542-54.346 154.458l45.765 15.732zM231.687 695.419l-21.453-22.883c-1.43-1.43-1.43-2.86-2.86-2.86l-50.056-87.24-44.335-31.464c-8.581-5.721-10.011-17.162-4.291-25.743l17.162-24.313c-10.011-1.43-18.592-2.86-24.313-2.86-1.43 1.43-2.86 1.43-2.86 2.86-4.291 4.291-10.011 10.011-20.022 17.162 15.732 92.961 60.067 181.631 130.145 248.849 12.872-4.291 24.313-14.302 30.034-27.173 5.721-15.732 2.86-31.464-7.151-44.335zM381.855 592.447c8.581 4.291 27.173 5.721 41.475 5.721 5.721 0 11.441 0 15.732 1.43 2.86 0 5.721 0 8.581 0-1.43-2.86-1.43-5.721-1.43-10.011 1.43-5.721 4.291-11.441 10.011-12.872 2.86-1.43 8.581-5.721 12.872-8.581 14.302-10.011 31.464-20.022 45.765-21.453s21.453 7.151 25.743 10.011c0 0 0 0 1.43 1.43s4.291 4.291 4.291 5.721c2.86-1.43 5.721-1.43 8.581-2.86 11.441-2.86 31.464-8.581 35.754-12.872 8.581-8.581 14.302-24.313 20.022-38.615 2.86-7.151 5.721-14.302 8.581-20.022 1.43-2.86 2.86-5.721 4.291-8.581 8.581-18.592 18.592-41.475 38.615-54.346 10.011-5.721 21.453-7.151 31.464-10.011 1.43 0 2.86 0 4.291 0-5.721-8.581-14.302-15.732-22.883-24.313-22.883-21.453-51.486-48.626-38.615-90.101 5.721-20.022 7.151-22.883-2.86-32.894-1.43-1.43-2.86-2.86-4.291-4.291-8.581-8.581-15.732-15.732-21.453-34.324-1.43-5.721-4.291-7.151-7.151-11.441-2.86-2.86-7.151-7.151-10.011-14.302-4.291-7.151-5.721-14.302-7.151-20.022s-1.43-8.581-4.291-11.441c-4.291-5.721-14.302-14.302-22.883-20.022s-14.302-5.721-15.732-5.721c-1.43 1.43-8.581 11.441-20.022 44.335-2.86 8.581-5.721 15.732-10.011 24.313-8.581 17.162-15.732 35.754-11.441 47.196 0 1.43 1.43 2.86 1.43 4.291 5.721 20.022 12.872 37.184 1.43 64.358-2.86 8.581-8.581 14.302-12.872 18.592-2.86 2.86-7.151 7.151-7.151 10.011s0 5.721 0 10.011c0 10.011 0 24.313-14.302 38.615-20.022 18.592-44.335 12.872-60.067 10.011-4.291-1.43-10.011-2.86-12.872-2.86-25.743-2.86-50.056 7.151-64.358 27.173-15.732 21.453-17.162 50.056-5.721 74.369 5.721 11.441 14.302 21.453 24.313 32.894 2.86 2.86 4.291 4.291 7.151 7.151 4.291 4.291 7.151 10.011 11.441 15.732 1.43 2.86 11.441 17.162 14.302 18.592zM796.603 284.961l-8.581 34.324c-1.43 7.151-8.581 12.872-15.732 14.302s-14.302-2.86-18.592-10.011c-1.43-4.291-4.291-7.151-5.721-11.441-2.86-7.151-5.721-12.872-8.581-17.162-1.43-1.43-5.721-4.291-11.441-7.151-10.011-5.721-25.743-12.872-31.464-30.034-2.86-11.441-2.86-20.022-1.43-25.743s1.43-7.151 0-11.441v0c-5.721-14.302-17.162-40.045-1.43-61.497 11.441-15.732 22.883-20.022 31.464-20.022 1.43 0 2.86 0 4.291 0 18.592 2.86 32.894 22.883 44.335 61.497l21.453 72.939c2.86 4.291 2.86 7.151 1.43 11.441zM739.397 212.022c-5.721-20.022-11.441-30.034-14.302-32.894l-1.43 1.43c-2.86 5.721 1.43 17.162 5.721 25.743v0c5.721 12.872 4.291 22.883 2.86 31.464 0 4.291-1.43 7.151 0 10.011s5.721 4.291 11.441 7.151c2.86 1.43 5.721 2.86 10.011 4.291l-14.302-47.196zM536.313 702.57v0c-11.441 4.291-21.453-1.43-24.313-11.441s1.43-20.022 11.441-24.313h1.43c1.43 0 4.291-1.43 5.721-1.43 7.151 0 14.302 4.291 17.162 12.872 4.291 10.011-1.43 21.453-11.441 24.313z" />
<glyph unicode="&#xe90d;" glyph-name="info" d="M511.209 907.771c-253.23 0-458.98-205.75-458.98-458.98s205.75-458.98 458.98-458.98 458.98 205.75 458.98 458.98-205.75 458.98-458.98 458.98zM642.572 141.75c-28.488-11.079-50.646-20.575-68.056-25.323-17.41-6.331-36.402-9.496-58.56-9.496-34.819 0-61.725 7.913-80.717 25.323s-28.488 37.985-28.488 64.89c0 9.496 0 20.575 1.583 31.654s3.165 22.158 6.331 36.402l36.402 126.615c3.165 12.662 6.331 23.74 7.913 34.819s3.165 20.575 3.165 30.071c0 15.827-3.165 26.906-9.496 33.236s-18.992 9.496-37.985 9.496c-9.496 0-18.992-1.583-28.488-4.748s-17.41-6.331-25.323-7.913l9.496 39.567c23.74 9.496 45.898 17.41 66.473 23.74s41.15 9.496 60.142 9.496c34.819 0 60.142-7.913 79.134-25.323 18.992-15.827 28.488-37.985 28.488-64.89 0-4.748 0-15.827-1.583-28.488-1.583-14.244-3.165-26.906-7.913-37.985l-34.819-125.032c-3.165-9.496-4.748-22.158-7.913-34.819-1.583-12.662-3.165-22.158-3.165-30.071 0-17.41 3.165-28.488 11.079-34.819s20.575-9.496 39.567-9.496c7.913 0 18.992 1.583 30.071 4.748s18.992 6.331 23.74 7.913l-11.079-39.567zM636.241 652.958c-15.827-15.827-36.402-23.74-60.142-23.74s-42.733 7.913-60.142 23.74c-17.41 15.827-25.323 34.819-25.323 55.394 0 22.158 7.913 41.15 25.323 55.394 17.41 15.827 36.402 23.74 60.142 23.74s42.733-7.913 60.142-23.74c15.827-15.827 25.323-34.819 25.323-55.394 0-22.158-7.913-39.567-25.323-55.394z" />
<glyph unicode="&#xe90e;" glyph-name="lead" horiz-adv-x="946" d="M638.522 685.672c0-92.231-75.677-167.908-165.543-167.908s-167.908 75.677-167.908 167.908 75.677 165.543 167.908 165.543 165.543-73.312 165.543-165.543zM695.279 685.672c0 122.975-99.326 222.3-222.3 222.3s-222.3-99.326-222.3-222.3c0-122.975 99.326-222.3 222.3-222.3s222.3 99.326 222.3 222.3zM898.661-11.972c0 0 0 0 0 0 0 236.49-191.557 428.046-425.681 428.046s-425.681-191.557-425.681-425.681c0 0 0 0 0-2.365h59.122c0 0 0 0 0 2.365 0 203.381 163.178 366.559 366.559 366.559s366.559-163.178 366.559-366.559c0 0 0 0 0-2.365h59.122z" />
<glyph unicode="&#xe90f;" glyph-name="unverified-leads" horiz-adv-x="1044" d="M643.376 687.424c0-95.77-78.58-171.894-171.894-171.894-95.77 0-174.35 78.58-174.35 171.894 0 95.77 78.58 171.894 174.35 171.894 95.77 2.456 171.894-76.125 171.894-171.894zM702.312 687.424c0 127.693-103.137 230.83-230.83 230.83s-230.83-103.137-230.83-230.83c0-127.693 103.137-230.83 230.83-230.83s230.83 103.137 230.83 230.83zM699.856 267.511l44.201 44.201c-76.125 58.935-169.439 93.314-272.576 93.314-243.108 0-442.014-198.906-442.014-442.014 0 0 0 0 0-2.456h61.391c0 0 0 0 0 2.456 0 211.185 169.439 380.624 380.624 380.624 85.947 0 164.528-29.468 228.374-76.125zM884.029 105.439l36.835-36.835-27.012-27.012-36.835 36.835-36.835-36.835-27.012 27.012 36.835 36.835-36.835 36.835 27.012 27.012 36.835-36.835 36.835 36.835 27.012-27.012-36.835-36.835zM1004.355 107.894c0 81.036-66.302 147.338-147.338 147.338s-147.338-66.302-147.338-147.338 66.302-147.338 147.338-147.338 147.338 66.302 147.338 147.338z" />
<glyph unicode="&#xe910;" glyph-name="up-arrow" horiz-adv-x="741" d="M684.735 535.919c20.687 20.687 20.687 53.786 0 74.473l-279.273 279.273c-10.343 10.343-22.756 16.549-37.236 16.549s-26.893-6.206-37.236-16.549l-277.204-279.273c-20.687-20.687-20.687-53.786 0-74.473 10.343-10.343 24.824-16.549 37.236-16.549s26.893 4.137 37.236 16.549l190.319 190.319v-684.735c0-28.962 22.756-51.717 51.717-51.717s51.717 22.756 51.717 51.717v684.735l190.319-190.319c18.618-20.687 51.717-20.687 72.404 0z" />
<glyph unicode="&#xe911;" glyph-name="verified-leads" horiz-adv-x="1044" d="M643.376 687.424c0-95.77-78.58-171.894-171.894-171.894-95.77 0-174.35 78.58-174.35 171.894 0 95.77 78.58 171.894 174.35 171.894 95.77 2.456 171.894-76.125 171.894-171.894zM702.312 687.424c0 127.693-103.137 230.83-230.83 230.83s-230.83-103.137-230.83-230.83c0-127.693 103.137-230.83 230.83-230.83s230.83 103.137 230.83 230.83zM699.856 267.511l44.201 44.201c-76.125 58.935-169.439 93.314-272.576 93.314-243.108 0-442.014-198.906-442.014-442.014 0 0 0 0 0-2.456h61.391c0 0 0 0 0 2.456 0 211.185 169.439 380.624 380.624 380.624 85.947 0 164.528-29.468 228.374-76.125zM935.597 144.729l-100.681-100.681-4.911 7.367-51.568 51.568 27.012 27.012 31.923-31.923 76.125 76.125 22.101-29.468zM1004.355 107.894c0 81.036-66.302 147.338-147.338 147.338s-147.338-66.302-147.338-147.338 66.302-147.338 147.338-147.338 147.338 66.302 147.338 147.338z" />
<glyph unicode="&#xe912;" glyph-name="additional-school-preferences" d="M886.784 416.256v377.856c0 18.432-15.36 33.792-33.792 33.792s-33.792-15.36-33.792-33.792v-377.856c-50.176-14.336-87.040-61.44-87.040-116.736s36.864-101.376 87.040-116.736v-112.64c0-18.432 15.36-33.792 33.792-33.792s33.792 15.36 33.792 33.792v112.64c50.176 14.336 87.040 61.44 87.040 116.736 1.024 55.296-35.84 102.4-87.040 116.736zM852.992 246.272c-29.696 0-53.248 23.552-53.248 53.248s23.552 53.248 53.248 53.248c29.696 0 53.248-23.552 53.248-53.248 1.024-28.672-23.552-53.248-53.248-53.248zM520.192 858.624c-66.56 0-120.832-54.272-120.832-120.832 0-55.296 36.864-101.376 87.040-116.736v-549.888c0-18.432 15.36-33.792 33.792-33.792s33.792 15.36 33.792 33.792v549.888c50.176 14.336 87.040 61.44 87.040 116.736 0 66.56-54.272 120.832-120.832 120.832zM520.192 683.52c-29.696 0-53.248 23.552-53.248 53.248s23.552 53.248 53.248 53.248c29.696 0 53.248-23.552 53.248-53.248 0-28.672-23.552-53.248-53.248-53.248zM221.184 549.376v244.736c0 18.432-15.36 33.792-33.792 33.792s-33.792-15.36-33.792-33.792v-244.736c-50.176-14.336-87.040-61.44-87.040-116.736s36.864-101.376 87.040-116.736v-244.736c0-18.432 15.36-33.792 33.792-33.792s33.792 15.36 33.792 33.792v245.76c50.176 14.336 87.040 61.44 87.040 116.736 0 54.272-36.864 100.352-87.040 115.712zM187.392 379.392c-29.696 0-53.248 23.552-53.248 53.248s23.552 53.248 53.248 53.248c29.696 0 53.248-23.552 53.248-53.248s-23.552-53.248-53.248-53.248z" />
<glyph unicode="&#xe913;" glyph-name="communication" d="M939.008 654.848c0 24.576-19.456 44.032-44.032 44.032 0 0 0 0 0 0l-766.976-1.024c-11.264 0-22.528-4.096-30.72-13.312-8.192-8.192-12.288-19.456-12.288-30.72v-431.104c0-11.264 4.096-22.528 13.312-30.72 8.192-8.192 19.456-12.288 30.72-12.288 0 0 0 0 0 0l766.976 1.024c24.576 0 44.032 19.456 44.032 44.032l-1.024 430.080zM846.848 654.848l-334.848-233.472-335.872 232.448 670.72 1.024zM653.312 377.344l198.656-153.6-680.96-1.024 199.68 154.624c9.216 7.168 11.264 21.504 4.096 30.72s-21.504 11.264-30.72 4.096l-215.040-166.912-1.024 388.096 371.712-257.024c4.096-3.072 8.192-4.096 12.288-4.096s9.216 1.024 12.288 4.096l370.688 258.048 1.024-389.12-215.040 166.912c-9.216 7.168-23.552 6.144-30.72-4.096-8.192-9.216-6.144-22.528 3.072-30.72z" />
<glyph unicode="&#xe914;" glyph-name="logout" d="M510.976 95.744h-317.44c-19.456 0-34.816 15.36-34.816 34.816v634.88c0 19.456 15.36 34.816 34.816 34.816h317.44c19.456 0 34.816 15.36 34.816 34.816s-15.36 34.816-34.816 34.816h-317.44c-58.368 1.024-106.496-46.080-106.496-104.448v-634.88c0-58.368 47.104-105.472 105.472-105.472h317.44c19.456 0 34.816 15.36 34.816 34.816 1.024 19.456-14.336 35.84-33.792 35.84zM925.696 473.6l-214.016 210.944c-14.336 13.312-35.84 13.312-50.176 0-13.312-14.336-13.312-35.84 0-50.176l153.6-151.552h-410.624c-19.456 0-34.816-15.36-34.816-34.816s15.36-34.816 34.816-34.816h410.624l-153.6-151.552c-14.336-13.312-14.336-35.84 0-50.176 7.168-7.168 16.384-10.24 25.6-10.24s17.408 3.072 24.576 10.24l214.016 211.968c7.168 6.144 10.24 15.36 10.24 25.6 1.024 8.192-3.072 17.408-10.24 24.576z" />
<glyph unicode="&#xe915;" glyph-name="retake" d="M489.472 788.992v130.048l-173.056-173.056 173.056-173.056v130.048c142.336 0 259.072-116.736 259.072-259.072 0-43.008-13.312-86.016-30.72-120.832l64.512-64.512c30.72 56.32 52.224 116.736 52.224 185.344 0 189.44-155.648 345.088-345.088 345.088zM489.472 184.832c-142.336 0-259.072 116.736-259.072 259.072 0 43.008 13.312 86.016 30.72 120.832l-64.512 64.512c-30.72-56.32-52.224-116.736-52.224-185.344-1.024-190.464 154.624-346.112 345.088-346.112v-130.048l172.032 173.056-172.032 173.056v-129.024z" />
<glyph unicode="&#xe916;" glyph-name="schedule" d="M878.592 795.136h-118.784v55.296c0 15.36-12.288 27.648-27.648 27.648s-27.648-12.288-27.648-27.648v-55.296h-164.864v55.296c0 15.36-12.288 27.648-27.648 27.648s-27.648-12.288-27.648-27.648v-55.296h-164.864v55.296c0 15.36-12.288 27.648-27.648 27.648s-27.648-12.288-27.648-27.648v-55.296h-118.784c-40.96 0-73.728-32.768-73.728-73.728v-651.264c0-40.96 32.768-73.728 73.728-73.728h734.208c40.96 0 73.728 32.768 73.728 73.728v652.288c-1.024 39.936-33.792 72.704-74.752 72.704zM897.024 71.168c0-10.24-8.192-18.432-18.432-18.432h-733.184c-10.24 0-18.432 8.192-18.432 18.432v651.264c0 10.24 8.192 18.432 18.432 18.432h118.784v-55.296c0-15.36 12.288-27.648 27.648-27.648s27.648 12.288 27.648 27.648v55.296h164.864v-55.296c0-15.36 12.288-27.648 27.648-27.648s27.648 12.288 27.648 27.648v55.296h164.864v-55.296c0-15.36 12.288-27.648 27.648-27.648s27.648 12.288 27.648 27.648v55.296h118.784c10.24 0 18.432-8.192 18.432-18.432v-651.264zM264.192 548.352h110.592v-82.944h-110.592v82.944zM264.192 410.112h110.592v-82.944h-110.592v82.944zM264.192 272.896h110.592v-82.944h-110.592v82.944zM456.704 272.896h110.592v-82.944h-110.592v82.944zM456.704 410.112h110.592v-82.944h-110.592v82.944zM456.704 548.352h110.592v-82.944h-110.592v82.944zM649.216 272.896h110.592v-82.944h-110.592v82.944zM649.216 410.112h110.592v-82.944h-110.592v82.944zM649.216 548.352h110.592v-82.944h-110.592v82.944z" />
<glyph unicode="&#xe917;" glyph-name="scorecard" d="M821.248 670.208l-178.176 178.176c-5.12 5.12-12.288 8.192-19.456 8.192h-411.648c-15.36 0-27.648-12.288-27.648-27.648v-772.096c0-15.36 12.288-27.648 27.648-27.648h589.824c15.36 0 27.648 12.288 27.648 27.648v593.92c0 7.168-3.072 14.336-8.192 19.456zM651.264 762.368l83.968-83.968h-83.968v83.968zM239.616 84.48v716.8h356.352v-150.528c0-15.36 12.288-27.648 27.648-27.648h150.528v-538.624h-534.528zM509.952 475.648c-4.096 10.24-14.336 17.408-25.6 17.408s-21.504-7.168-25.6-17.408l-91.136-227.328c-6.144-14.336 1.024-29.696 15.36-35.84s29.696 1.024 35.84 15.36l11.264 27.648h107.52l11.264-27.648c4.096-11.264 14.336-17.408 25.6-17.408 3.072 0 7.168 1.024 10.24 2.048 14.336 6.144 20.48 21.504 15.36 35.84l-90.112 227.328zM452.608 311.808l31.744 79.872 31.744-79.872h-63.488zM681.984 484.864h-22.528v22.528c0 15.36-12.288 27.648-27.648 27.648s-27.648-12.288-27.648-27.648v-22.528h-22.528c-15.36 0-27.648-12.288-27.648-27.648s12.288-27.648 27.648-27.648h22.528v-22.528c0-15.36 12.288-27.648 27.648-27.648s27.648 12.288 27.648 27.648v22.528h22.528c15.36 0 27.648 12.288 27.648 27.648s-12.288 27.648-27.648 27.648z" />
<glyph unicode="&#xe918;" glyph-name="application-Manager" d="M738.304 258.56h52.224v608.256c0 0 0 62.464-62.464 62.464h-608.256c0 0-63.488 0-63.488-62.464v-818.176c0 0 0-62.464 63.488-62.464h335.872v52.224h-315.392c-31.744 0-31.744 31.744-31.744 31.744v776.192c1.024 31.744 31.744 31.744 31.744 31.744h566.272c31.744 0 31.744-31.744 31.744-31.744v-587.776zM631.808 279.040v0c17.408 1.024 30.72 14.336 30.72 31.744s-13.312 30.72-30.72 31.744v0h-415.744c-17.408-1.024-30.72-14.336-30.72-31.744s13.312-30.72 30.72-31.744v0h415.744zM216.064 721.408v0c-17.408-1.024-30.72-14.336-30.72-31.744s13.312-30.72 30.72-31.744v0h414.72c17.408 1.024 30.72 14.336 30.72 31.744s-13.312 30.72-30.72 31.744v0h-414.72zM661.504 500.224c0 17.408-13.312 30.72-30.72 31.744v0h-414.72c-17.408-1.024-30.72-14.336-30.72-31.744s13.312-30.72 30.72-31.744v0h414.72c17.408 1.024 30.72 15.36 30.72 31.744zM965.632 292.352c-12.288 12.288-30.72 12.288-43.008 1.024v0l-249.856-248.832-101.376 101.376c0 0 0 0 0 0v0l-1.024 1.024c-12.288 11.264-30.72 11.264-43.008-1.024s-12.288-30.72-1.024-43.008v0l145.408-146.432 1.024 1.024 1.024-1.024 292.864 292.864c11.264 12.288 11.264 31.744-1.024 43.008z" />
<glyph unicode="&#xe919;" glyph-name="query-Manager" d="M467.968 218.624c-7.168-8.192-11.264-18.432-11.264-30.72s4.096-22.528 11.264-30.72c7.168-8.192 18.432-12.288 32.768-12.288s25.6 4.096 32.768 12.288c7.168 8.192 11.264 18.432 11.264 30.72s-4.096 22.528-11.264 30.72c-7.168 8.192-18.432 12.288-32.768 12.288s-25.6-4.096-32.768-12.288zM608.256 454.144c44.032 46.080 65.536 92.16 65.536 139.264 0 48.128-14.336 84.992-43.008 112.64s-68.608 40.96-118.784 40.96c-49.152 0-89.088-13.312-119.808-39.936s-46.080-62.464-47.104-105.472h74.752c0 24.576 8.192 44.032 25.6 58.368 16.384 14.336 38.912 21.504 66.56 21.504 28.672 0 50.176-8.192 64.512-23.552 14.336-16.384 22.528-37.888 22.528-66.56 0-29.696-11.264-56.32-33.792-81.92l-53.248-55.296c-20.48-22.528-34.816-43.008-40.96-61.44-7.168-18.432-10.24-44.032-11.264-75.776h74.752c0 40.96 10.24 72.704 29.696 94.208l44.032 43.008zM934.912 445.952c0-234.496-190.464-424.96-424.96-424.96s-424.96 190.464-424.96 424.96 190.464 424.96 424.96 424.96 424.96-190.464 424.96-424.96zM989.184 445.952c0 264.192-215.040 479.232-479.232 479.232s-479.232-215.040-479.232-479.232 215.040-479.232 479.232-479.232 479.232 215.040 479.232 479.232z" />
<glyph unicode="&#xe91a;" glyph-name="payment-Manager" horiz-adv-x="1027" d="M706.56 648.411c2.926 1.463 14.629 19.017 35.109 51.2v0h-349.623c0 0-11.703-16.091-35.109-49.737v-1.463h92.16c16.091 0 33.646-2.926 52.663-8.777 27.794-10.24 45.349-24.869 54.126-45.349v0h-163.84c0 0-11.703-16.091-35.109-49.737 0-1.463 0-1.463 1.463-1.463h207.726c0-7.314-1.463-14.629-4.389-21.943-19.017-49.737-65.829-74.606-141.897-74.606-16.091 0-30.72 1.463-42.423 2.926v-49.737c0 0 68.754-80.457 204.8-239.909h90.697c-140.434 163.84-210.651 247.223-210.651 248.686v0c30.72 0 62.903 8.777 96.549 24.869 17.554 7.314 36.571 23.406 57.051 46.811 14.629 24.869 23.406 45.349 24.869 61.44h64.366c0 0 11.703 16.091 33.646 49.737 0 0 0 1.463-1.463 1.463h-99.474c-4.389 21.943-13.166 39.497-26.331 54.126h95.086zM943.543 453.851c0-236.983-191.634-428.617-428.617-428.617s-430.080 191.634-430.080 428.617 193.097 430.080 430.080 430.080 428.617-193.097 428.617-430.080zM999.131 453.851c0 267.703-216.503 484.206-484.206 484.206s-484.206-216.503-484.206-484.206 216.503-484.206 484.206-484.206 484.206 217.966 484.206 484.206z" />
<glyph unicode="&#xe91b;" glyph-name="post-Application" d="M390.258 508.302c0-32.996-27.307-60.302-60.302-60.302s-60.302 27.307-60.302 60.302c0 32.996 27.307 60.302 60.302 60.302 34.133 0 60.302-27.307 60.302-60.302zM431.218 508.302c0 55.751-44.373 100.124-100.124 100.124s-100.124-44.373-100.124-100.124 44.373-100.124 100.124-100.124c54.613 0 100.124 44.373 100.124 100.124zM471.040 254.578c0-4.551-2.276-6.827-2.276-6.827h-275.342c0 0-2.276 2.276-2.276 6.827v12.516c0 19.342 9.102 36.409 23.893 45.511 27.307 15.929 70.542 35.271 116.053 35.271s88.747-19.342 116.053-35.271c14.791-7.964 23.893-26.169 23.893-45.511v-12.516zM510.862 267.093c0 32.996-17.067 63.716-43.236 79.644-31.858 19.342-81.92 40.96-136.533 40.96-55.751 0-104.676-22.756-136.533-40.96-26.169-15.929-43.236-46.649-43.236-79.644v-12.516c0-25.031 19.342-46.649 43.236-46.649h274.204c23.893 0 43.236 20.48 43.236 46.649v12.516zM871.538 427.52c0 11.378-9.102 20.48-20.48 20.48h-319.716c-11.378 0-20.48-9.102-20.48-20.48s9.102-20.48 20.48-20.48h319.716c11.378 1.138 20.48 10.24 20.48 20.48zM871.538 308.053c0 11.378-9.102 20.48-20.48 20.48h-240.071c-11.378 0-20.48-9.102-20.48-20.48s9.102-20.48 20.48-20.48h240.071c11.378 0 20.48 9.102 20.48 20.48zM951.182 168.107c0-21.618-18.204-39.822-39.822-39.822h-800.996c-21.618 0-39.822 18.204-39.822 39.822v480.142c0 21.618 18.204 39.822 39.822 39.822h319.716v-60.302c0-11.378 9.102-20.48 20.48-20.48h120.604c11.378 0 20.48 9.102 20.48 20.48v60.302h319.716c21.618 0 39.822-18.204 39.822-39.822v-480.142zM550.684 648.249h-79.644v79.644c0 21.618 18.204 39.822 39.822 39.822s39.822-18.204 39.822-39.822v-79.644zM991.004 168.107v480.142c0 44.373-36.409 79.644-79.644 79.644h-320.853c0 44.373-36.409 79.644-79.644 79.644-44.373 0-79.644-36.409-79.644-79.644h-320.853c-44.373 0-79.644-36.409-79.644-79.644v-480.142c0-44.373 36.409-79.644 79.644-79.644h800.996c44.373-1.138 79.644 35.271 79.644 79.644z" />
<glyph unicode="&#xe91c;" glyph-name="payment" d="M939.008 580.096l-289.792 289.792c-15.36 15.36-36.864 24.576-58.368 24.576-22.528 0-43.008-8.192-58.368-24.576l-459.776-458.752c-15.36-15.36-24.576-36.864-24.576-58.368 0-22.528 8.192-43.008 24.576-58.368l35.84-35.84c0 0 0 0 0 0s0 0 0 0l239.616-240.64h-32.768c-10.24 0-19.456-8.192-19.456-19.456 0-10.24 8.192-19.456 19.456-19.456h105.472c0 0 0 0 0 0s0 0 0 0h275.456c10.24 0 19.456 8.192 19.456 19.456 0 10.24-8.192 19.456-19.456 19.456h-202.752l445.44 445.44c31.744 31.744 31.744 84.992 0 116.736zM911.36 489.984l-458.752-458.752c-8.192-8.192-19.456-13.312-31.744-13.312v0c-12.288 0-23.552 5.12-31.744 13.312l-240.64 240.64 441.344 441.344c7.168 7.168 7.168 19.456 0 26.624s-19.456 7.168-26.624 0l-441.344-441.344-22.528 22.528c-8.192 8.192-13.312 19.456-13.312 31.744s5.12 23.552 13.312 31.744l458.752 458.752c8.192 8.192 19.456 13.312 31.744 13.312s23.552-5.12 31.744-13.312l103.424-103.424-440.32-440.32c-7.168-7.168-7.168-19.456 0-26.624 4.096-4.096 8.192-5.12 13.312-5.12s10.24 2.048 13.312 5.12l441.344 441.344 158.72-160.768c17.408-17.408 17.408-46.080 0-63.488zM518.144 344.576c-7.168 7.168-19.456 7.168-26.624 0l-150.528-150.528c-7.168-7.168-7.168-19.456 0-26.624 4.096-4.096 8.192-5.12 13.312-5.12s10.24 2.048 13.312 5.12l149.504 149.504c8.192 7.168 8.192 19.456 1.024 27.648zM456.704 202.24l-61.44-61.44c-7.168-7.168-7.168-19.456 0-26.624 4.096-4.096 8.192-5.12 13.312-5.12s10.24 2.048 13.312 5.12l61.44 61.44c7.168 7.168 7.168 19.456 0 26.624s-19.456 7.168-26.624 0zM513.024 258.56l-8.192-8.192c-7.168-7.168-7.168-19.456 0-26.624 4.096-4.096 8.192-5.12 13.312-5.12s10.24 2.048 13.312 5.12l8.192 8.192c7.168 7.168 7.168 19.456 0 26.624s-19.456 7.168-26.624 0zM775.168 601.6c-3.072 3.072-8.192 5.12-13.312 5.12s-10.24-2.048-13.312-5.12l-80.896-80.896c-3.072-3.072-5.12-8.192-5.12-13.312s2.048-10.24 5.12-13.312l54.272-54.272c4.096-4.096 8.192-5.12 13.312-5.12s10.24 2.048 13.312 5.12l80.896 80.896c7.168 7.168 7.168 19.456 0 26.624l-54.272 54.272zM735.232 480.768l-26.624 26.624 54.272 54.272 26.624-26.624-54.272-54.272zM620.544 751.104c5.12 0 10.24 2.048 13.312 5.12l8.192 8.192c7.168 7.168 7.168 19.456 0 26.624s-19.456 7.168-26.624 0l-8.192-8.192c-7.168-7.168-7.168-19.456 0-26.624 3.072-3.072 8.192-5.12 13.312-5.12zM239.616 254.464l-8.192-8.192c-7.168-7.168-7.168-19.456 0-26.624 4.096-4.096 8.192-5.12 13.312-5.12s10.24 2.048 13.312 5.12l8.192 8.192c7.168 7.168 7.168 19.456 0 26.624-7.168 8.192-19.456 8.192-26.624 0z" />
<glyph unicode="&#xe91d;" glyph-name="Additional-school-preferences" d="M330.752 860.672l-30.72-30.72c-2.048 1.024-5.12 2.048-8.192 2.048h-169.984c-9.216 0-17.408-7.168-17.408-17.408v-169.984c0-9.216 7.168-17.408 17.408-17.408h169.984c9.216 0 17.408 7.168 17.408 17.408v146.432l46.080 46.080-24.576 23.552zM274.432 662.016h-135.168v136.192h129.024l-60.416-60.416-21.504 21.504-23.552-23.552 33.792-33.792c6.144-6.144 17.408-6.144 23.552 0l56.32 56.32v-96.256zM330.752 555.52l-30.72-30.72c-2.048 1.024-5.12 2.048-8.192 2.048h-169.984c-9.216 0-17.408-7.168-17.408-17.408v-169.984c0-9.216 7.168-17.408 17.408-17.408h169.984c9.216 0 17.408 7.168 17.408 17.408v146.432l46.080 46.080-24.576 23.552zM274.432 356.864h-135.168v136.192h129.024l-60.416-60.416-21.504 21.504-23.552-23.552 33.792-33.792c6.144-6.144 17.408-6.144 23.552 0l56.32 56.32v-96.256zM330.752 267.776l-30.72-30.72c-2.048 1.024-5.12 2.048-8.192 2.048h-169.984c-9.216 0-17.408-7.168-17.408-17.408v-169.984c0-9.216 7.168-17.408 17.408-17.408h169.984c9.216 0 17.408 7.168 17.408 17.408v145.408l46.080 46.080-24.576 24.576zM274.432 69.12h-135.168v135.168h129.024l-60.416-60.416-21.504 21.504-23.552-23.552 33.792-33.792c6.144-6.144 17.408-6.144 23.552 0l56.32 56.32v-95.232zM427.008 696.832h491.52v-33.792h-491.52v33.792zM427.008 798.208h491.52v-33.792h-491.52v33.792zM427.008 390.656h491.52v-33.792h-491.52v33.792zM427.008 493.056h491.52v-33.792h-491.52v33.792zM427.008 102.912h491.52v-33.792h-491.52v33.792zM427.008 204.288h491.52v-33.792h-491.52v33.792z" />
<glyph unicode="&#xe91e;" glyph-name="malaysia" d="M559.839 139.772v0l-55.22 0.013c-9.937 0-19.241 3.888-26.186 10.899-6.827 6.708-10.714 15.999-10.714 25.989l1.252 541.165c0.053 20.295 16.605 36.795 36.901 36.795h89.102c15.657 0 29.653-9.911 34.819-24.671l92.305-261.654c8.158-24.17 15.327-46.034 21.706-66.211 6.774 20.454 14.286 42.436 22.707 66.211l96.535 262.194c5.285 14.431 19.202 24.131 34.595 24.131h89.116c20.348 0 36.901-16.553 36.901-36.888l0.343-541.073c0-9.911-3.875-19.175-10.886-26.147-6.84-6.866-16.118-10.728-26.015-10.728h-56.709c-9.911 0-19.175 3.861-26.107 10.846-6.906 6.879-10.741 16.157-10.741 26.041l0.079 250.425-94.137-259.796c-5.179-14.523-19.123-24.328-34.66-24.328h-52.992c-15.775 0-29.797 10.016-34.885 24.948l-80.378 235.467 0.026-221.616c0.25-1.674 0.343-3.374 0.343-5.1 0-20.098-16.197-36.519-36.229-36.888-0.277-0.026-0.58-0.026-0.87-0.026zM507.256 179.322l36.571-0.013c3.044 4.244 7.776 7.248 13.232 7.986l-0.079 340.121c0 9.779 7.156 18.081 16.816 19.544 9.607 1.371 18.951-4.375 21.837-13.719 9.014-29.204 19.044-60.241 30.746-94.888l87.323-255.842h49.184l94.466 260.731c13.891 37.942 26.068 72.721 37.244 106.367 3.058 9.199 12.362 14.892 21.916 13.271 9.594-1.542 16.619-9.818 16.619-19.505l-0.132-364.054h51.398l-0.343 535.775h-84.608l-95.797-260.191c-17.172-48.656-30.733-89.788-41.369-125.489-2.478-8.395-10.187-14.115-18.951-14.115-0.040 0-0.079 0-0.132 0-8.777 0.053-16.5 5.904-18.899 14.365-10.187 35.873-22.799 75.818-39.668 125.779l-91.58 259.664h-84.595l-1.199-535.788zM389.568 141.209h-74.25c-11.545 0-21.903 7.301-25.804 18.147l-80.642 222.736h-82.276v-213.459c0-15.103-12.309-27.425-27.412-27.425h-71.746c-15.129 0-27.438 12.322-27.438 27.425v559.721c0 15.077 12.27 27.373 27.346 27.425l137.746 0.448c83.95 0 139.235-16.184 179.352-52.452 33.962-29.942 52.768-74.724 52.768-125.924 0-68.109-20.203-114.182-71.364-160.493l89.432-239.131c3.071-8.421 1.924-17.752-3.018-25.066-5.43-7.617-13.811-11.953-22.694-11.953zM323.832 180.745h48.301l-88.127 235.599c-2.939 7.841-0.606 16.698 5.812 22.075 50.093 42.027 67.845 78.533 67.845 139.433 0 39.682-14.049 73.934-39.563 96.43-32.486 29.376-79.601 42.41-152.954 42.41l-125.621-0.409v-535.538h47.523v221.115c0 10.912 8.856 19.768 19.768 19.768h115.908c8.329 0 15.749-5.219 18.582-13.021l82.526-227.863zM172.604 451.875h-65.776c-10.912 0-19.768 8.856-19.768 19.768v194.151c0 10.912 8.843 19.755 19.742 19.768l63.259 0.066c0.105 0 0.171 0 0.25 0 90.157-0.988 139.802-42.212 139.802-116.053 0-70.388-55.272-117.701-137.509-117.701zM126.596 491.424h46.008c60.425 0 97.972 29.942 97.972 78.164 0 18.648 0 75.37-100.594 76.517l-43.385-0.040v-154.641z" />
<glyph unicode="&#xe91f;" glyph-name="ringgit" d="M1023.63 728.596c0 9.815-8.019 17.807-17.834 17.807h-92.693c-7.416 0-14.133-4.688-16.71-11.652l-100.301-272.446c-18.177-51.501-32.255-94.215-43.427-131.775-10.774 37.903-24.277 80.589-41.549 131.775l-96.024 272.199c-2.495 7.128-9.253 11.885-16.792 11.885h-92.693c-9.787 0-17.793-7.964-17.82-17.766l-1.302-562.863c0-4.812 1.851-9.28 5.209-12.557 3.358-3.4 7.855-5.25 12.611-5.25l57.45-0.014v8.526l0.206-8.513c9.829 0 17.82 7.978 17.82 17.807 0 1.206-0.11 2.385-0.343 3.591l-0.082 361.26c9.13-29.596 19.671-62.152 32.159-99.191l91.501-268.087c2.467-7.169 9.253-12.036 16.847-12.036h55.12c7.485 0 14.215 4.729 16.724 11.734l98.931 273.008c14.407 39.41 27.265 76.175 38.903 111.144l-0.11-381.425c0-4.77 1.851-9.239 5.223-12.584 3.345-3.372 7.8-5.223 12.557-5.223h58.958c4.784 0 9.239 1.851 12.584 5.223 3.4 3.358 5.25 7.814 5.25 12.584l-0.37 562.836zM294.118 422.291c56.71 47.58 77.93 91.679 77.93 160.781 0 47.279-17.121 88.389-48.115 115.723-37.642 34.037-90.898 49.253-172.707 49.253l-143.276-0.466c-4.4-0.014-7.951-3.591-7.951-7.964v-582.178c0-4.4 3.55-7.978 7.978-7.978h74.626c4.414 0 7.951 3.578 7.951 7.978v242.604h120.562l88.814-245.318c1.138-3.153 4.126-5.278 7.485-5.278h77.231c2.632 0 5.058 1.302 6.566 3.427 1.453 2.138 1.809 4.894 0.905 7.334l-97.998 262.083zM158.985 472.613h-68.417v201.932l65.798 0.069c57.107-0.631 125.085-18.519 125.085-100.151 0-61.892-48.060-101.85-122.467-101.85z" />
<glyph unicode="&#xe920;" glyph-name="dirham" horiz-adv-x="831" d="M67.623 581.313v-340.045h79.215v680.091h-79.215v-340.045zM598.943 603.822c16.133-14.684 48.688-47.819 57.576-58.542 30.334-36.806 49.654-73.226 58.928-111.288 5.989-24.634 4.83-47.819-3.188-65.98-8.791-19.997-25.697-35.84-51.973-48.495-21.929-10.626-36.226-14.684-58.059-16.423-24.248-2.029-42.119 1.063-89.358 15.167-1.063 0.29-1.739-0.29-2.125-1.835-0.386-1.256-0.676-19.031-0.676-39.511v-37.386l10.916-2.995c23.282-6.376 36.226-8.984 53.712-10.723 21.543-2.125 51.876-0.676 73.032 3.478 12.558 2.415 34.198 8.115 42.506 11.206 9.081 3.285 27.822 12.558 35.84 17.678 44.921 28.595 72.549 79.022 74.482 135.728 0.58 18.162-0.773 30.527-5.506 49.268-10.82 42.795-38.835 96.507-67.429 128.966-1.835 2.125-11.399 11.979-21.156 22.026l-17.678 18.065-99.019-0.097 9.177-8.308zM328.163 339.707c-14.684-3.478-30.527-20.48-35.84-38.448-0.966-3.188-1.546-8.791-1.546-14.008 0.097-18.258 5.217-31.976 15.94-41.926 16.229-15.263 40.38-19.031 59.411-9.371 12.752 6.472 24.151 20.866 26.952 34.101 1.352 6.569 1.352 24.634 0 31.3-1.642 7.922-7.245 17.582-14.297 24.924-7.632 7.728-12.945 11.013-21.349 12.945-6.859 1.642-23.282 1.932-29.271 0.483zM105.298 212.673c-1.835-0.29-7.535-1.352-12.558-2.318-32.749-6.666-53.422-26.18-59.508-56.417-3.091-14.974-0.58-43.665 4.637-54.195 5.12-10.24 13.525-19.224 23.571-25.214 1.063-0.676 1.642-1.352 1.352-1.642s-7.728-2.415-16.616-4.637l-16.229-4.154v-19.9c0-10.916 0.386-20.287 0.773-20.963 0.58-0.869 3.768-0.483 12.752 1.739 13.138 3.091 82.5 18.741 113.413 25.503 10.626 2.318 19.804 4.83 20.48 5.506 0.869 0.869 1.256 4.444 1.352 10.916 0.193 18.934 0 28.981-0.773 30.237-0.676 0.869-3.864 0.58-14.78-1.642-7.632-1.546-18.162-3.381-23.475-3.961-30.237-3.864-54.774 6.762-64.628 27.822-2.608 5.7-2.995 7.438-2.995 14.684 0 11.496 2.705 17.872 10.433 25.697 8.888 8.888 11.689 9.564 36.806 9.467 22.798-0.097 29.174-1.159 42.602-7.632 3.864-1.835 7.342-3.381 7.632-3.381 1.159 0 0 38.931-1.159 41.153-1.352 2.318-8.501 6.279-15.263 8.501-11.109 3.478-37.482 6.183-47.819 4.83z" />
</font>
</defs>
</svg>
