<?xml version="1.0" encoding="utf-8"?>
<!-- Generator: Adobe Illustrator 15.1.0, SVG Export Plug-In  -->
<!DOCTYPE svg PUBLIC "-//W3C//DTD SVG 1.1//EN" "http://www.w3.org/Graphics/SVG/1.1/DTD/svg11.dtd" [
	<!ENTITY ns_flows "http://ns.adobe.com/Flows/1.0/">
]>
<svg version="1.1"
	 xmlns="http://www.w3.org/2000/svg" xmlns:xlink="http://www.w3.org/1999/xlink" xmlns:a="http://ns.adobe.com/AdobeSVGViewerExtensions/3.0/"
	 x="0px" y="0px" width="511px" height="511px" viewBox="-0.88 0.141 511 511" enable-background="new -0.88 0.141 511 511"
	 xml:space="preserve">
<defs>
</defs>
<path fill="#00C0EF" d="M436.222,74.909C387.905,26.591,323.806,0,255.491,0C187.176,0,123.077,26.591,74.759,74.909
	c-93.393,93.393-99.877,242.884-16.105,343.735c-8.215,16.539-21.403,35.779-40.968,45.399c-9.404,4.647-14.7,14.701-13.079,25.077
	c1.621,10.377,9.62,18.484,19.997,20.106c4.864,0.756,11.782,1.513,20.213,1.513c22.592,0,55.884-5.297,89.934-29.834
	c37.941,20.429,79.449,30.374,120.632,30.374c66.153,0,131.656-25.618,180.947-74.908c48.317-48.317,74.909-112.417,74.909-180.731
	C511.24,187.326,484.541,123.227,436.222,74.909z M415.577,415.727c-72.963,72.963-185.92,87.447-274.772,35.237
	c-5.837-3.459-13.079-2.378-17.728,2.271c-0.431,0.216-0.864,0.541-1.188,0.865c-29.293,22.699-58.046,27.455-77.071,27.455h-0.108
	c21.944-15.997,35.779-39.778,43.887-58.263c1.297-3.134,1.513-6.377,0.757-9.403c-0.325-2.918-1.513-5.837-3.567-8.215
	C6.661,316.281,10.768,180.083,95.297,95.555c88.313-88.313,231.968-88.313,320.171,0
	C503.889,183.867,503.889,327.415,415.577,415.727z"/>
<circle fill="#00C0EF" cx="255.491" cy="255.641" r="17.943"/>
<circle fill="#00C0EF" cx="348.018" cy="255.641" r="17.943"/>
<circle fill="#00C0EF" cx="162.964" cy="255.641" r="17.943"/>
</svg>
