<svg xmlns="http://www.w3.org/2000/svg" viewBox="0 0 100 100"><g fill="#ed1c24"><path d="M85.4 66c0 2-1.6 3.6-3.6 3.6H30c-.5 0-.9.2-1.3.5L13.9 84.9V19.5c0-2 1.6-3.6 3.6-3.6h64.4c2 0 3.6 1.6 3.6 3.6L85.4 66z"/><path d="M63.2 43h6.4a1.11 1.11 0 0 0 1.1-1.1V27.1a1.11 1.11 0 0 0-1.1-1.1h-6.4a1.11 1.11 0 0 0-1.1 1.1v14.8c.1.6.5 1.1 1.1 1.1z"/></g><path d="M25.9 43.4c.2 3.6 3.4 4.9 5 5.1h8.3c-.1.2-.2.4-.3.7-.7 1.6-1.9 4.4-1.7 8.5 0 2.8 2.3 5.1 5.2 5.1 2.8 0 5.2-2.3 5.2-5.2-.1-2.7 0-2.8 2.4-5.2.3-.2.5-.5.8-.8 2.5-2.5 3.4-5.6 3.7-7.4h7c.6.4 1.3.6 2.1.6h5.6A3.8 3.8 0 0 0 73 41V28a3.8 3.8 0 0 0-3.8-3.8h-5.6c-.9 0-1.8.3-2.5.9h-7.4c-.8 0-1.6-.1-1.9-.4-.2-.2-.3-.3-.4-.5-1.4-2.1-3.6-2.1-4.1-2.1 0 0-13-.1-13.9 0-4.1.3-5.6 3.5-5.8 5.1 0 .5-1.9 12.8-1.7 16.2zM62.7 28c0-.5.4-.9.9-.9h5.6c.5 0 .9.4.9.9v13c0 .5-.4.9-.9.9h-5.6c-.5 0-.9-.4-.9-.9V28zm-2.8 13.3zM30.4 27.6s.1-.6.5-1.2c.6-.8 1.5-1.3 2.7-1.4h13.7c.1 0 1.2-.1 1.8.8.2.3.5.7.9 1.1 1.2 1 3.3 1.1 3.9 1.1h5.9v13.3h-6.5c-.7 0-1.4.6-1.4 1.3 0 0-.3 4.1-3.1 6.9l-.8.8c-2.7 2.7-3.4 3.5-3.3 7.3a2.26 2.26 0 0 1-2.3 2.3 2.26 2.26 0 0 1-2.3-2.3c-.2-3.5.8-5.7 1.5-7.2.5-1.2 1-2.3.4-3.3-.5-1-1.7-1.2-2.6-1.3h-8.2c-.5-.1-2.3-.5-2.4-2.4-.2-2.7 1.1-12.3 1.6-15.8z" fill="#fff"/></svg>