<svg xmlns="http://www.w3.org/2000/svg" viewBox="0 0 100 100"><g fill="#39b54a"><path d="M85.4 66c0 2-1.6 3.6-3.6 3.6H30c-.5 0-.9.2-1.3.5L13.9 84.9V19.5c0-2 1.6-3.6 3.6-3.6h64.4c2 0 3.6 1.6 3.6 3.6L85.4 66z"/><path d="M35.6 41.9h-6.4a1.11 1.11 0 0 0-1.1 1.1v14.8a1.11 1.11 0 0 0 1.1 1.1h6.4a1.11 1.11 0 0 0 1.1-1.1V43a1.11 1.11 0 0 0-1.1-1.1z"/></g><path d="M73 41.5c-.2-3.6-3.4-4.9-5-5.1h-8.3c.1-.2.2-.4.3-.7.7-1.6 1.9-4.4 1.7-8.5 0-2.8-2.3-5.1-5.2-5.1-2.8 0-5.2 2.3-5.2 5.2.1 2.7 0 2.8-2.4 5.2-.3.2-.5.5-.8.8-2.5 2.5-3.4 5.6-3.7 7.4h-7c-.6-.4-1.3-.6-2.1-.6h-5.6a3.8 3.8 0 0 0-3.8 3.8v13a3.8 3.8 0 0 0 3.8 3.8h5.6c.9 0 1.8-.3 2.5-.9h7.4c.8 0 1.6.1 1.9.4.2.2.3.3.4.5 1.4 2.1 3.6 2.1 4.1 2.1h13.9c4.1-.3 5.6-3.5 5.8-5.1 0-.5 1.9-12.8 1.7-16.2zM36.2 56.9c0 .5-.4.9-.9.9h-5.6c-.5 0-.9-.4-.9-.9v-13c0-.5.4-.9.9-.9h5.6c.5 0 .9.4.9.9v13zM39 43.6zm29.4 13.7s-.1.6-.5 1.2c-.6.8-1.5 1.3-2.7 1.4-.9.1-13.7.1-13.7.1-.1 0-1.2.1-1.8-.8-.2-.3-.5-.7-.9-1.1-1.2-1-3.3-1.1-3.9-1.1H39V43.7h6.5c.7 0 1.4-.6 1.4-1.3 0 0 .3-4.1 3.1-6.9l.8-.8c2.7-2.7 3.4-3.5 3.3-7.3a2.26 2.26 0 0 1 2.3-2.3 2.26 2.26 0 0 1 2.3 2.3c.2 3.5-.8 5.7-1.5 7.2-.5 1.2-1 2.3-.4 3.3.5 1 1.7 1.2 2.6 1.3h8.2c.5.1 2.3.5 2.4 2.4.3 2.6-1 12.2-1.6 15.7z" fill="#fff"/></svg>