<?xml version="1.0" encoding="utf-8"?>
<!-- Generator: Adobe Illustrator 15.1.0, SVG Export Plug-In  -->
<!DOCTYPE svg PUBLIC "-//W3C//DTD SVG 1.1//EN" "http://www.w3.org/Graphics/SVG/1.1/DTD/svg11.dtd" [
	<!ENTITY ns_flows "http://ns.adobe.com/Flows/1.0/">
]>
<svg version="1.1"
	 xmlns="http://www.w3.org/2000/svg" xmlns:xlink="http://www.w3.org/1999/xlink" xmlns:a="http://ns.adobe.com/AdobeSVGViewerExtensions/3.0/"
	 x="0px" y="0px" width="511px" height="511px" viewBox="-0.984 0 511 511" enable-background="new -0.984 0 511 511"
	 xml:space="preserve">
<defs>
</defs>
<path fill="#DD4B39" d="M496.972,204.624c0.234-0.951,0.308-1.949,0.172-2.955c-1.248-9.076-3.061-18.144-5.384-26.959
	c-0.02-0.094-0.043-0.187-0.066-0.281c-0.004-0.02-0.012-0.039-0.016-0.059c-0.004-0.016-0.008-0.031-0.012-0.047
	c-0.004-0.015-0.008-0.027-0.012-0.042c0-0.004,0-0.008,0-0.008c-12.063-48.881-40.538-93.135-80.188-124.62
	C370.555,17.169,321.26,0,268.913,0C207.642,0,150.035,23.86,106.71,67.186c-42.912,42.912-66.718,99.84-67.166,160.468
	l-23.161,15.337C6.121,249.782,0,261.189,0,273.506c0,7.185,2.102,14.163,6.082,20.183c5.423,8.184,13.595,13.462,22.495,15.454
	c-2.721,5.174-4.206,11.002-4.206,17.053c0,7.189,2.104,14.168,6.085,20.168c5.412,8.176,13.591,13.458,22.499,15.454
	c-2.725,5.178-4.21,11.01-4.21,17.064c0,7.181,2.102,14.156,6.082,20.172c5.415,8.171,13.595,13.45,22.499,15.442
	c-2.722,5.174-4.211,11.006-4.211,17.057c0,7.192,2.113,14.171,6.098,20.179c5.396,8.145,13.638,13.7,23.213,15.646
	c2.448,0.495,4.912,0.741,7.356,0.741c7.104,0,14.059-2.078,20.117-6.09l39.274-26.008c3.949,1.914,7.977,3.723,12.012,5.392
	c14.145,5.863,28.916,10.277,43.957,13.182c7.322,11.855,16.078,22.791,26.105,32.511l15.061,14.601
	c6.199,5.996,14.348,9.294,22.951,9.294c6.476,0,12.765-1.895,18.191-5.485c9.239-6.121,14.76-16.397,14.76-27.489
	c0-6.491-1.898-12.78-5.481-18.172c-1.161-1.762-2.253-3.575-3.298-5.407c71.092-13.957,131.446-60.697,162.818-126.756
	c1.868-3.935,0.195-8.641-3.738-10.508s-8.64-0.195-10.507,3.739c-29.782,62.71-87.583,106.737-155.438,118.784
	c-6.44-17.603-7.7-37.007-3.462-55.291l19.224-83.064c3.021,3.232,6.947,5.458,11.368,6.358c1.446,0.292,2.897,0.44,4.34,0.44
	c4.175,0,8.261-1.224,11.82-3.582l132.328-87.642c0.241,4.148,0.366,8.312,0.366,12.472c0,19.716-2.687,39.245-7.977,58.036
	c-1.182,4.191,1.259,8.545,5.45,9.727c0.718,0.203,1.435,0.297,2.145,0.297c3.442,0,6.604-2.27,7.587-5.747
	c5.684-20.183,8.564-41.146,8.564-62.312C498.32,221.104,497.853,212.784,496.972,204.624z M402.11,251.045L288.543,81.673
	l66.889-44.292c59.267,25.945,104.305,78.265,120.924,140.745c0.004,0.02,0.012,0.043,0.016,0.063
	c0.012,0.051,0.02,0.098,0.031,0.144c1.688,6.858,3.018,13.848,4.004,20.858L402.11,251.045z M184.671,425.759l21.045-13.938
	l4.745,12.784c1.458,3.926,3.072,7.801,4.822,11.617c-9.56-2.472-18.951-5.602-28.063-9.38
	C186.371,426.492,185.521,426.122,184.671,425.759z M287.735,380.858c-5.454,23.548-3.099,48.706,6.636,70.831
	c0.004,0.004,0.004,0.008,0.008,0.016c0.016,0.038,0.035,0.077,0.055,0.116c2.554,5.782,5.626,11.411,9.146,16.745
	c1.871,2.814,2.857,6.086,2.857,9.462c0,5.785-2.877,11.146-7.696,14.339c-2.83,1.872-6.112,2.866-9.485,2.866
	c-4.487,0-8.74-1.728-11.977-4.854l-15.053-14.593c-9.879-9.578-18.417-20.44-25.38-32.276c-0.063-0.105-0.129-0.211-0.191-0.312
	c-4.476-7.649-8.312-15.751-11.411-24.082l-8.198-22.102c-1.517-4.082-6.051-6.164-10.137-4.651
	c-0.086,0.031-0.164,0.074-0.246,0.105c-0.269,0.074-0.631,0.254-1.106,0.554c-0.055,0.03-0.105,0.065-0.16,0.097
	c-0.035,0.023-0.063,0.039-0.102,0.063l-84.105,55.7c-4.632,3.064-10.18,4.148-15.626,3.041s-10.132-4.265-13.204-8.904
	c-2.273-3.419-3.47-7.384-3.47-11.462c0-7.006,3.485-13.501,9.325-17.369l7.182-4.748c0-0.004,0.004-0.004,0.008-0.008
	c0.039-0.027,0.082-0.055,0.12-0.082l16.289-10.787c3.63-2.406,4.624-7.299,2.218-10.928c-2.405-3.63-7.298-4.624-10.928-2.223
	l-16.397,10.861c-9.556,6.234-22.429,3.583-28.726-5.926c-2.265-3.423-3.466-7.384-3.466-11.458c0-7.018,3.489-13.513,9.33-17.376
	l23.591-15.626c3.629-2.401,4.631-7.29,2.229-10.928c-2.401-3.63-7.294-4.628-10.928-2.23l-16.39,10.854
	c-9.556,6.245-22.44,3.594-28.741-5.93c-2.265-3.416-3.462-7.377-3.462-11.455c0-7.014,3.481-13.505,9.321-17.372l23.595-15.63
	c3.634-2.401,4.632-7.29,2.23-10.924c-2.397-3.633-7.295-4.631-10.928-2.23l-16.305,10.788c-9.56,6.331-22.491,3.708-28.822-5.853
	c-2.27-3.422-3.466-7.391-3.466-11.473c0-7.01,3.485-13.502,9.317-17.365l57.264-37.918c3.633-2.405,4.627-7.298,2.222-10.932
	c-2.405-3.63-7.302-4.624-10.928-2.218l-17.98,11.902C62.121,104.944,155.295,15.77,268.913,15.77
	c24.951,0,49.15,4.199,71.945,12.343l-121.021,80.141c-9.871,6.557-12.585,19.926-6.047,29.805l0.702,1.061l-10.348,6.862
	c-5.801,3.832-12.53,5.863-19.458,5.863c-1.875,0-3.746-0.152-5.583-0.448c-12.662-2.031-25.528,0.749-36.233,7.836l-41.08,27.205
	c-3.63,2.405-4.624,7.294-2.219,10.928c1.517,2.292,4.023,3.532,6.581,3.532c1.497,0,3.006-0.425,4.347-1.31l41.08-27.205
	c7.396-4.893,16.285-6.815,25.014-5.415c2.655,0.429,5.377,0.647,8.094,0.647c10.031,0,19.767-2.932,28.164-8.483l10.351-6.857
	l87.029,131.403L287.735,380.858z M341.143,291.424c-1.271,0.842-2.799,1.139-4.296,0.83c-1.505-0.305-2.795-1.178-3.646-2.46
	l-101.185-152.78c-0.008-0.011-0.012-0.023-0.02-0.031c-0.008-0.012-0.016-0.02-0.023-0.031l-5.033-7.599
	c-1.743-2.635-1.014-6.21,1.614-7.957l46.838-31.014L388.96,259.755L341.143,291.424z"/>
</svg>
