<svg xmlns="http://www.w3.org/2000/svg" viewBox="0 0 100 100"><path d="M77 19.2H22.3c-3.3 0-6.1 2.7-6.1 6.1v59.2c0 .6.3 1.2.9 1.4.2.1.4.1.6.1.4 0 .8-.2 1.1-.4l14.8-14.8H77c3.3 0 6.1-2.7 6.1-6.1V25.3a6.06 6.06 0 0 0-6.1-6.1z" fill="#086bc4"/><path d="M80 64.8a3.12 3.12 0 0 1-3.1 3.1H33c-.4 0-.8.2-1.1.4L19.3 80.9V25.3a3.12 3.12 0 0 1 3.1-3.1h54.7a3.12 3.12 0 0 1 3.1 3.1L80 64.8z" fill="#fff"/><path d="M69.6 36.6H33.3c-.9 0-1.6-.8-1.6-1.6 0-.9.8-1.6 1.6-1.6h36.2c.9 0 1.6.8 1.6 1.6s-.7 1.6-1.5 1.6zm-3.3 9.9h-33c-.9 0-1.6-.8-1.6-1.6 0-.9.8-1.6 1.6-1.6h33c.9 0 1.6.8 1.6 1.6s-.7 1.6-1.6 1.6zm-13.2 9.8H33.3c-.9 0-1.6-.8-1.6-1.6s.8-1.6 1.6-1.6h19.8c.9 0 1.6.8 1.6 1.6s-.8 1.6-1.6 1.6z" fill="#086bc4"/></svg>