<?xml version="1.0" encoding="utf-8"?>
<!-- Generator: Adobe Illustrator 15.1.0, SVG Export Plug-In  -->
<!DOCTYPE svg PUBLIC "-//W3C//DTD SVG 1.1//EN" "http://www.w3.org/Graphics/SVG/1.1/DTD/svg11.dtd" [
	<!ENTITY ns_flows "http://ns.adobe.com/Flows/1.0/">
]>
<svg version="1.1"
	 xmlns="http://www.w3.org/2000/svg" xmlns:xlink="http://www.w3.org/1999/xlink" xmlns:a="http://ns.adobe.com/AdobeSVGViewerExtensions/3.0/"
	 x="0px" y="0px" width="511px" height="511px" viewBox="-0.99 0 511 511" enable-background="new -0.99 0 511 511"
	 xml:space="preserve">
<defs>
</defs>
<path fill="#9D1CB2" d="M496.957,218.911c-5.299-8-13.329-13.513-22.667-15.602c6.023-11.521,5.778-25.895-1.895-37.478
	c-5.458-8.246-13.692-13.571-22.655-15.587c1.599-3.049,2.78-6.339,3.485-9.809c1.958-9.649,0.047-19.481-5.392-27.688
	c-5.298-8.004-13.329-13.517-22.666-15.602c6.023-11.521,5.777-25.895-1.896-37.481c-11.216-16.939-34.132-21.598-51.075-10.378
	l-36.687,24.296c-19.556-9.918-40.354-16.955-61.94-20.963c-6.823-10.358-14.757-19.988-23.638-28.596L234.755,9.313
	c-11.114-10.776-28.546-12.394-41.45-3.844c-15.267,10.109-19.462,30.756-9.353,46.023c0.397,0.604,0.787,1.212,1.174,1.82
	c-49.751,10.066-95.092,36.468-128.651,75.154C20.058,170.451,0,224.221,0,279.871c0,10.666,0.729,21.352,2.171,31.754
	c11.115,80.861,64.979,150.545,140.565,181.862C170.767,505.105,200.51,511,231.126,511c48.486,0,94.899-14.85,134.225-42.939
	c38.472-27.485,67.256-65.415,83.244-109.688c1.493-4.125-0.647-8.682-4.772-10.172c-4.128-1.488-8.682,0.647-10.171,4.776
	c-14.89,41.228-41.7,76.55-77.54,102.151c-36.612,26.156-79.832,39.98-124.985,39.98c-23.346,0-46.141-3.684-67.957-10.951
	l64.646-42.811c0.004-0.004,0.008-0.004,0.012-0.008c0.004,0,0.004-0.004,0.008-0.008l53.728-35.579h0.004
	c4.822-3.196,8.116-8.078,9.271-13.75c1.154-5.673,0.031-11.458-3.166-16.28l-0.709-1.076l10.437-6.912
	c7.446-4.933,16.401-6.866,25.22-5.451c12.768,2.051,25.735-0.756,36.511-7.895l86.564-57.325
	c-0.592,7.509-1.566,14.975-2.928,22.315c-0.803,4.316,2.047,8.465,6.363,9.264c0.487,0.094,0.979,0.137,1.458,0.137
	c3.754,0,7.091-2.675,7.801-6.5c2.203-11.848,3.47-23.984,3.797-36.136l24.395-16.156c8.206-5.435,13.809-13.743,15.766-23.388
	C504.306,236.95,502.392,227.118,496.957,218.911z M320.084,83.796l-24.276,16.078l-4.779-12.877
	c-1.996-5.373-4.285-10.64-6.819-15.793C296.525,74.327,308.517,78.537,320.084,83.796z M68.479,138.88
	c32.254-37.182,76.188-62.175,124.249-70.842c7.712,18.683,9.56,39.556,4.952,59.45l-19.373,83.692
	c-3.045-3.251-6.998-5.493-11.45-6.397c-5.676-1.158-11.458-0.031-16.28,3.166l-54.873,36.335c-0.004,0-0.004,0-0.008,0.004
	c0,0-0.004,0-0.004,0.004l-79.143,52.41c-0.433-5.583-0.658-11.209-0.658-16.83C15.891,228.049,34.568,177.976,68.479,138.88z
	 M275.266,388.833c-0.308,1.513-1.188,2.819-2.479,3.673h0.004l-47.188,31.247l-87.583-130.615
	c-2.444-3.646-7.38-4.616-11.025-2.172c-3.642,2.444-4.616,7.376-2.171,11.021l87.527,130.542l-67.364,44.611
	c-66.939-29.278-114.842-91.111-126.358-163.06l79.236-52.3l9.118,13.605c1.536,2.285,4.047,3.521,6.608,3.521
	c1.521,0,3.061-0.434,4.417-1.346c3.646-2.444,4.62-7.38,2.176-11.025l-9.057-13.509l48.226-31.832
	c1.283-0.854,2.823-1.15,4.336-0.842s2.818,1.189,3.672,2.476l107.064,161.668C275.273,385.78,275.574,387.32,275.266,388.833z
	 M486.773,243.434c-1.115,5.489-4.3,10.214-8.971,13.306l-27.887,18.467c-0.008,0.004-0.016,0.012-0.027,0.016l-99.535,65.918
	c-7.447,4.933-16.402,6.87-25.221,5.451c-12.764-2.047-25.73,0.756-36.511,7.895l-10.437,6.912l-87.688-132.409l22.667-97.914
	c5.836-25.224,2.76-51.793-8.359-74.939c-0.102-0.242-0.21-0.476-0.335-0.706c-2.137-4.374-4.562-8.62-7.271-12.713
	c-5.271-7.961-3.084-18.725,4.881-24c6.729-4.456,15.82-3.614,21.613,2.004l15.178,14.713
	c16.417,15.918,29.302,35.661,37.255,57.095l8.266,22.265c0.016,0.043,0.031,0.078,0.047,0.117c0.02,0.05,0.043,0.105,0.063,0.156
	c0.059,0.136,0.112,0.261,0.171,0.367c0.16,0.335,0.336,0.667,0.546,0.982c2.425,3.661,7.353,4.663,11.01,2.238l84.744-56.117
	c9.638-6.382,22.671-3.735,29.053,5.902c6.382,9.637,3.734,22.67-5.902,29.052l-7.356,4.874c0,0-0.004,0-0.008,0.004l-16.41,10.869
	c-0.023,0.016-0.038,0.031-0.062,0.043c-0.094,0.066-0.184,0.129-0.258,0.191c-3.392,2.491-4.269,7.228-1.918,10.776
	c2.421,3.661,7.353,4.663,11.014,2.238l16.421-10.877c4.667-3.084,10.253-4.171,15.738-3.057c5.485,1.115,10.215,4.3,13.303,8.971
	c3.092,4.667,4.183,10.261,3.068,15.747c-1.115,5.489-4.301,10.214-8.971,13.306l-23.774,15.747
	c-3.66,2.421-4.662,7.349-2.237,11.01c1.528,2.308,4.055,3.559,6.631,3.559c1.505,0,3.029-0.429,4.379-1.321l3.68-2.437
	l12.733-8.433c9.641-6.382,22.67-3.735,29.053,5.902c6.382,9.642,3.734,22.671-5.903,29.057l-11.875,7.863
	c-0.063,0.039-0.125,0.082-0.187,0.125l-11.712,7.754c-3.661,2.421-4.663,7.353-2.237,11.014c1.527,2.308,4.054,3.56,6.631,3.56
	c1.505,0,3.029-0.429,4.378-1.322l3.681-2.437c0,0,0-0.004,0.004-0.004l12.733-8.429c4.666-3.092,10.257-4.184,15.746-3.064
	c5.489,1.111,10.215,4.3,13.306,8.967C486.801,232.354,487.889,237.948,486.773,243.434z"/>
</svg>
