<svg xmlns="http://www.w3.org/2000/svg" viewBox="0 0 100 100" fill="#ed1c24"><path d="M93.3 60.7l-1-8.2c-.1-.9-.9-1.5-1.8-1.4-3.2.3-6.2-2-6.6-5.3-.4-3.2 1.9-6.2 5.2-6.7.9-.1 1.5-.9 1.4-1.8l-1-8.2c-.2-1.4-.9-2.7-2-3.6s-2.5-1.3-4-1.1l-57.4 6.9c-1.4.2-2.7.9-3.6 2H15c-3 0-5.4 2.4-5.4 5.4V47a1.58 1.58 0 0 0 1.6 1.6c3.3.1 5.9 2.8 5.9 6s-2.7 6-5.9 6a1.58 1.58 0 0 0-1.6 1.6v8.3c0 3 2.4 5.4 5.4 5.4h57.8c3 0 5.4-2.4 5.4-5.4V68l10.4-1.2c1.4-.2 2.7-.9 3.6-2 .9-1.3 1.3-2.7 1.1-4.1zM74.9 65v5.4c0 1.2-.9 2.1-2.1 2.1H62.7v-3.1a1.58 1.58 0 1 0-3.2 0v3.1H15c-1.2 0-2.1-.9-2.1-2.1v-6.8c1.8-.4 3.5-1.2 4.9-2.6a9.33 9.33 0 0 0 2.7-6.5c0-2.5-.9-4.8-2.7-6.5a8.42 8.42 0 0 0-4.9-2.6v-6.8c0-1.2.9-2.1 2.1-2.1h44.4v19.9a1.58 1.58 0 1 0 3.2 0v-20h10.1c1.2 0 2.1.9 2.1 2.1v6.8c-1.8.4-3.5 1.2-4.9 2.6a9.33 9.33 0 0 0-2.7 6.5c0 2.5.9 4.8 2.7 6.5a8.42 8.42 0 0 0 4.9 2.6l.1 1.5zm14.7-2.4c-.3.4-.8.7-1.4.8l-10 1.2v-2.5a1.58 1.58 0 0 0-1.6-1.6c-3.3-.1-5.9-2.8-5.9-6 0-3.3 2.7-6 5.9-6a1.58 1.58 0 0 0 1.6-1.6v-8.3c0-3-2.4-5.4-5.4-5.4H37.2L84 27.6c.6-.1 1.1.1 1.5.4s.7.8.8 1.4l.8 6.8c-1.8.6-3.3 1.7-4.5 3.2-1.5 1.9-2.2 4.4-1.9 6.8s1.5 4.6 3.4 6.2c1.5 1.2 3.3 1.9 5.1 2L90 61c.1.6 0 1.2-.4 1.6zm-27-.4c0-.1-.1-.2-.2-.3s-.1-.2-.2-.2c-.1-.1-.2-.1-.2-.2-.1-.1-.2-.1-.3-.2-.1 0-.2-.1-.3-.1h-.6c-.1 0-.2.1-.3.1s-.2.1-.3.2-.2.1-.2.2c-.1.1-.1.2-.2.2-.1.1-.1.2-.2.3 0 .1-.1.2-.1.3v.6c0 .1.1.2.1.3s.1.2.2.3.1.2.2.2c.1.1.2.1.2.2.1.1.2.1.3.2.1 0 .2.1.3.1h.6c.1 0 .2-.1.3-.1s.2-.1.3-.2.2-.1.2-.2c.1-.1.1-.2.2-.2.1-.1.1-.2.2-.3 0-.1.1-.2.1-.3v-.6c-.1-.1-.1-.2-.1-.3zM48 48.3l-6.1 6.1 6.1 6.1c.9.9.9 2.4 0 3.3-.5.5-1.1.7-1.6.7-.6 0-1.2-.2-1.6-.7l-6.1-6.1-6.1 6.1c-.5.5-1.1.7-1.6.7-.6 0-1.2-.2-1.6-.7-.9-.9-.9-2.4 0-3.3l6.1-6.1-6.1-6.1c-.9-.9-.9-2.4 0-3.3s2.4-.9 3.3 0l6.1 6.1 6.1-6.1c.9-.9 2.4-.9 3.3 0 .7.9.7 2.4-.2 3.3z"/></svg>