<?xml version="1.0" encoding="utf-8"?>
<!-- Generator: Adobe Illustrator 15.1.0, SVG Export Plug-In . SVG Version: 6.00 Build 0)  -->
<!DOCTYPE svg PUBLIC "-//W3C//DTD SVG 1.1//EN" "http://www.w3.org/Graphics/SVG/1.1/DTD/svg11.dtd">
<svg version="1.1" id="Layer_1" xmlns="http://www.w3.org/2000/svg" xmlns:xlink="http://www.w3.org/1999/xlink" x="0px" y="0px"
	 width="492.804px" height="97.846px" viewBox="0 0 492.804 97.846" enable-background="new 0 0 492.804 97.846"
	 xml:space="preserve">
<g>
	<defs>
		<rect id="SVGID_1_" width="492.804" height="97.846"/>
	</defs>
	<clipPath id="SVGID_2_">
		<use xlink:href="#SVGID_1_"  overflow="visible"/>
	</clipPath>
	<path clip-path="url(#SVGID_2_)" d="M11.372,23.633c-0.011-0.019-0.004-0.034,0.04-0.044c0.024-0.006,0.042-0.009,0.054-0.01
		L11.372,23.633z M46.119,4.466L46.04,4.52c-0.971,0.687-1.604,1.451-1.996,2.447c-0.366,0.929-0.495,2.019-0.482,3.419
		c-0.059,7.63-0.584,15.009-1.49,22.182c-0.903,7.158-2.19,14.132-3.773,20.964c-0.171,0.686-0.306,1.266-0.418,1.75l-0.023,0.103
		c-3.811-6.352-7.694-13.062-11.669-20.218c-4.154-7.485-8.388-15.427-12.72-23.935l-0.049-0.088
		c-0.345-0.542-0.758-0.905-1.218-1.11c-0.709-0.317-1.451-0.243-2.173,0.139c-0.574,0.304-1.132,0.814-1.629,1.467
		c-0.997,1.312-1.832,3.291-2.114,5.365H6.285c-0.689,4.805-1.619,9.623-2.548,14.441C1.87,41.116,0.004,50.789,0.018,60.773
		c-0.115,2.778,0.325,4.326,1.119,5.093c0.989,0.955,2.229,0.769,3.575,0.091l0.136-0.078c0.93-0.655,1.57-1.626,1.916-2.917
		c0.311-1.155,0.381-2.582,0.208-4.276c-0.208-7.64,1.115-14.426,2.433-21.184c0.837-4.295,1.671-8.577,2.124-13.14L33.39,62.506
		l0.046,0.074c0.734,1.068,1.521,1.799,2.325,2.234c0.77,0.417,1.551,0.569,2.317,0.496c0.754-0.073,1.468-0.359,2.122-0.818
		c0.906-0.638,1.71-1.615,2.349-2.817l0.078-0.188c2.298-7.464,4.156-15.61,5.542-24.479c1.382-8.84,2.292-18.389,2.7-28.693h0.001
		c0.12-1.801,0.085-3.185-0.552-4.008C49.522,3.279,48.258,3.223,46.119,4.466"/>
	<path clip-path="url(#SVGID_2_)" d="M344.771,28.114l-0.036-0.222l-0.004-0.008h-0.001c-0.35-1.242-1.523-2.069-3.909-2.127
		c-1.93-0.047-4.826,0.399-9.002,1.57h-0.005l-0.492,0.139l-0.063,0.022c-3.246,1.145-6.422,2.345-9.529,3.647v0.001
		c-2.502,1.048-4.976,2.168-7.426,3.385c0.478-3.185,1.031-6.432,1.669-9.725c0.704-3.637,1.507-7.318,2.416-11.013
		c2.683-1.347,5.412-2.538,8.194-3.562c2.935-1.081,5.928-1.978,8.981-2.674l0.052-0.013c2.966-0.826,5.375-0.784,6.84-0.14
		c0.531,0.234,0.908,0.536,1.104,0.891c0.177,0.318,0.213,0.716,0.09,1.182c-0.304,1.13-1.44,2.529-3.63,4.078l-0.189,0.169
		c-0.754,0.866-1,1.714-0.896,2.416c0.069,0.455,0.277,0.842,0.593,1.142c0.283,0.271,0.65,0.457,1.07,0.544
		c0.81,0.167,1.868-0.055,2.864-0.821c0.831-0.538,1.482-1.035,2.019-1.489c0.547-0.464,0.988-0.896,1.384-1.289l0.07-0.079
		c2.104-2.562,3.124-4.901,3.276-6.908c0.124-1.645-0.324-3.07-1.238-4.226c-0.881-1.114-2.183-1.944-3.805-2.446
		c-2.778-0.859-6.563-0.762-10.776,0.546h-0.005c-2.746,0.866-5.53,1.858-8.354,3.005c-2.495,1.011-5.018,2.144-7.565,3.417
		c-0.156-0.227-0.336-0.418-0.537-0.571c-0.472-0.364-1.027-0.518-1.623-0.454c-0.517,0.055-1.046,0.28-1.552,0.675
		c-0.824,0.649-1.637,1.823-2.21,3.544c-2.625,1.521-5.277,3.202-7.957,5.06c-2.796,1.943-5.634,4.088-8.514,6.461v-0.002
		c-0.853,0.679-1.616,1.378-2.094,2.14c-0.602,0.957-0.767,1.966-0.196,3.051l0.289,0.342c0.796,0.623,1.658,0.771,2.577,0.498
		c0.756-0.221,1.514-0.741,2.276-1.522c2.25-1.876,4.522-3.639,6.818-5.283c1.63-1.166,3.284-2.28,4.96-3.336
		c-0.654,2.966-1.222,5.952-1.72,8.957c-0.611,3.68-1.119,7.401-1.551,11.152c-0.529,0.313-1.062,0.633-1.594,0.961
		c-0.691,0.427-1.373,0.858-2.042,1.292v0.001c-1.048,0.671-2.005,1.563-2.557,2.496c-0.584,0.989-0.752,2.037-0.24,3.014
		l0.079,0.126c0.725,1.015,1.678,1.212,2.782,0.955c0.815-0.191,1.688-0.66,2.607-1.185l0.025-0.013l0.176-0.104
		c-0.277,3.122-0.511,6.233-0.713,9.334c-0.246,3.767-0.451,7.596-0.636,11.451c-0.105,1.171,0.08,2.182,0.444,2.967
		c0.307,0.658,0.735,1.166,1.235,1.499c0.559,0.368,1.198,0.521,1.853,0.424c0.511-0.076,1.019-0.306,1.485-0.708l0.071-0.066
		c1.29-1.349,1.306-3.203,1.325-5.449c0.009-0.927,0.017-1.931,0.131-2.986l0.004-0.093c0.071-3.198,0.231-6.6,0.489-10.17
		c0.229-3.191,0.54-6.5,0.937-9.902c3.367-1.739,6.675-3.233,9.933-4.516c3.432-1.348,6.806-2.461,10.133-3.381l0.104-0.034
		c2.318-0.903,4.401-1.103,6.06-1.259C343.021,32.558,345.052,32.365,344.771,28.114"/>
	<path clip-path="url(#SVGID_2_)" d="M492.416,54.499c-0.515-1.731-1.545-3.374-3.108-4.794h0.002
		c-2.146-1.989-5.019-4.348-8.308-6.916c-3.288-2.569-6.962-5.324-10.734-8.127c-1.711-1.264-2.961-2.629-3.553-3.889
		c-0.311-0.658-0.428-1.266-0.319-1.783c0.101-0.481,0.418-0.924,0.985-1.303c0.896-0.595,2.346-1.015,4.452-1.168
		c2.824-0.206,4.626,0.218,5.65,0.952c0.487,0.349,0.783,0.773,0.916,1.218c0.138,0.458,0.113,0.958-0.035,1.447
		c-0.277,0.907-0.963,1.761-1.888,2.3v-0.001c-0.969,0.508-1.664,1.088-2.002,1.761c-0.437,0.872-0.326,1.756,0.461,2.657
		l0.435,0.295c0.68,0.247,1.358,0.288,2.028,0.188c0.62-0.092,1.227-0.305,1.811-0.578l0.099-0.054
		c2.588-1.561,4.307-3.645,5.11-5.815c0.576-1.557,0.688-3.157,0.317-4.654c-0.371-1.503-1.224-2.891-2.569-4.013
		c-1.813-1.509-4.527-2.526-8.17-2.644c-3.533-0.117-6.811,1.085-9.261,3.058c-1.292,1.044-2.359,2.301-3.115,3.697
		c-0.769,1.414-1.22,2.973-1.272,4.595c-0.075,2.323,0.668,4.749,2.475,7.04l0.063,0.072c3.266,3.475,6.447,5.709,10.14,8.302
		c2.967,2.083,6.268,4.4,10.128,7.72l0.052,0.042c1.531,1.163,2.493,2.369,2.898,3.516c0.284,0.802,0.283,1.571,0.002,2.259
		c-0.297,0.727-0.914,1.4-1.844,1.975c-1.726,1.064-4.441,1.732-8.123,1.739c-2.134-0.218-4.119-0.669-5.904-1.396
		c-1.764-0.719-3.333-1.709-4.654-3.022l-0.153-0.125c-0.679-0.464-1.387-0.942-2.219-1.121c-0.985-0.213-1.976-0.004-2.939,1.071
		l-0.027,0.027l-0.066,0.08l-0.009,0.012c-0.783,0.976-1.027,2.026-0.883,3.007c0.14,0.962,0.658,1.832,1.404,2.479l0.014,0.008
		l0.03,0.027h-0.001c1.905,1.777,4.149,3.068,6.671,3.963c2.481,0.882,5.227,1.377,8.17,1.574h0.134
		c4.774-0.304,8.598-1.621,11.398-3.496c2.333-1.561,3.967-3.514,4.87-5.605C492.898,58.931,493.057,56.654,492.416,54.499"/>
	<path clip-path="url(#SVGID_2_)" d="M435.128,34.815l-0.013-0.002l-0.055-0.006c-0.083-0.068-0.109-0.093,0.038-0.044
		c0.067,0.023,0.106,0.038,0.125,0.047l0.003,0.002C435.25,34.828,435.205,34.826,435.128,34.815 M370.724,42.166
		c-0.033,0.383-0.072,0.761-0.117,1.128l-0.028,0.223c-1.1-0.026-2.181-0.122-3.229-0.293c-1.269-0.207-2.489-0.521-3.638-0.951
		l0.001-0.002c-1.475-0.605-2.664-1.413-3.592-2.336c-0.808-0.805-1.423-1.703-1.856-2.639c0.188-0.14,0.382-0.276,0.578-0.408
		c0.41-0.278,0.837-0.538,1.275-0.781l0.063-0.034c0.879-0.562,1.719-0.966,2.425-1.306c1.987-0.959,3.206-1.545,2.691-3.536
		l-0.032-0.105c-0.414-1.124-1.341-1.656-2.967-1.382c-1.08,0.182-2.576,0.783-4.591,1.91c0.214-0.779,0.557-1.484,1.015-2.073
		c0.785-1.008,1.93-1.66,3.359-1.693l0.065-0.003c2.622,0.159,4.75,1.69,6.227,4.068c1.624,2.616,2.471,6.235,2.354,10.213H370.724z
		 M363.387,58.098c-2.515,2.032-5.535,3.022-8.817,2.553c-0.505-0.123-0.966-0.354-1.378-0.673c-1.136-0.88-1.919-2.446-2.298-4.386
		c-0.404-2.057-0.351-4.494,0.205-6.985c0.481-2.152,1.339-4.34,2.599-6.35c0.578,0.948,1.273,1.843,2.078,2.662
		c1.162,1.184,2.557,2.202,4.181,2.98l0.083,0.038c1.803,0.675,3.585,1.148,5.351,1.438c1.237,0.205,2.465,0.317,3.679,0.342
		C367.763,53.237,365.799,56.147,363.387,58.098 M456.304,55.052c-0.389-4.327-0.349-9.836,0.131-16.771v-0.112
		c-0.06-1.538-0.413-2.771-0.98-3.627c-0.462-0.694-1.062-1.156-1.769-1.358c-0.693-0.201-1.455-0.133-2.25,0.224
		c-1.022,0.458-2.118,1.423-3.191,2.962l-0.023,0.041c-1.74,2.749-2.908,5.791-4.121,8.948c-1.493,3.891-3.058,7.963-5.822,11.717
		l-0.024,0.038c-0.076,0.113-0.152,0.227-0.229,0.336c-0.11-3.735,0.488-7.541,1.155-11.788c0.683-4.346,1.437-9.148,1.606-14.853
		v-0.05c-0.067-3.096-0.689-4.669-1.951-5.071c-1.208-0.383-2.667,0.498-4.544,2.274L434.25,28
		c-4.411,4.616-6.656,9.787-9.647,16.674c-1.233,2.836-2.596,5.968-4.311,9.513c0.202-3.43,0.31-6.871,0.26-10.33
		c-0.067-4.538-0.406-9.07-1.161-13.594l-0.013-0.059c-0.178-0.801-0.419-1.465-0.711-2c-0.439-0.809-1.003-1.352-1.65-1.663
		c-0.669-0.32-1.396-0.376-2.148-0.207c-0.438,0.099-0.879,0.273-1.309,0.514l-0.063,0.038c-0.86,0.558-1.268,1.456-1.294,2.538
		c-0.021,0.887,0.233,1.912,0.709,2.96c-1.019-0.688-2.079-1.276-3.163-1.758c-3.188-1.412-6.586-1.893-9.838-1.279
		c-3.271,0.617-6.376,2.328-8.958,5.293c-0.651,0.747-1.271,1.573-1.85,2.485c0.057-0.423,0.128-0.857,0.218-1.307
		c0.39-1.906,1.136-4.082,2.51-6.692l0.008-0.017c1.123-2.218,1.122-4.11,0.507-5.312c-0.297-0.572-0.729-1.006-1.259-1.27v-0.002
		c-0.529-0.263-1.138-0.348-1.778-0.224c-1.332,0.256-2.858,1.467-4.023,3.928l-0.042,0.095c-1.018,2.845-1.806,5.598-2.389,8.27
		c-0.532,2.437-0.893,4.79-1.097,7.066c-0.929,0.321-1.875,0.605-2.829,0.848c-0.661,0.166-1.323,0.316-1.982,0.443
		c0.033-0.185,0.068-0.379,0.103-0.583l0.014-0.133c0.055-1.216,0.058-2.368,0.01-3.46c-0.24-5.461-1.745-9.403-4.166-12.048
		c-2.459-2.682-5.814-3.997-9.727-4.18c-0.639-0.029-1.291-0.029-1.959,0.001l-0.156,0.017l-0.073,0.014h-0.004
		c-3.74,0.758-6.36,2.842-7.894,5.547c-1.443,2.541-1.907,5.621-1.424,8.642c-3.709,4.044-6.078,8.713-7.077,13.138
		c-0.638,2.824-0.719,5.562-0.234,7.997c0.496,2.499,1.582,4.678,3.269,6.313c1.345,1.303,3.058,2.252,5.145,2.734l0.013,0.005
		c4.679,1,9.354-0.464,13.379-3.779c3.853-3.172,7.109-8.05,9.174-14.072c1.225-0.264,2.431-0.606,3.619-1.02
		c0.869-0.303,1.734-0.644,2.599-1.022c0.044,3.321,0.406,6.503,1.025,9.561c0.725,3.578,1.791,6.977,3.101,10.239l0.016,0.034
		c0.674,1.531,1.553,2.354,2.454,2.621c0.624,0.187,1.236,0.114,1.8-0.171c0.491-0.248,0.929-0.662,1.282-1.2
		c0.816-1.256,1.223-3.324,0.701-5.597c-0.835-7.883-0.48-15.245,1.188-20.464c0.837-2.616,1.993-4.664,3.481-5.917
		c1.399-1.183,3.143-1.659,5.244-1.234c2.077,0.42,4.508,1.704,7.308,4.02l0.001-0.001c1.211,1.056,2.324,1.735,3.345,2.058
		c0.598,0.189,1.163,0.26,1.7,0.216c0.091,2.809,0.094,6.01,0.033,9.227c-0.078,4.119-0.265,8.304-0.512,11.748v0.05
		c-0.033,1.361,0.258,2.399,0.756,3.133c0.461,0.68,1.084,1.103,1.796,1.288c0.669,0.175,1.397,0.131,2.117-0.105
		c1.087-0.36,2.188-1.18,3.04-2.368l0.014-0.021c2.531-3.687,4.276-8.165,6.111-12.875c1.913-4.91,3.928-10.083,7.017-14.751
		c-0.068,3.773-0.665,7.807-1.242,11.718c-0.715,4.841-1.402,9.492-1.056,13.417v0.018c0.17,1.633,0.631,2.741,1.249,3.441
		c0.364,0.411,0.786,0.692,1.242,0.86h-0.001c0.449,0.165,0.917,0.21,1.379,0.161c0.94-0.098,1.874-0.594,2.604-1.251l0.067-0.068
		c2.64-2.825,4.956-6.215,7.021-10.03c1.523-2.814,2.909-5.862,4.188-9.089c-0.203,4.485-0.191,8.796,0.205,12.537
		c0.51,4.824,1.676,8.742,3.864,10.969l0.156,0.13c1.087,0.745,1.993,0.991,2.771,0.89c0.88-0.112,1.509-0.62,1.996-1.348
		l0.087-0.154l0.011-0.021l0.004-0.005c0.551-1.231,0.963-2.153-0.473-4.204C457.465,62.342,456.684,59.264,456.304,55.052"/>
	<path clip-path="url(#SVGID_2_)" d="M232.142,38.266c-0.007-0.003-0.013-0.007-0.02-0.014
		C232.054,38.182,232.083,38.21,232.142,38.266 M239.916,30.364c2.597-1.618,5.306-2.294,8.082-2.412v-0.001
		c0.95-0.022,1.459,0.05,1.584,0.217c0.074,0.099-0.046,0.464-0.331,1.071c-1.559,3.326-3.727,5.886-6.619,7.441
		c-2.682,1.44-6.017,2.032-10.099,1.59C234.884,34.474,237.356,31.958,239.916,30.364 M301.585,37.111
		c-0.223-0.964-0.891-1.915-2.023-2.882l0.002-0.003c-1.854-1.65-3.896-2.936-6.021-3.808c-3.127-1.286-6.438-1.674-9.604-1.02
		c-3.177,0.656-6.19,2.353-8.706,5.242c-0.652,0.748-1.269,1.574-1.848,2.483c0.034-0.271,0.077-0.545,0.128-0.824
		c0.356-2.022,1.108-4.343,2.6-7.172l0.008-0.017c1.123-2.218,1.121-4.11,0.506-5.312c-0.296-0.573-0.729-1.007-1.258-1.271v-0.001
		c-0.531-0.264-1.138-0.348-1.778-0.224c-1.332,0.256-2.859,1.466-4.022,3.927l-0.041,0.096c-1.235,3.446-2.131,6.752-2.732,9.932
		c-0.575,3.053-0.88,5.997-0.948,8.845c-2.33,3.064-4.945,5.964-8.027,8.384c-3.138,2.462-6.763,4.42-11.066,5.526
		c-3.174,0.815-6.275,0.843-8.958,0.141c-1.979-0.517-3.731-1.435-5.11-2.724c-1.357-1.268-2.358-2.909-2.859-4.9
		c-0.474-1.885-0.505-4.087,0.024-6.586c5.422,0.351,10.211-0.601,14.359-2.866c4.371-2.388,7.999-6.224,10.871-11.523l0.049-0.101
		c0.779-1.887,1.105-3.494,1.049-4.83c-0.064-1.534-0.615-2.719-1.553-3.571c-0.897-0.815-2.131-1.287-3.606-1.439
		c-1.906-0.193-4.26,0.155-6.839,0.998c-3.761,1.231-6.998,3.396-9.926,6.201c-2.783,2.666-5.279,5.901-7.68,9.456
		c-0.207,0.047-0.406,0.113-0.594,0.201c-0.69,0.318-1.231,0.891-1.588,1.601c-0.327,0.653-0.5,1.435-0.485,2.241
		c0.011,0.575,0.115,1.165,0.327,1.733c-1.045,5.257-0.985,9.458-0.105,12.76c0.777,2.916,2.187,5.137,4.04,6.767
		c1.844,1.623,4.115,2.643,6.632,3.173c3.99,0.838,8.603,0.428,13.083-0.792c4.376-1.19,8.146-3.052,11.445-5.417
		c2.59-1.855,4.883-4.022,6.944-6.421c0.267,2.013,0.648,3.976,1.127,5.89c0.676,2.713,1.547,5.326,2.563,7.858l0.018,0.035
		c0.674,1.532,1.554,2.354,2.454,2.622c0.624,0.186,1.235,0.113,1.799-0.171c0.491-0.249,0.931-0.662,1.283-1.202
		c0.816-1.254,1.223-3.323,0.701-5.597c-0.838-7.883-0.481-15.244,1.187-20.462c0.838-2.617,1.993-4.665,3.481-5.918
		c1.4-1.182,3.144-1.658,5.242-1.234c2.08,0.421,4.51,1.704,7.311,4.021l0.001-0.002c1.352,1.18,2.586,1.893,3.708,2.161
		c1.317,0.314,2.464,0.047,3.447-0.773l0.14-0.139C301.547,39.225,301.838,38.203,301.585,37.111"/>
	<path clip-path="url(#SVGID_2_)" d="M134.136,19.582c-0.315,2.316-1.871,4.979-4.32,7.475c-3.915,3.986-7.733,7.034-11.968,9.095
		c-3.93,1.913-8.241,2.988-13.351,3.188c0.25-4.56,0.576-9.044,0.946-13.146c0.375-4.151,0.802-7.953,1.249-11.083
		c3.994-0.821,7.897-1.405,11.518-1.682c3.585-0.275,6.874-0.25,9.675,0.138c2.409,0.335,4.066,1.076,5.074,2.086
		c0.511,0.515,0.856,1.105,1.047,1.753C134.204,18.07,134.242,18.805,134.136,19.582 M79.579,42.166
		c-0.034,0.383-0.073,0.761-0.118,1.127l-0.028,0.224c-1.101-0.026-2.181-0.122-3.229-0.293c-1.269-0.207-2.488-0.521-3.638-0.951
		l0.001-0.002c-1.475-0.605-2.663-1.413-3.591-2.336c-0.809-0.805-1.423-1.703-1.858-2.639c0.189-0.14,0.383-0.276,0.578-0.408
		c0.412-0.278,0.837-0.538,1.276-0.781l0.063-0.034c0.877-0.562,1.718-0.966,2.424-1.306c1.988-0.959,3.207-1.545,2.692-3.537
		l-0.033-0.104c-0.413-1.124-1.342-1.656-2.966-1.382c-1.081,0.182-2.577,0.783-4.592,1.91c0.215-0.779,0.557-1.484,1.015-2.073
		c0.786-1.008,1.93-1.66,3.36-1.693l0.064-0.003c2.623,0.159,4.752,1.69,6.228,4.068c1.624,2.616,2.47,6.235,2.354,10.213H79.579z
		 M72.24,58.098c-2.514,2.032-5.535,3.022-8.816,2.553c-0.506-0.123-0.967-0.354-1.379-0.672c-1.137-0.882-1.918-2.447-2.299-4.387
		c-0.403-2.057-0.349-4.494,0.207-6.985c0.482-2.152,1.338-4.34,2.598-6.35c0.579,0.948,1.273,1.843,2.077,2.662
		c1.163,1.184,2.559,2.202,4.182,2.98l0.082,0.038c1.803,0.675,3.585,1.148,5.351,1.438c1.238,0.205,2.465,0.316,3.679,0.342
		C76.616,53.237,74.653,56.147,72.24,58.098 M139.638,13.459c-0.556-1.525-1.438-2.857-2.597-3.942c-1.83-1.711-4.333-2.783-7.309-3
		c-3.588-0.26-7.349-0.225-11.202,0.077c-3.423,0.268-6.93,0.751-10.466,1.426c0.446-2.03,0.268-3.421-0.257-4.241
		c-0.429-0.671-1.05-1.006-1.775-1.037c-0.601-0.026-1.248,0.176-1.874,0.584c-1.479,0.959-3.037,3.235-3.468,6.309l-0.009,0.057
		c-1.572,0.414-3.167,0.873-4.778,1.372c-1.795,0.557-3.596,1.164-5.39,1.817h-0.005c-1.987,0.731-3.126,1.981-3.457,3.145
		c-0.154,0.541-0.144,1.08,0.025,1.573c0.175,0.51,0.509,0.948,0.997,1.265c0.945,0.614,2.535,0.764,4.661-0.027
		c1.345-0.44,2.751-0.873,4.206-1.297c0.913-0.264,1.824-0.52,2.73-0.762c-0.476,3.749-0.854,7.435-1.154,11.068
		c-0.314,3.779-0.547,7.572-0.725,11.378c-0.356,0.021-0.695,0.066-1.015,0.135c-0.628,0.133-1.186,0.35-1.654,0.622
		c-0.35,0.077-0.728,0.186-1.129,0.332c-0.415,0.148-0.865,0.34-1.345,0.576c-1.371,0.564-2.759,1.044-4.143,1.428
		c-0.894,0.248-1.797,0.46-2.705,0.635c0.034-0.185,0.069-0.38,0.103-0.584l0.013-0.133c0.055-1.216,0.058-2.368,0.01-3.46
		c-0.24-5.461-1.745-9.403-4.167-12.048c-2.458-2.682-5.815-3.997-9.726-4.18c-0.637-0.029-1.292-0.029-1.958,0.001l-0.158,0.017
		l-0.072,0.014h-0.004c-3.74,0.758-6.361,2.842-7.895,5.547c-1.442,2.541-1.905,5.621-1.422,8.642
		c-3.708,4.044-6.079,8.712-7.078,13.138c-0.638,2.83-0.72,5.57-0.239,7.997h0.005c0.495,2.499,1.582,4.678,3.269,6.313
		c1.343,1.304,3.057,2.252,5.144,2.734l0.012,0.005c4.68,1,9.357-0.464,13.38-3.779c3.853-3.172,7.109-8.05,9.175-14.072
		c1.825-0.394,3.62-0.966,5.386-1.692c1.733-0.709,3.443-1.567,5.135-2.548c0.285,0.186,0.617,0.35,1,0.489
		c0.508,0.18,1.116,0.317,1.829,0.393c-0.104,3.432-0.17,6.864-0.213,10.294c-0.047,3.734-0.068,7.472-0.086,11.205v0.043
		c0.041,1.081,0.219,1.892,0.493,2.483c0.332,0.72,0.808,1.153,1.367,1.366c0.556,0.213,1.139,0.187,1.713-0.006V71.13
		c0.591-0.195,1.177-0.573,1.692-1.021l-0.002-0.002c1.692-1.455,1.658-3.157,1.614-5.328c-0.009-0.455-0.019-0.938-0.009-1.433
		v-0.059c-0.103-2.588-0.139-5.42-0.12-8.388c0.018-2.854,0.089-5.861,0.201-8.921c5.339-0.319,10.605-1.818,15.335-3.99
		c5.672-2.606,10.601-6.194,13.981-9.885c4.413-4.819,6.498-9.556,6.785-13.607C140.423,16.665,140.19,14.97,139.638,13.459"/>
	<path clip-path="url(#SVGID_2_)" d="M212.484,50.054c-1.53,3.552-5.205,6.212-11.894,7.72c-0.783,0.147-1.562,0.231-2.336,0.262
		c-0.461,0.02-0.923,0.017-1.384-0.003c0.052-3.763-0.018-7.456-0.252-10.941c-0.224-3.333-0.6-6.499-1.164-9.384
		c1.977-4.894,3.918-8.026,5.765-9.7c1.11-1.007,2.154-1.449,3.123-1.403c0.963,0.046,1.919,0.579,2.848,1.523
		c1.663,1.687,3.171,4.6,4.44,8.366l0.005,0.006C213.462,41.837,214.033,46.459,212.484,50.054 M191.208,57.069l-0.237-0.064
		c-0.199-0.057-0.405-0.115-0.615-0.18c0.251-1.313,0.532-2.693,0.844-4.137C191.224,54.076,191.227,55.537,191.208,57.069
		 M190.704,68.585c-0.162,2.317-0.361,4.697-0.596,7.133l-0.004,0.018c-0.521,6.527-0.88,10.202-1.227,12.221
		c-0.219,1.28,0.009,1.559-0.098,1.554c-0.017-0.001-0.034-0.052-0.162-1.049c-0.228-1.787-0.343-5.303-0.424-12.155
		c0.027-0.397,0.044-0.952,0.066-1.629c0.074-2.314,0.197-6.145,1.144-12.349c0.216,0.069,0.432,0.134,0.647,0.199
		c0.337,0.099,0.667,0.194,0.99,0.281C190.958,64.617,190.848,66.541,190.704,68.585 M168.213,45.579l-0.008,0.021l-0.057,0.176
		c0.001-0.699,0.034-1.398,0.101-2.093l0.004-0.021c0.063-0.843,0.138-1.529,0.219-2.078
		C168.66,42.817,168.639,44.365,168.213,45.579 M167.814,32.845c-0.782,0.162-1.546,0.556-2.248,1.21
		c-0.655,0.611-1.259,1.456-1.771,2.562c-0.515,0.398-1.046,0.787-1.583,1.164c-0.631,0.44-1.273,0.862-1.908,1.256l-0.017,0.012
		c-0.931,0.601-1.471,1.428-1.603,2.181c-0.074,0.427-0.028,0.84,0.139,1.212c0.178,0.395,0.477,0.718,0.898,0.929
		c0.589,0.297,1.439,0.358,2.524,0.011c-0.01,0.117-0.019,0.236-0.027,0.356c-0.056,0.79-0.088,1.663-0.092,2.621v0.003
		c-0.001,1.426,0.094,2.871,0.28,4.299c0.162,1.244,0.389,2.468,0.679,3.651c-1.958,1.942-4.211,3.229-6.572,3.854l0.001,0.001
		c-2.552,0.677-5.238,0.584-7.818-0.274c-2.826-1.565-4.432-3.811-4.401-6.979c0.032-3.421,1.869-7.939,5.969-13.841
		c2.988-3.886,6.649-7.305,10.085-9.466c1.826-1.149,3.572-1.933,5.094-2.226c1.352-0.262,2.499-0.125,3.311,0.511
		c0.272,0.215,0.515,0.489,0.722,0.826c0.503,0.815,0.573,1.721,0.325,2.662C169.508,30.498,168.79,31.676,167.814,32.845
		 M218.622,34.594l-0.004-0.017c-1.935-6.854-4.441-11.667-7.667-13.899c-3.418-2.369-7.475-1.926-12.301,1.912l-0.079,0.07
		c-1.305,1.27-2.504,2.663-3.607,4.172c-0.682,0.932-1.326,1.906-1.935,2.918c-0.283-0.616-0.589-1.2-0.915-1.753
		c-0.741-1.908-2.033-2.708-3.326-2.793c-0.897-0.056-1.78,0.25-2.469,0.78c-0.699,0.538-1.214,1.318-1.364,2.198
		c-0.206,1.199,0.241,2.526,1.776,3.593l-0.001,0.003c0.498,0.367,0.993,1.001,1.469,1.926c0.458,0.89,0.882,2.016,1.259,3.395
		c-0.774,1.968-1.468,4.046-2.093,6.217c-0.644,2.238-1.21,4.561-1.71,6.958c-1.876,3.624-4.08,7.158-6.326,9.398
		c-1.146,1.146-2.278,1.938-3.345,2.195c-0.936,0.229-1.864,0.02-2.755-0.773c-0.721-0.643-1.429-1.659-2.113-3.11
		c-0.349-0.737-0.658-1.446-0.924-2.123c-0.208-0.525-0.403-1.06-0.584-1.601c1.396-1.982,2.533-4.084,3.357-6.166
		c0.901-2.275,1.433-4.537,1.529-6.606v-0.003c0.062-1.504-0.151-2.885-0.557-4.08l0.003-0.001
		c-0.328-0.961-0.786-1.804-1.331-2.498c2.117-2.814,3.317-5.693,3.608-8.221c0.203-1.761-0.03-3.372-0.693-4.703
		c-0.687-1.379-1.817-2.438-3.385-3.042c-1.686-0.649-3.875-0.756-6.55-0.135l-0.021,0.005c-3.896,0.984-8.302,3.557-12.537,7.382
		c-3.936,3.552-7.74,8.195-10.861,13.647l0.001,0.001c-0.824,1.414-1.52,2.809-2.083,4.174c-1.665,4.033-2.222,7.878-1.569,11.208
		c0.671,3.422,2.597,6.277,5.886,8.236c0.619,0.369,1.277,0.704,1.975,0.996l0.132,0.044c3.543,0.96,6.952,0.778,10.102-0.199
		c3.051-0.946,5.846-2.639,8.274-4.765c0.836,1.809,1.845,3.414,3.008,4.703c1.323,1.466,2.85,2.537,4.558,3.047
		c1.729,0.521,3.613,0.458,5.621-0.347c1.46-0.584,2.978-1.564,4.538-2.999l0.016-0.019c0.346-0.333,0.702-0.729,1.065-1.176
		c-0.546,7.754-1.058,16.122-0.782,22.666c0.307,7.288,1.693,12.415,5.226,12.428c1.57,0.126,3.223-1.438,4.498-4.279
		c1.033-2.302,1.9-5.525,2.319-9.378h0.002c0.423-3.428,0.823-7.179,1.149-11.079c0.25-3.006,0.457-6.13,0.596-9.307
		c0.665,0.046,1.323,0.069,1.97,0.061c0.994-0.011,1.939-0.09,2.818-0.242l0.033-0.009c0.858-0.176,1.673-0.371,2.445-0.581
		c5.608-1.534,10.174-4.209,12.983-8.403c2.806-4.193,3.819-9.848,2.307-17.321C219.076,36.401,218.864,35.498,218.622,34.594"/>
</g>
</svg>
