<?xml version="1.0" standalone="no"?>
<!DOCTYPE svg PUBLIC "-//W3C//DTD SVG 20010904//EN"
 "http://www.w3.org/TR/2001/REC-SVG-20010904/DTD/svg10.dtd">
<svg version="1.0" xmlns="http://www.w3.org/2000/svg"
 width="860.000000pt" height="1060.000000pt" viewBox="0 0 860.000000 1060.000000"
 preserveAspectRatio="xMidYMid meet">

<g transform="translate(0.000000,1060.000000) scale(0.100000,-0.100000)"
fill="#000000" stroke="none">
<path d="M700 6680 l0 -3520 410 0 410 0 0 3520 0 3520 -410 0 -410 0 0 -3520z"/>
<path d="M6200 6913 c167 -152 504 -495 596 -606 314 -381 514 -758 610 -1152
62 -255 50 -495 -33 -683 -91 -207 -266 -371 -538 -502 -227 -110 -375 -152
-601 -170 -251 -21 -436 11 -925 157 -11 3 -18 -3 -22 -19 -4 -13 -7 -197 -7
-409 l0 -387 113 -31 c241 -66 375 -93 556 -111 223 -22 537 -7 756 36 130 25
354 84 440 116 94 34 288 130 371 183 465 296 751 818 771 1405 6 188 -8 316
-57 510 -112 443 -402 999 -698 1335 -19 22 -118 124 -219 228 l-183 187 -513
0 -512 -1 95 -86z"/>
<path d="M3397 4179 c-152 -36 -316 -212 -371 -398 -10 -33 -16 -91 -16 -145
1 -189 54 -331 165 -434 168 -158 418 -197 615 -97 132 67 250 216 279 353 14
68 14 255 0 324 -17 82 -75 182 -148 258 -79 80 -134 114 -221 134 -71 17
-241 20 -303 5z"/>
<path d="M1090 2864 c-19 -3 -78 -14 -130 -24 -339 -69 -553 -271 -616 -584
-32 -155 -6 -452 48 -561 53 -106 140 -199 244 -261 11 -7 17 -14 14 -17 -3
-3 -80 -25 -172 -48 l-168 -43 0 -206 c0 -113 4 -210 8 -217 6 -9 39 -5 132
18 136 32 854 194 1174 264 110 24 205 50 212 57 9 9 13 46 14 113 2 196 0
300 -8 313 -7 9 -40 6 -153 -17 -79 -16 -188 -35 -243 -41 -313 -40 -567 70
-669 288 -27 59 -31 77 -31 152 0 119 28 185 108 266 92 92 121 99 381 98 236
-1 302 -12 441 -79 40 -19 76 -35 79 -35 12 0 0 403 -12 426 -14 24 -88 65
-158 88 -115 36 -388 64 -495 50z"/>
</g>
</svg>
