<svg height="480pt" viewBox="0 -3 480.13751 480" width="480pt" xmlns="http://www.w3.org/2000/svg"><path d="m121.175781 287.632812c5.34375 17.808594 37.191407 128 23.199219 176.976563-.699219 2.417969-.21875 5.023437 1.292969 7.035156 1.515625 2.011719 3.886719 3.191407 6.402343 3.1875h176c2.511719.003907 4.878907-1.175781 6.390626-3.179687 1.515624-2.003906 1.996093-4.605469 1.308593-7.019532-13.984375-48.933593 17.855469-159.199218 23.199219-176.976562 125-94.214844 121.773438-137.511719 120.992188-142.160156-.113282-.667969-.3125-1.316406-.59375-1.933594-9.597657-21.480469-59.398438-129.203125-92.800782-140.320312-14.398437-4.800782-25.992187-4.144532-34.398437 1.941406-9.304688 6.707031-13.832031 19.089844-13.832031 37.832031-.289063 6.195313 2.582031 12.113281 7.632812 15.714844 9.046875 6.398437 23.695312 4.269531 32.957031 1.957031 3.109375 9.761719 4.839844 19.90625 5.144531 30.144531-.554687 22.84375 3.617188 45.558594 12.25 66.714844-23.066406 6.210937-41.75 23.109375-50.242187 45.4375-20.898437.757813-41.035156 8.03125-57.597656 20.800781-17.847657-19.097656-15.410157-25.777344-6.503907-50.230468 1.742188-4.800782 3.679688-10.105469 5.695313-16.152344 9.945313-29.816406 2.449219-49.367188-5.601563-60.527344-9.535156-13.789062-25.234374-22.015625-42-22.015625-16.761718 0-32.460937 8.226563-42 22.015625-8.039062 11.160156-15.535156 30.710938-5.597656 60.527344 2.015625 6.046875 3.949219 11.367187 5.695313 16.152344 8.902343 24.453124 11.34375 31.132812-6.503907 50.230468-16.5625-12.769531-36.703124-20.042968-57.601562-20.800781-8.488281-22.328125-27.171875-39.226563-50.238281-45.4375 8.632812-21.15625 12.804687-43.871094 12.246093-66.714844.304688-10.238281 2.03125-20.382812 5.136719-30.144531 9.273438 2.3125 23.921875 4.433594 32.960938-1.957031 5.046875-3.601563 7.921875-9.519531 7.632812-15.714844 0-18.742187-4.527343-31.125-13.832031-37.832031-8.441406-6.085938-20-6.75-34.402344-1.941406-33.367187 11.117187-83.132812 118.839843-92.796875 140.320312-.28125.617188-.480469 1.265625-.59375 1.933594-.777343 4.648437-4 47.945312 121 142.136718zm-22.574219-269.207031c6.320313-2.945312 13.601563-3.039062 20-.257812 4.695313 3.386719 7.199219 12 7.199219 24.847656 0 2.027344-.570312 2.402344-.882812 2.648437-3.824219 2.714844-16.644531.976563-26.191407-2.398437-4.070312-1.433594-8.546874.625-10.109374 4.648437-5.152344 13.75-8.035157 28.246094-8.546876 42.917969 0 45.035157-14.488281 67.3125-14.605468 67.496094-1.507813 2.21875-1.808594 5.042969-.792969 7.527344 1.011719 2.480469 3.203125 4.289062 5.832031 4.816406 42.398438 8.480469 49.441406 40.378906 49.71875 41.679687.730469 3.761719 4.019532 6.480469 7.847656 6.480469 21.421876-.855469 42.304688 6.828125 58.066407 21.359375 1.46875 1.632813 3.542969 2.585938 5.734375 2.640625 2.195312.082031 4.324218-.769531 5.855468-2.34375 29.210938-29.199219 26.792969-41.414062 15.488282-72.445312-1.695313-4.664063-3.589844-9.851563-5.597656-15.738281-6.167969-18.519532-4.992188-34.464844 3.40625-46.121094 6.53125-9.601563 17.394531-15.351563 29.007812-15.351563s22.476562 5.75 29.007812 15.351563c8.402344 11.65625 9.601563 27.601562 3.410157 46.121094-1.96875 5.886718-3.867188 11.074218-5.601563 15.738281-11.304687 31.03125-13.71875 43.246093 15.488282 72.445312 1.542968 1.542969 3.652343 2.390625 5.835937 2.339844s4.25-.992187 5.722656-2.601563c15.785157-14.574218 36.714844-22.269531 58.175781-21.394531 3.832032 0 7.121094-2.71875 7.847657-6.480469.066406-.328124 6.914062-33.109374 49.722656-41.679687 2.621094-.523437 4.808594-2.324219 5.824219-4.800781 1.019531-2.472656.734375-5.292969-.761719-7.511719-.144531-.214844-14.632813-22.492187-14.632813-67.527344-.511718-14.664062-3.394531-29.152343-8.542968-42.894531-1.5625-4.023438-6.039063-6.082031-10.113282-4.648438-9.542968 3.351563-22.351562 5.097657-26.191406 2.398438-.3125-.214844-.878906-.621094-.878906-2.644531 0-12.875 2.488281-21.464844 7.199219-24.851563 6.398437-2.777344 13.679687-2.6875 20 .257813 20.457031 6.785156 61.167969 82.785156 82.527343 130.175781-.460937 6.128906-7.847656 46.105469-116.796874 127.808594-1.34375 1-2.335938 2.402344-2.832032 4-1.601562 5.023437-36.328125 117.367187-26.304687 178.398437h-156.128907c10.023438-61.015625-24.734374-173.359375-26.304687-178.398437-.5-1.597656-1.488281-3-2.832031-4-110.136719-82.566406-116.519532-122.519532-116.886719-127.6875 21.375-47.367188 62.136719-123.511719 82.617187-130.320313zm0 0"/></svg>