<?xml version="1.0" encoding="utf-8"?>
<!-- Generator: Adobe Illustrator 22.1.0, SVG Export Plug-In . SVG Version: 6.00 Build 0)  -->
<svg version="1.1" id="Layer_1" xmlns="http://www.w3.org/2000/svg" xmlns:xlink="http://www.w3.org/1999/xlink" x="0px" y="0px"
	 viewBox="0 0 50 50" style="enable-background:new 0 0 50 50;" xml:space="preserve">
<style type="text/css">
	.st0{fill:#09C2F0;}
</style>
<g>
	<path class="st0" d="M27.6,14.2h-7.5v12.1h7.3c2.2,0,3.8-0.5,5-1.5c1.2-1,1.7-2.5,1.7-4.4c0-1.8-0.6-3.3-1.7-4.4
		C31.2,14.8,29.6,14.2,27.6,14.2z"/>
	<path class="st0" d="M25,2.2C12.4,2.2,2.2,12.4,2.2,25S12.4,47.8,25,47.8S47.8,37.6,47.8,25S37.6,2.2,25,2.2z M35.4,27.2
		c-1.9,1.6-4.5,2.4-8,2.4h-7.3v12.1H16V10.9h11.4c3.4,0,6,0.9,7.9,2.6c1.9,1.7,2.9,4,2.9,6.8C38.2,23.3,37.2,25.6,35.4,27.2z"/>
</g>
</svg>
