<?xml version="1.0" encoding="utf-8"?>
<!-- Generator: Adobe Illustrator 22.1.0, SVG Export Plug-In . SVG Version: 6.00 Build 0)  -->
<svg version="1.1" id="Layer_1" xmlns="http://www.w3.org/2000/svg" xmlns:xlink="http://www.w3.org/1999/xlink" x="0px" y="0px"
	 viewBox="0 0 50 50" style="enable-background:new 0 0 50 50;" xml:space="preserve">
<style type="text/css">
	.st0{fill:#A024B5;}
</style>
<path class="st0" d="M25,2.2C12.4,2.2,2.2,12.4,2.2,25S12.4,47.8,25,47.8S47.8,37.6,47.8,25S37.6,2.2,25,2.2z M33.2,38.9
	c-1.9,1.5-4.6,2.3-7.8,2.3c-2.1,0-4.1-0.4-5.9-1.2c-1.8-0.8-3.2-1.9-4.2-3.3s-1.5-3-1.5-4.8h4.1c0,1.9,0.7,3.3,2.1,4.4
	c1.4,1.1,3.2,1.6,5.5,1.6c2.1,0,3.8-0.4,4.9-1.3c1.1-0.9,1.7-2.1,1.7-3.6s-0.5-2.7-1.6-3.5c-1.1-0.8-3-1.6-5.8-2.4
	c-3.5-1-6-2.2-7.6-3.7c-1.6-1.5-2.4-3.3-2.4-5.4c0-2.4,1-4.4,2.9-6c1.9-1.6,4.5-2.4,7.6-2.4c2.1,0,4,0.4,5.7,1.2s2.9,1.9,3.9,3.4
	c0.9,1.4,1.4,3,1.4,4.7h-4.1c0-1.9-0.6-3.3-1.8-4.4c-1.2-1.1-2.9-1.6-5-1.6c-2,0-3.6,0.4-4.7,1.3c-1.1,0.9-1.7,2.1-1.7,3.7
	c0,1.3,0.5,2.3,1.6,3.2s2.9,1.7,5.4,2.4c2.6,0.7,4.6,1.5,6,2.4s2.5,1.9,3.2,3c0.7,1.2,1,2.5,1,4.1C36.1,35.3,35.1,37.3,33.2,38.9z"
	/>
</svg>
