<?xml version="1.0" encoding="utf-8"?>
<!-- Generator: Adobe Illustrator 26.0.3, SVG Export Plug-In . SVG Version: 6.00 Build 0)  -->
<svg version="1.1" id="Layer_1" xmlns="http://www.w3.org/2000/svg" xmlns:xlink="http://www.w3.org/1999/xlink" x="0px" y="0px"
	 viewBox="0 0 512 512" style="enable-background:new 0 0 512 512;" xml:space="preserve">
<style type="text/css">
	.st0{fill-rule:evenodd;clip-rule:evenodd;fill:#4B7BDD;}
	.st1{fill-rule:evenodd;clip-rule:evenodd;fill:#FFFFFF;}
</style>
<g>
	<path class="st0" d="M256,0C114.8,0,0,114.8,0,256s114.8,256,256,256s256-114.8,256-256S397.2,0,256,0z"/>
	<path class="st1" d="M379.8,169.7c6.2,6.2,6.2,16.4,0,22.6l-150,150c-3.1,3.1-7.2,4.7-11.3,4.7s-8.2-1.6-11.3-4.7l-75-75
		c-6.2-6.2-6.2-16.4,0-22.6s16.4-6.2,22.6,0l63.7,63.7l138.7-138.7C363.4,163.4,373.6,163.4,379.8,169.7z"/>
</g>
</svg>
