<?xml version="1.0" encoding="utf-8"?>
<!-- Generator: Adobe Illustrator 26.0.3, SVG Export Plug-In . SVG Version: 6.00 Build 0)  -->
<svg version="1.1" id="Capa_1" xmlns="http://www.w3.org/2000/svg" xmlns:xlink="http://www.w3.org/1999/xlink" x="0px" y="0px"
	 viewBox="0 0 415.9 415.9" style="enable-background:new 0 0 415.9 415.9;" xml:space="preserve">
<style type="text/css">
	.st0{fill:#39A7FF;}
	.st1{fill:#4B7BDD;}
</style>
<path class="st0" d="M193.3,282.6L193.3,282.6c-4.7,0-8.9-2.1-11.5-5.2l-78.9-85.7c-5.7-6.3-5.2-16.2,1-21.9s16.2-5.2,21.9,1
	l67.9,73.7L381.9,56.9c6.3-6.3,16.2-6.3,21.9,0c5.7,6.3,6.3,16.2,0,21.9L204.3,277.9C201.7,281.1,197.5,282.6,193.3,282.6z"/>
<path class="st1" d="M207.9,415.9C93.5,415.9,0,322.4,0,207.9S93.5,0,207.9,0c8.9,0,15.7,6.8,15.7,15.7s-6.8,15.7-15.7,15.7
	c-97.2,0-176.6,79.4-176.6,176.6s79.4,176.6,176.6,176.6S384.5,305.2,384.5,208c0-8.9,6.8-15.7,15.7-15.7s15.7,6.8,15.7,15.7
	C415.9,322.4,322.4,415.9,207.9,415.9z"/>
</svg>
