<?xml version="1.0" encoding="utf-8"?>
<!-- Generator: Adobe Illustrator 22.1.0, SVG Export Plug-In . SVG Version: 6.00 Build 0)  -->
<svg version="1.1" id="Layer_1" xmlns="http://www.w3.org/2000/svg" xmlns:xlink="http://www.w3.org/1999/xlink" x="0px" y="0px"
	 viewBox="0 0 100 100" style="enable-background:new 0 0 100 100;" xml:space="preserve">
<style type="text/css">
	.st0{display:none;}
	.st1{display:inline;fill:url(#SVGID_1_);}
	.st2{display:inline;fill:url(#SVGID_2_);}
	.st3{display:inline;fill:url(#SVGID_3_);}
	.st4{display:inline;fill:url(#SVGID_4_);}
	.st5{display:inline;fill:url(#SVGID_5_);}
	.st6{display:inline;}
	.st7{fill:url(#SVGID_6_);}
	.st8{fill:#EEFDFF;}
	.st9{fill:url(#SVGID_7_);}
	.st10{fill:url(#SVGID_8_);}
	.st11{fill:url(#SVGID_9_);}
	.st12{display:inline;fill:url(#SVGID_10_);}
	.st13{display:inline;fill:#FFFFFF;}
	.st14{display:inline;fill:#EEFDFF;}
	.st15{display:inline;fill:url(#SVGID_11_);}
	.st16{display:inline;fill:url(#SVGID_12_);}
	.st17{display:inline;fill:url(#SVGID_13_);}
	.st18{display:inline;fill:url(#SVGID_14_);}
	.st19{display:inline;fill:url(#SVGID_15_);}
	.st20{fill:url(#SVGID_16_);}
	.st21{fill:url(#SVGID_17_);}
	.st22{fill:url(#SVGID_18_);}
	.st23{fill:url(#SVGID_19_);}
	.st24{fill:url(#SVGID_20_);}
	.st25{fill:url(#SVGID_21_);}
	.st26{fill:url(#SVGID_22_);}
	.st27{fill:url(#SVGID_23_);}
	.st28{fill:url(#SVGID_24_);}
	.st29{fill:url(#SVGID_25_);}
	.st30{fill:#FFFFFF;}
	.st31{fill:url(#SVGID_26_);}
	.st32{fill:url(#SVGID_27_);}
	.st33{fill:url(#SVGID_28_);}
	.st34{fill:url(#SVGID_29_);}
	.st35{fill:url(#SVGID_30_);}
</style>
<g class="st0">
	
		<linearGradient id="SVGID_1_" gradientUnits="userSpaceOnUse" x1="-216.528" y1="-128.2744" x2="-187.6069" y2="-98.6041" gradientTransform="matrix(-0.1117 0.9937 -0.9937 -0.1117 -82.3596 271.1799)">
		<stop  offset="3.968250e-02" style="stop-color:#06BED8"/>
		<stop  offset="1" style="stop-color:#DEFA8E"/>
	</linearGradient>
	<path class="st1" d="M74.1,65c-8.4,2.3-10.4,1.7-11.9,3.9c-0.2,0.3-1.1,1.6-0.9,3.3c0.1,1.4,0.9,2.4,1.4,2.9
		c2.9,2.8,10.8-0.6,15.4-4.4c1-0.8,3.7-3,3.1-4.6c-0.2-0.6-0.9-1-1.4-1.2C77.6,64,75.3,64.6,74.1,65z"/>
	
		<linearGradient id="SVGID_2_" gradientUnits="userSpaceOnUse" x1="-736.9825" y1="87.2663" x2="-731.5953" y2="88.052" gradientTransform="matrix(-1 0 0 -1 -684.4229 102)">
		<stop  offset="3.968250e-02" style="stop-color:#06CFF1"/>
		<stop  offset="1" style="stop-color:#DEFA8E"/>
	</linearGradient>
	<polygon class="st2" points="48,20.1 49.8,20.1 49.8,8.3 48,8.3 	"/>
	
		<linearGradient id="SVGID_3_" gradientUnits="userSpaceOnUse" x1="-737.8395" y1="74.1085" x2="-729.1692" y2="83.8976" gradientTransform="matrix(-1 0 0 -1 -684.4229 102)">
		<stop  offset="3.968250e-02" style="stop-color:#06CFF1"/>
		<stop  offset="1" style="stop-color:#DEFA8E"/>
	</linearGradient>
	<path class="st3" d="M44.4,26.6h9c1.8,0,3.3-1.5,3.3-3.3v-1.1c0-1.8-1.5-3.3-3.3-3.3h-9c-1.8,0-3.3,1.5-3.3,3.3v1.1
		C41,25.1,42.5,26.6,44.4,26.6z"/>
	
		<linearGradient id="SVGID_4_" gradientUnits="userSpaceOnUse" x1="-752.0929" y1="36.2862" x2="-714.4398" y2="73.9393" gradientTransform="matrix(-1 0 0 -1 -684.4229 102)">
		<stop  offset="3.968250e-02" style="stop-color:#06CFF1"/>
		<stop  offset="1" style="stop-color:#DEFA8E"/>
	</linearGradient>
	<path class="st4" d="M34,65.3h29.7C71,65.3,77,59.3,77,52v-5.9c0-13-10.6-23.6-23.6-23.6h-9.1c-13,0-23.6,10.6-23.6,23.6V52
		C20.8,59.3,26.7,65.3,34,65.3z"/>
	
		<linearGradient id="SVGID_5_" gradientUnits="userSpaceOnUse" x1="-733.3729" y1="50.4082" x2="-733.0362" y2="65.5597" gradientTransform="matrix(-1 0 0 -1 -684.4229 102)">
		<stop  offset="0" style="stop-color:#030D14"/>
		<stop  offset="1" style="stop-color:#0B2F45"/>
	</linearGradient>
	<path class="st5" d="M29.6,51.1L29.6,51.1c0.7,0.4,1.6,0.6,2.4,0.6h33.7c0.8,0,1.7-0.2,2.4-0.6l0,0c1.8-0.9,2.8-2.7,2.6-4.5v-0.1
		c-0.9-6.3-6.5-11.1-13.5-11.4c-2.9-0.2-6-0.2-9.3-0.2c-2.5,0-5,0.1-7.3,0.2c-7,0.4-12.7,5.2-13.6,11.5v0.1
		C26.8,48.4,27.8,50.2,29.6,51.1z"/>
	<g class="st6">
		
			<radialGradient id="SVGID_6_" cx="-742.2229" cy="58.1" r="6.2969" gradientTransform="matrix(-1 0 0 -1 -684.4229 102)" gradientUnits="userSpaceOnUse">
			<stop  offset="0.1296" style="stop-color:#3280FC"/>
			<stop  offset="1" style="stop-color:#000000"/>
		</radialGradient>
		<circle class="st7" cx="57.8" cy="43.9" r="6.4"/>
		<g>
			<circle class="st8" cx="57.8" cy="43.9" r="4.6"/>
		</g>
		<g>
			
				<linearGradient id="SVGID_7_" gradientUnits="userSpaceOnUse" x1="-746.0579" y1="58.1" x2="-738.3861" y2="58.1" gradientTransform="matrix(-1 0 0 -1 -684.4229 102)">
				<stop  offset="0" style="stop-color:#030D14"/>
				<stop  offset="1" style="stop-color:#0B2F45"/>
			</linearGradient>
			<circle class="st9" cx="57.8" cy="43.9" r="3.8"/>
		</g>
		<g>
			<path class="st8" d="M56.4,43.9c0,0.8,0.6,1.4,1.4,1.4c0.8,0,1.4-0.6,1.4-1.4c0-0.8-0.6-1.4-1.4-1.4S56.4,43.1,56.4,43.9z"/>
		</g>
	</g>
	<g class="st6">
		
			<radialGradient id="SVGID_8_" cx="-725.0229" cy="58.1" r="6.2916" gradientTransform="matrix(-1 0 0 -1 -684.4229 102)" gradientUnits="userSpaceOnUse">
			<stop  offset="0.1296" style="stop-color:#3280FC"/>
			<stop  offset="1" style="stop-color:#000000"/>
		</radialGradient>
		<circle class="st10" cx="40.6" cy="43.9" r="6.4"/>
		<g>
			<circle class="st8" cx="40.6" cy="43.9" r="4.6"/>
		</g>
		<g>
			
				<linearGradient id="SVGID_9_" gradientUnits="userSpaceOnUse" x1="-728.8687" y1="58.1" x2="-721.1969" y2="58.1" gradientTransform="matrix(-1 0 0 -1 -684.4229 102)">
				<stop  offset="0" style="stop-color:#030D14"/>
				<stop  offset="1" style="stop-color:#0B2F45"/>
			</linearGradient>
			<circle class="st11" cx="40.6" cy="43.9" r="3.8"/>
		</g>
		<g>
			<path class="st8" d="M39.2,43.9c0,0.8,0.6,1.4,1.4,1.4c0.8,0,1.4-0.6,1.4-1.4c0-0.8-0.6-1.4-1.4-1.4S39.2,43.1,39.2,43.9z"/>
		</g>
	</g>
	
		<linearGradient id="SVGID_10_" gradientUnits="userSpaceOnUse" x1="-738.1693" y1="93.7932" x2="-731.0398" y2="94.833" gradientTransform="matrix(-1 0 0 -1 -684.4229 102)">
		<stop  offset="3.968250e-02" style="stop-color:#06CFF1"/>
		<stop  offset="1" style="stop-color:#DEFA8E"/>
	</linearGradient>
	<path class="st12" d="M46.6,7.5c0,1.3,1,2.3,2.3,2.3s2.3-1,2.3-2.3s-1-2.3-2.3-2.3S46.6,6.2,46.6,7.5z"/>
	<path class="st13" d="M47.3,6.6c0,0.4,0.3,0.7,0.7,0.7s0.7-0.3,0.7-0.7c0-0.4-0.3-0.7-0.7-0.7S47.3,6.2,47.3,6.6z"/>
	<path class="st13" d="M29.1,29.9c0,1.1,0.8,2.4,1.9,2.5c0.9,0.1,1.7-0.9,2.5-1.9s2.4-3.5,1.8-4.2C34.3,25.4,29.2,27.4,29.1,29.9z"
		/>
	<circle class="st13" cx="37.7" cy="25" r="0.8"/>
	<path class="st13" d="M29.2,44.8c0.3,0.2,2-3.5,6.8-6.6c1.7-1.1,3.4-1.9,3.3-2.1c-0.1-0.2-2,0.2-3.5,0.9
		C31,39.2,28.9,44.6,29.2,44.8z"/>
	<path class="st13" d="M41.5,21.1c0.1,0,0.1-0.3,0.4-0.8c0,0,0.1-0.2,0.3-0.4c0.5-0.7,2.1-0.6,2.2-0.6c2.5,0,4.2-0.1,4.2-0.1
		s-1.2,0-2.1,0c-2.5-0.1-3.9-0.2-4.6,0.5c-0.3,0.3-0.4,0.6-0.4,0.6C41.4,20.6,41.4,21.1,41.5,21.1z"/>
	<path class="st14" d="M42,54.4c0.1,0.6,0.6,1.1,1.2,1.1l8.4,0.8c0.6,0.1,1.2-0.3,1.4-0.9c0.1-0.3,0.1-0.5,0.2-0.8
		c0-0.1,0-0.2-0.1-0.2c0-0.1-0.1-0.1-0.2-0.1l-10.6-1c-0.1,0-0.2,0-0.2,0.1c-0.1,0-0.1,0.1-0.1,0.2C42,53.8,42,54.1,42,54.4z"/>
	
		<linearGradient id="SVGID_11_" gradientUnits="userSpaceOnUse" x1="-733.5568" y1="44.5223" x2="-722.588" y2="55.4911" gradientTransform="matrix(-1 0 0 -1 -684.4229 102)">
		<stop  offset="7.142860e-02" style="stop-color:#0DA9AB"/>
		<stop  offset="1" style="stop-color:#DEFA8E"/>
	</linearGradient>
	<path class="st15" d="M42,54.4c0.3,2.6,2.3,4.8,5.1,5c2.7,0.3,5.1-1.4,5.9-3.9c-0.2,0.5-0.8,0.8-1.3,0.8l-8.4-0.8
		C42.6,55.5,42.1,55,42,54.4z"/>
	
		<linearGradient id="SVGID_12_" gradientUnits="userSpaceOnUse" x1="-743.9514" y1="11.2667" x2="-714.8896" y2="45.2033" gradientTransform="matrix(-1 0 0 -1 -684.4229 102)">
		<stop  offset="3.968250e-02" style="stop-color:#06CFF1"/>
		<stop  offset="4.075459e-02" style="stop-color:#06CFF1"/>
		<stop  offset="0.1607" style="stop-color:#37D9DB"/>
		<stop  offset="0.2745" style="stop-color:#5DE0CA"/>
		<stop  offset="0.3793" style="stop-color:#78E6BD"/>
		<stop  offset="0.4719" style="stop-color:#88E9B6"/>
		<stop  offset="0.5423" style="stop-color:#8EEAB3"/>
		<stop  offset="0.8004" style="stop-color:#B9F39F"/>
		<stop  offset="1" style="stop-color:#DEFA8E"/>
	</linearGradient>
	<path class="st16" d="M28.8,73.3c0,0.1,0,0.2,0,0.2c0,0.7,0.2,1.2,0.3,1.5c2.3,7.1,3.7,10.8,5.7,13.8c0.3,0.5,0.7,1,1.1,1.5
		c0.5,0.7,1,1.3,1.6,2c1.3,1.5,3.4,2.1,4,2.4c2.4,0.8,4.5,0.7,5.9,0.7h0.2c1.4,0,3.5,0.1,5.9-0.7c0.7-0.2,2.7-0.9,4-2.4
		c3.7-4,5.1-7.4,8.4-17.3c0.1-0.2,0.2-0.7,0.3-1.4c0-0.2,0-0.4,0-0.6c-0.1-1.2-0.6-2.4-1.4-3.4c-1.5-1.8-3.7-2.8-6.1-2.8H47.4H36.3
		c-2.4,0-4.7,1-6.2,2.8c-0.7,0.9-1.2,1.9-1.4,2.9c0,0.1,0,0.3-0.1,0.4C28.8,73,28.8,73.1,28.8,73.3z"/>
	
		<linearGradient id="SVGID_13_" gradientUnits="userSpaceOnUse" x1="-745.5059" y1="28.1984" x2="-728.0292" y2="48.6066" gradientTransform="matrix(-1 0 0 -1 -684.4229 102)">
		<stop  offset="3.968250e-02" style="stop-color:#06CFF1"/>
		<stop  offset="1" style="stop-color:#DEFA8E"/>
	</linearGradient>
	<path class="st17" d="M47.5,66.7h11.3c2.3,0,4.6,1,6.1,2.8c0.9,1.1,1.3,2.2,1.4,3.4c-0.1-1.2-0.6-2.4-1.5-3.5
		c-1.5-1.8-3.8-2.9-6.2-2.8L47.5,66.7z"/>
	
		<linearGradient id="SVGID_14_" gradientUnits="userSpaceOnUse" x1="218.8011" y1="-66.5011" x2="242.7079" y2="-54.0427" gradientTransform="matrix(0.9886 -0.1505 -0.1505 -0.9886 -202.8319 52.8797)">
		<stop  offset="3.968250e-02" style="stop-color:#06CFF1"/>
		<stop  offset="7.336484e-02" style="stop-color:#0FD1ED"/>
		<stop  offset="0.4151" style="stop-color:#67E2C5"/>
		<stop  offset="0.6937" style="stop-color:#A7EFA7"/>
		<stop  offset="0.8955" style="stop-color:#CFF795"/>
		<stop  offset="1" style="stop-color:#DEFA8E"/>
	</linearGradient>
	<path class="st18" d="M36.3,83.4c0.2-8.7,1.3-10.5-0.4-12.6c-0.2-0.2-1.2-1.5-2.9-1.8c-1.3-0.2-2.6,0.2-3.1,0.5
		c-3.5,2-2.5,10.6-0.2,16c0.5,1.2,1.9,4.4,3.5,4.3c0.7,0,1.2-0.6,1.5-1C36.3,87,36.3,84.7,36.3,83.4z"/>
	
		<linearGradient id="SVGID_15_" gradientUnits="userSpaceOnUse" x1="-727.1039" y1="17.8902" x2="-711.683" y2="25.9264" gradientTransform="matrix(-1 0 0 -1 -684.4229 102)">
		<stop  offset="3.968250e-02" style="stop-color:#06BED8"/>
		<stop  offset="1" style="stop-color:#DEFA8E"/>
	</linearGradient>
	<path class="st19" d="M34.7,88.9c0.3,0.5,0.7,1,1.1,1.5c0.1-0.1,0.2-0.2,0.3-0.4c1.5-1.8,1.6-4.1,1.6-5.5
		c0.2-8.7,1.4-10.5-0.4-12.6c-0.1-0.2-0.6-0.7-1.4-1.2c1.7,2.1,0.5,3.8,0.4,12.5C36.3,84.7,36.3,87,34.7,88.9
		C34.7,88.8,34.7,88.8,34.7,88.9z"/>
	<path class="st13" d="M29.8,76.1c0-0.9,0.2-1.6,0.6-3c0.5-1.8,1-2.7,0.7-3c-0.2-0.2-0.7-0.1-0.8,0c-1.7,0.5-2.2,3.6-2.1,5.6
		c0,1.2,0.3,2.5,0.8,2.6c0.1,0,0.2,0,0.4-0.1C29.7,77.6,29.7,76.8,29.8,76.1z"/>
	<path class="st13" d="M28.6,79.4c0,0.2,0.2,0.3,0.3,0.3c0.2,0,0.3-0.2,0.3-0.3c0-0.2-0.2-0.3-0.3-0.3C28.8,79,28.6,79.2,28.6,79.4z
		"/>
</g>
<g>
	
		<linearGradient id="SVGID_16_" gradientUnits="userSpaceOnUse" x1="-98.698" y1="104.548" x2="-70.229" y2="75.3415" gradientTransform="matrix(0.1117 0.9937 -0.9937 0.1117 144.7897 155.6715)">
		<stop  offset="3.968250e-02" style="stop-color:#06BED8"/>
		<stop  offset="1" style="stop-color:#DEFA8E"/>
	</linearGradient>
	<path class="st20" d="M25.1,64c8.3,2.3,10.3,1.6,11.7,3.9c0.2,0.3,1,1.6,0.9,3.2c-0.1,1.3-0.9,2.4-1.4,2.8
		c-2.8,2.8-10.7-0.6-15.2-4.3c-1-0.8-3.6-3-3.1-4.5c0.2-0.6,0.9-0.9,1.4-1.2C21.7,63.1,23.9,63.7,25.1,64z"/>
	<linearGradient id="SVGID_17_" gradientUnits="userSpaceOnUse" x1="46.3055" y1="14.5383" x2="51.6086" y2="13.765">
		<stop  offset="3.968250e-02" style="stop-color:#06CFF1"/>
		<stop  offset="1" style="stop-color:#DEFA8E"/>
	</linearGradient>
	<rect x="49" y="8.2" class="st21" width="1.8" height="11.6"/>
	<linearGradient id="SVGID_18_" gradientUnits="userSpaceOnUse" x1="45.3312" y1="27.5768" x2="54.0238" y2="17.7627">
		<stop  offset="3.968250e-02" style="stop-color:#06CFF1"/>
		<stop  offset="1" style="stop-color:#DEFA8E"/>
	</linearGradient>
	<path class="st22" d="M54.7,26.2h-9.5c-1.6,0-3-1.3-3-3v-1.7c0-1.6,1.3-3,3-3h9.5c1.6,0,3,1.3,3,3v1.7
		C57.6,24.9,56.3,26.2,54.7,26.2z"/>
	<linearGradient id="SVGID_19_" gradientUnits="userSpaceOnUse" x1="30.9662" y1="64.9574" x2="68.9712" y2="26.9524">
		<stop  offset="3.968250e-02" style="stop-color:#06CFF1"/>
		<stop  offset="1" style="stop-color:#DEFA8E"/>
	</linearGradient>
	<path class="st23" d="M65.7,64.3H34.1c-6.5,0-11.9-5.3-11.9-11.9v-9.1c0-11.6,9.5-21.1,21.1-21.1h13.1c11.6,0,21.1,9.5,21.1,21.1
		v9.1C77.6,59,72.3,64.3,65.7,64.3z"/>
	<linearGradient id="SVGID_20_" gradientUnits="userSpaceOnUse" x1="49.8101" y1="50.8592" x2="50.1415" y2="35.9445">
		<stop  offset="0" style="stop-color:#030D14"/>
		<stop  offset="1" style="stop-color:#0B2F45"/>
	</linearGradient>
	<path class="st24" d="M68.9,50.4L68.9,50.4c-0.7,0.4-1.5,0.5-2.4,0.5H33.3c-0.8,0-1.6-0.2-2.4-0.5l0,0c-1.8-0.9-2.8-2.7-2.5-4.5
		l0-0.1c0.9-6.2,6.4-10.9,13.3-11.3c2.9-0.2,5.9-0.2,9.1-0.2c2.5,0,4.9,0.1,7.2,0.2c6.9,0.4,12.5,5.1,13.4,11.3c0,0,0,0.1,0,0.1
		C71.7,47.7,70.7,49.5,68.9,50.4z"/>
	<g>
		<radialGradient id="SVGID_21_" cx="41.1538" cy="43.2899" r="6.1986" gradientUnits="userSpaceOnUse">
			<stop  offset="0.1296" style="stop-color:#3280FC"/>
			<stop  offset="1" style="stop-color:#000000"/>
		</radialGradient>
		<circle class="st25" cx="41.2" cy="43.3" r="6.3"/>
		<g>
			<circle class="st8" cx="41.2" cy="43.3" r="4.5"/>
		</g>
		<g>
			<linearGradient id="SVGID_22_" gradientUnits="userSpaceOnUse" x1="37.3779" y1="43.2899" x2="44.9298" y2="43.2899">
				<stop  offset="0" style="stop-color:#030D14"/>
				<stop  offset="1" style="stop-color:#0B2F45"/>
			</linearGradient>
			<circle class="st26" cx="41.2" cy="43.3" r="3.8"/>
		</g>
		<g>
			<path class="st8" d="M42.6,43.4c0,0.8-0.6,1.4-1.4,1.4c-0.8,0-1.4-0.6-1.4-1.4s0.6-1.4,1.4-1.4C41.9,42,42.6,42.6,42.6,43.4z"/>
		</g>
	</g>
	<g>
		<radialGradient id="SVGID_23_" cx="58.0743" cy="43.2899" r="6.1986" gradientUnits="userSpaceOnUse">
			<stop  offset="0.1296" style="stop-color:#3280FC"/>
			<stop  offset="1" style="stop-color:#000000"/>
		</radialGradient>
		<circle class="st27" cx="58.1" cy="43.3" r="6.3"/>
		<g>
			<circle class="st8" cx="58.1" cy="43.3" r="4.5"/>
		</g>
		<g>
			<linearGradient id="SVGID_24_" gradientUnits="userSpaceOnUse" x1="54.2984" y1="43.2899" x2="61.8503" y2="43.2899">
				<stop  offset="0" style="stop-color:#030D14"/>
				<stop  offset="1" style="stop-color:#0B2F45"/>
			</linearGradient>
			<circle class="st28" cx="58.1" cy="43.3" r="3.8"/>
		</g>
		<g>
			<path class="st8" d="M59.4,43.4c0,0.8-0.6,1.4-1.4,1.4s-1.4-0.6-1.4-1.4S57.3,42,58,42S59.4,42.6,59.4,43.4z"/>
		</g>
	</g>
	<linearGradient id="SVGID_25_" gradientUnits="userSpaceOnUse" x1="45.1405" y1="8.1347" x2="52.1585" y2="7.1113">
		<stop  offset="3.968250e-02" style="stop-color:#06CFF1"/>
		<stop  offset="1" style="stop-color:#DEFA8E"/>
	</linearGradient>
	<path class="st29" d="M52.2,7.4c0,1.3-1,2.3-2.3,2.3c-1.3,0-2.3-1-2.3-2.3c0-1.3,1-2.3,2.3-2.3C51.2,5.2,52.2,6.2,52.2,7.4z"/>
	<path class="st30" d="M51.5,6.6c0,0.4-0.3,0.7-0.7,0.7c-0.4,0-0.7-0.3-0.7-0.7c0-0.4,0.3-0.7,0.7-0.7C51.2,5.9,51.5,6.2,51.5,6.6z"
		/>
	<path class="st30" d="M69.4,29.5c0,1.1-0.8,2.3-1.8,2.4c-0.9,0.1-1.7-0.8-2.4-1.8c-0.8-1-2.4-3.4-1.7-4.1
		C64.3,25.1,69.3,27,69.4,29.5z"/>
	<circle class="st30" cx="60.9" cy="24.7" r="0.8"/>
	<path class="st30" d="M69.3,44.2c-0.3,0.2-2-3.4-6.7-6.5c-1.7-1.1-3.3-1.9-3.2-2.1c0.1-0.2,1.9,0.2,3.4,0.9
		C67.5,38.6,69.6,44,69.3,44.2z"/>
	<path class="st30" d="M57.2,20.9c-0.1,0-0.1-0.3-0.4-0.8c0,0-0.1-0.2-0.3-0.4c-0.5-0.7-2.1-0.6-2.2-0.6c-2.5,0-4.1-0.1-4.1-0.1
		c0,0,1.2,0,2,0c2.4,0,3.9-0.2,4.5,0.5c0.3,0.3,0.4,0.6,0.4,0.6C57.3,20.4,57.3,20.8,57.2,20.9z"/>
	<path class="st8" d="M56.7,53.6c-0.1,0.6-0.6,1.1-1.2,1.1l-8.3,0.8c-0.6,0.1-1.2-0.3-1.4-0.9c-0.1-0.3-0.1-0.5-0.2-0.8
		c0-0.1,0-0.2,0.1-0.2c0-0.1,0.1-0.1,0.2-0.1l10.5-1c0.1,0,0.1,0,0.2,0.1c0.1,0,0.1,0.1,0.1,0.2C56.7,53.1,56.7,53.3,56.7,53.6z"/>
	<linearGradient id="SVGID_26_" gradientUnits="userSpaceOnUse" x1="49.6815" y1="56.6522" x2="60.4788" y2="45.8549">
		<stop  offset="7.142860e-02" style="stop-color:#0DA9AB"/>
		<stop  offset="1" style="stop-color:#DEFA8E"/>
	</linearGradient>
	<path class="st31" d="M56.7,53.6c-0.3,2.6-2.3,4.7-5,4.9c-2.6,0.3-5-1.4-5.8-3.8c0.2,0.5,0.8,0.8,1.3,0.8l8.3-0.8
		C56.1,54.7,56.6,54.2,56.7,53.6z"/>
	<linearGradient id="SVGID_27_" gradientUnits="userSpaceOnUse" x1="39.4839" y1="89.4177" x2="68.0913" y2="56.0116">
		<stop  offset="3.968250e-02" style="stop-color:#06CFF1"/>
		<stop  offset="4.075459e-02" style="stop-color:#06CFF1"/>
		<stop  offset="0.1607" style="stop-color:#37D9DB"/>
		<stop  offset="0.2745" style="stop-color:#5DE0CA"/>
		<stop  offset="0.3793" style="stop-color:#78E6BD"/>
		<stop  offset="0.4719" style="stop-color:#88E9B6"/>
		<stop  offset="0.5423" style="stop-color:#8EEAB3"/>
		<stop  offset="0.8004" style="stop-color:#B9F39F"/>
		<stop  offset="1" style="stop-color:#DEFA8E"/>
	</linearGradient>
	<path class="st32" d="M69.7,72.2c0,0.1,0,0.1,0,0.2c0,0.7-0.2,1.2-0.3,1.5c-2.3,7-3.7,10.7-5.6,13.6c-0.3,0.5-0.7,1-1.1,1.5
		c-0.5,0.6-1,1.3-1.6,1.9c-1.3,1.4-3.3,2.1-4,2.3c-2.4,0.8-4.5,0.7-5.8,0.7h-0.2c-1.4,0-3.5,0.1-5.8-0.7c-0.6-0.2-2.7-0.9-4-2.3
		c-3.6-4-5-7.3-8.2-17c-0.1-0.2-0.2-0.7-0.3-1.4c0-0.2,0-0.4,0-0.6c0.1-1.2,0.5-2.3,1.4-3.4c1.4-1.8,3.7-2.8,6-2.8l11.1,0l10.9,0
		c2.4,0,4.6,1,6.1,2.8c0.7,0.9,1.2,1.8,1.4,2.8c0,0.1,0,0.3,0.1,0.4C69.7,71.9,69.7,72.1,69.7,72.2z"/>
	<linearGradient id="SVGID_28_" gradientUnits="userSpaceOnUse" x1="37.9684" y1="72.7633" x2="55.1719" y2="52.6741">
		<stop  offset="3.968250e-02" style="stop-color:#06CFF1"/>
		<stop  offset="1" style="stop-color:#DEFA8E"/>
	</linearGradient>
	<path class="st33" d="M51.3,65.8l-11.1,0c-2.3,0-4.5,1-6,2.8c-0.8,1-1.3,2.2-1.4,3.4c0.1-1.2,0.6-2.4,1.4-3.4
		c1.5-1.8,3.8-2.8,6.1-2.8L51.3,65.8z"/>
	
		<linearGradient id="SVGID_29_" gradientUnits="userSpaceOnUse" x1="249.2311" y1="110.2904" x2="272.7641" y2="98.0268" gradientTransform="matrix(-0.9886 -0.1505 -0.1505 0.9886 337.9211 12.9056)">
		<stop  offset="3.968250e-02" style="stop-color:#06CFF1"/>
		<stop  offset="7.336484e-02" style="stop-color:#0FD1ED"/>
		<stop  offset="0.4151" style="stop-color:#67E2C5"/>
		<stop  offset="0.6937" style="stop-color:#A7EFA7"/>
		<stop  offset="0.8955" style="stop-color:#CFF795"/>
		<stop  offset="1" style="stop-color:#DEFA8E"/>
	</linearGradient>
	<path class="st34" d="M62.3,82.1c-0.2-8.6-1.3-10.3,0.4-12.4c0.2-0.2,1.2-1.4,2.9-1.7c1.3-0.2,2.5,0.2,3.1,0.5
		c3.4,2,2.4,10.4,0.2,15.8c-0.5,1.2-1.8,4.3-3.4,4.2c-0.7,0-1.2-0.6-1.5-1C62.4,85.7,62.3,83.4,62.3,82.1z"/>
	<linearGradient id="SVGID_30_" gradientUnits="userSpaceOnUse" x1="56.0566" y1="82.9102" x2="71.2364" y2="74.9996">
		<stop  offset="3.968250e-02" style="stop-color:#06BED8"/>
		<stop  offset="1" style="stop-color:#DEFA8E"/>
	</linearGradient>
	<path class="st35" d="M63.9,87.5c-0.3,0.5-0.7,1-1.1,1.5c-0.1-0.1-0.2-0.2-0.3-0.4C61,86.9,61,84.6,61,83.3
		c-0.2-8.6-1.3-10.3,0.4-12.4c0.1-0.2,0.6-0.7,1.3-1.2c-1.7,2-0.5,3.8-0.4,12.3C62.3,83.4,62.4,85.7,63.9,87.5
		C63.9,87.5,63.9,87.5,63.9,87.5z"/>
	<path class="st30" d="M68.8,75c0-0.9-0.2-1.6-0.6-3c-0.5-1.8-1-2.6-0.7-3c0.2-0.2,0.7-0.1,0.8,0c1.6,0.5,2.1,3.6,2.1,5.5
		c0,1.2-0.3,2.5-0.8,2.5c-0.1,0-0.2,0-0.4-0.1C68.8,76.5,68.8,75.7,68.8,75z"/>
	<path class="st30" d="M69.9,78.2c0,0.2-0.2,0.3-0.3,0.3c-0.2,0-0.3-0.2-0.3-0.3c0-0.2,0.2-0.3,0.3-0.3C69.7,77.9,69.9,78,69.9,78.2
		z"/>
</g>
</svg>
