<?xml version="1.0" encoding="utf-8"?>
<!-- Generator: Adobe Illustrator 22.1.0, SVG Export Plug-In . SVG Version: 6.00 Build 0)  -->
<svg version="1.1" id="Layer_1" xmlns="http://www.w3.org/2000/svg" xmlns:xlink="http://www.w3.org/1999/xlink" x="0px" y="0px"
	 viewBox="0 0 100 100" style="enable-background:new 0 0 100 100;" xml:space="preserve">
<style type="text/css">
	.st0{display:none;}
	.st1{display:inline;fill:url(#SVGID_1_);}
	.st2{display:inline;fill:url(#SVGID_2_);}
	.st3{display:inline;fill:url(#SVGID_3_);}
	.st4{display:inline;fill:url(#SVGID_4_);}
	.st5{display:inline;fill:url(#SVGID_5_);}
	.st6{display:inline;}
	.st7{fill:url(#SVGID_6_);}
	.st8{fill:#EEFDFF;}
	.st9{fill:url(#SVGID_7_);}
	.st10{fill:url(#SVGID_8_);}
	.st11{fill:url(#SVGID_9_);}
	.st12{display:inline;fill:url(#SVGID_10_);}
	.st13{display:inline;fill:#FFFFFF;}
	.st14{display:inline;fill:#EEFDFF;}
	.st15{display:inline;fill:url(#SVGID_11_);}
	.st16{display:inline;fill:url(#SVGID_12_);}
	.st17{display:inline;fill:url(#SVGID_13_);}
	.st18{display:inline;fill:url(#SVGID_14_);}
	.st19{display:inline;fill:url(#SVGID_15_);}
	.st20{fill:#6967F7;}
	.st21{fill:#F7D5D9;}
	.st22{fill:#EF2984;}
</style>
<g class="st0">
	
		<linearGradient id="SVGID_1_" gradientUnits="userSpaceOnUse" x1="-100.0884" y1="126.0833" x2="-71.1673" y2="96.413" gradientTransform="matrix(-0.1117 0.9937 0.9937 0.1117 -67.2126 155.6715)">
		<stop  offset="3.968250e-02" style="stop-color:#06BED8"/>
		<stop  offset="1" style="stop-color:#DEFA8E"/>
	</linearGradient>
	<path class="st1" d="M74.1,65c-8.4,2.3-10.4,1.7-11.9,3.9c-0.2,0.3-1.1,1.6-0.9,3.3c0.1,1.4,0.9,2.4,1.4,2.9
		c2.9,2.8,10.8-0.6,15.4-4.4c1-0.8,3.7-3,3.1-4.6c-0.2-0.6-0.9-1-1.4-1.2C77.6,64,75.3,64.6,74.1,65z"/>
	
		<linearGradient id="SVGID_2_" gradientUnits="userSpaceOnUse" x1="25.0115" y1="14.693" x2="30.3987" y2="13.9073" gradientTransform="matrix(-1 0 0 1 77.5771 0)">
		<stop  offset="3.968250e-02" style="stop-color:#06CFF1"/>
		<stop  offset="1" style="stop-color:#DEFA8E"/>
	</linearGradient>
	<polygon class="st2" points="48,20.1 49.8,20.1 49.8,8.3 48,8.3 	"/>
	
		<linearGradient id="SVGID_3_" gradientUnits="userSpaceOnUse" x1="24.1061" y1="27.8433" x2="32.7764" y2="18.0542" gradientTransform="matrix(-1 0 0 1 77.5771 0)">
		<stop  offset="3.968250e-02" style="stop-color:#06CFF1"/>
		<stop  offset="1" style="stop-color:#DEFA8E"/>
	</linearGradient>
	<path class="st3" d="M44.4,26.6h9c1.8,0,3.3-1.5,3.3-3.3v-1.1c0-1.8-1.5-3.3-3.3-3.3h-9c-1.8,0-3.3,1.5-3.3,3.3v1.1
		C41,25.1,42.5,26.6,44.4,26.6z"/>
	
		<linearGradient id="SVGID_4_" gradientUnits="userSpaceOnUse" x1="9.9054" y1="65.7121" x2="47.5585" y2="28.059" gradientTransform="matrix(-1 0 0 1 77.5771 0)">
		<stop  offset="3.968250e-02" style="stop-color:#06CFF1"/>
		<stop  offset="1" style="stop-color:#DEFA8E"/>
	</linearGradient>
	<path class="st4" d="M34,65.3h29.7c7.3,0,13.3-6,13.3-13.3v-5.9c0-13-10.6-23.6-23.6-23.6h-9.1c-13,0-23.6,10.6-23.6,23.6V52
		C20.8,59.3,26.7,65.3,34,65.3z"/>
	
		<linearGradient id="SVGID_5_" gradientUnits="userSpaceOnUse" x1="28.5717" y1="51.5906" x2="28.9084" y2="36.4391" gradientTransform="matrix(-1 0 0 1 77.5771 0)">
		<stop  offset="0" style="stop-color:#030D14"/>
		<stop  offset="1" style="stop-color:#0B2F45"/>
	</linearGradient>
	<path class="st5" d="M29.6,51.1L29.6,51.1c0.7,0.4,1.6,0.6,2.4,0.6h33.7c0.8,0,1.7-0.2,2.4-0.6l0,0c1.8-0.9,2.8-2.7,2.6-4.5l0-0.1
		c-0.9-6.3-6.5-11.1-13.5-11.4c-2.9-0.2-6-0.2-9.3-0.2c-2.5,0-5,0.1-7.3,0.2c-7,0.4-12.7,5.2-13.6,11.5c0,0,0,0.1,0,0.1
		C26.8,48.4,27.8,50.2,29.6,51.1z"/>
	<g class="st6">
		
			<radialGradient id="SVGID_6_" cx="19.778" cy="43.9011" r="6.297" gradientTransform="matrix(-1 0 0 1 77.5771 0)" gradientUnits="userSpaceOnUse">
			<stop  offset="0.1296" style="stop-color:#3280FC"/>
			<stop  offset="1" style="stop-color:#000000"/>
		</radialGradient>
		<circle class="st7" cx="57.8" cy="43.9" r="6.4"/>
		<g>
			<circle class="st8" cx="57.8" cy="43.9" r="4.6"/>
		</g>
		<g>
			
				<linearGradient id="SVGID_7_" gradientUnits="userSpaceOnUse" x1="15.9421" y1="43.9011" x2="23.6139" y2="43.9011" gradientTransform="matrix(-1 0 0 1 77.5771 0)">
				<stop  offset="0" style="stop-color:#030D14"/>
				<stop  offset="1" style="stop-color:#0B2F45"/>
			</linearGradient>
			<circle class="st9" cx="57.8" cy="43.9" r="3.8"/>
		</g>
		<g>
			<path class="st8" d="M56.4,43.9c0,0.8,0.6,1.4,1.4,1.4c0.8,0,1.4-0.6,1.4-1.4c0-0.8-0.6-1.4-1.4-1.4C57,42.5,56.4,43.1,56.4,43.9
				z"/>
		</g>
	</g>
	<g class="st6">
		
			<radialGradient id="SVGID_8_" cx="36.9672" cy="43.9011" r="6.297" gradientTransform="matrix(-1 0 0 1 77.5771 0)" gradientUnits="userSpaceOnUse">
			<stop  offset="0.1296" style="stop-color:#3280FC"/>
			<stop  offset="1" style="stop-color:#000000"/>
		</radialGradient>
		<circle class="st10" cx="40.6" cy="43.9" r="6.4"/>
		<g>
			<circle class="st8" cx="40.6" cy="43.9" r="4.6"/>
		</g>
		<g>
			
				<linearGradient id="SVGID_9_" gradientUnits="userSpaceOnUse" x1="33.1313" y1="43.9011" x2="40.8031" y2="43.9011" gradientTransform="matrix(-1 0 0 1 77.5771 0)">
				<stop  offset="0" style="stop-color:#030D14"/>
				<stop  offset="1" style="stop-color:#0B2F45"/>
			</linearGradient>
			<circle class="st11" cx="40.6" cy="43.9" r="3.8"/>
		</g>
		<g>
			<path class="st8" d="M39.2,43.9c0,0.8,0.6,1.4,1.4,1.4c0.8,0,1.4-0.6,1.4-1.4c0-0.8-0.6-1.4-1.4-1.4
				C39.8,42.5,39.2,43.1,39.2,43.9z"/>
		</g>
	</g>
	
		<linearGradient id="SVGID_10_" gradientUnits="userSpaceOnUse" x1="23.8279" y1="8.1877" x2="30.9574" y2="7.1479" gradientTransform="matrix(-1 0 0 1 77.5771 0)">
		<stop  offset="3.968250e-02" style="stop-color:#06CFF1"/>
		<stop  offset="1" style="stop-color:#DEFA8E"/>
	</linearGradient>
	<path class="st12" d="M46.6,7.5c0,1.3,1,2.3,2.3,2.3c1.3,0,2.3-1,2.3-2.3c0-1.3-1-2.3-2.3-2.3C47.6,5.2,46.6,6.2,46.6,7.5z"/>
	<path class="st13" d="M47.3,6.6c0,0.4,0.3,0.7,0.7,0.7c0.4,0,0.7-0.3,0.7-0.7c0-0.4-0.3-0.7-0.7-0.7C47.6,5.9,47.3,6.2,47.3,6.6z"
		/>
	<path class="st13" d="M29.1,29.9c0,1.1,0.8,2.4,1.9,2.5c0.9,0.1,1.7-0.9,2.5-1.9c0.8-1,2.4-3.5,1.8-4.2
		C34.3,25.4,29.2,27.4,29.1,29.9z"/>
	<circle class="st13" cx="37.7" cy="25" r="0.8"/>
	<path class="st13" d="M29.2,44.8c0.3,0.2,2-3.5,6.8-6.6c1.7-1.1,3.4-1.9,3.3-2.1c-0.1-0.2-2,0.2-3.5,0.9
		C31,39.2,28.9,44.6,29.2,44.8z"/>
	<path class="st13" d="M41.5,21.1c0.1,0,0.1-0.3,0.4-0.8c0,0,0.1-0.2,0.3-0.4c0.5-0.7,2.1-0.6,2.2-0.6c2.5,0,4.2-0.1,4.2-0.1
		c0,0-1.2,0-2.1,0c-2.5-0.1-3.9-0.2-4.6,0.5c-0.3,0.3-0.4,0.6-0.4,0.6C41.4,20.6,41.4,21.1,41.5,21.1z"/>
	<path class="st14" d="M42,54.4c0.1,0.6,0.6,1.1,1.2,1.1l8.4,0.8c0.6,0.1,1.2-0.3,1.4-0.9c0.1-0.3,0.1-0.5,0.2-0.8
		c0-0.1,0-0.2-0.1-0.2c0-0.1-0.1-0.1-0.2-0.1l-10.6-1c-0.1,0-0.2,0-0.2,0.1c-0.1,0-0.1,0.1-0.1,0.2C42,53.8,42,54.1,42,54.4z"/>
	
		<linearGradient id="SVGID_11_" gradientUnits="userSpaceOnUse" x1="28.4411" y1="57.4756" x2="39.4099" y2="46.5068" gradientTransform="matrix(-1 0 0 1 77.5771 0)">
		<stop  offset="7.142860e-02" style="stop-color:#0DA9AB"/>
		<stop  offset="1" style="stop-color:#DEFA8E"/>
	</linearGradient>
	<path class="st15" d="M42,54.4c0.3,2.6,2.3,4.8,5.1,5c2.7,0.3,5.1-1.4,5.9-3.9c-0.2,0.5-0.8,0.8-1.3,0.8l-8.4-0.8
		C42.6,55.5,42.1,55,42,54.4z"/>
	
		<linearGradient id="SVGID_12_" gradientUnits="userSpaceOnUse" x1="18.0815" y1="90.7615" x2="47.1433" y2="56.8249" gradientTransform="matrix(-1 0 0 1 77.5771 0)">
		<stop  offset="3.968250e-02" style="stop-color:#06CFF1"/>
		<stop  offset="4.075459e-02" style="stop-color:#06CFF1"/>
		<stop  offset="0.1607" style="stop-color:#37D9DB"/>
		<stop  offset="0.2745" style="stop-color:#5DE0CA"/>
		<stop  offset="0.3793" style="stop-color:#78E6BD"/>
		<stop  offset="0.4719" style="stop-color:#88E9B6"/>
		<stop  offset="0.5423" style="stop-color:#8EEAB3"/>
		<stop  offset="0.8004" style="stop-color:#B9F39F"/>
		<stop  offset="1" style="stop-color:#DEFA8E"/>
	</linearGradient>
	<path class="st16" d="M28.8,73.3c0,0.1,0,0.2,0,0.2c0,0.7,0.2,1.2,0.3,1.5c2.3,7.1,3.7,10.8,5.7,13.8c0.3,0.5,0.7,1,1.1,1.5
		c0.5,0.7,1,1.3,1.6,2c1.3,1.5,3.4,2.1,4,2.4c2.4,0.8,4.5,0.7,5.9,0.7h0.2c1.4,0,3.5,0.1,5.9-0.7c0.7-0.2,2.7-0.9,4-2.4
		c3.7-4,5.1-7.4,8.4-17.3c0.1-0.2,0.2-0.7,0.3-1.4c0-0.2,0-0.4,0-0.6c-0.1-1.2-0.6-2.4-1.4-3.4c-1.5-1.8-3.7-2.8-6.1-2.8l-11.3,0
		l-11.1,0c-2.4,0-4.7,1-6.2,2.8c-0.7,0.9-1.2,1.9-1.4,2.9c0,0.1,0,0.3-0.1,0.4C28.8,73,28.8,73.1,28.8,73.3z"/>
	
		<linearGradient id="SVGID_13_" gradientUnits="userSpaceOnUse" x1="16.542" y1="73.8426" x2="34.0187" y2="53.4344" gradientTransform="matrix(-1 0 0 1 77.5771 0)">
		<stop  offset="3.968250e-02" style="stop-color:#06CFF1"/>
		<stop  offset="1" style="stop-color:#DEFA8E"/>
	</linearGradient>
	<path class="st17" d="M47.5,66.7l11.3,0c2.3,0,4.6,1,6.1,2.8c0.9,1.1,1.3,2.2,1.4,3.4c-0.1-1.2-0.6-2.4-1.5-3.5
		c-1.5-1.8-3.8-2.9-6.2-2.8L47.5,66.7z"/>
	
		<linearGradient id="SVGID_14_" gradientUnits="userSpaceOnUse" x1="269.643" y1="114.677" x2="293.5498" y2="102.2186" gradientTransform="matrix(0.9886 -0.1505 0.1505 0.9886 -260.344 12.9056)">
		<stop  offset="3.968250e-02" style="stop-color:#06CFF1"/>
		<stop  offset="7.336484e-02" style="stop-color:#0FD1ED"/>
		<stop  offset="0.4151" style="stop-color:#67E2C5"/>
		<stop  offset="0.6937" style="stop-color:#A7EFA7"/>
		<stop  offset="0.8955" style="stop-color:#CFF795"/>
		<stop  offset="1" style="stop-color:#DEFA8E"/>
	</linearGradient>
	<path class="st18" d="M36.3,83.4c0.2-8.7,1.3-10.5-0.4-12.6c-0.2-0.2-1.2-1.5-2.9-1.8c-1.3-0.2-2.6,0.2-3.1,0.5
		c-3.5,2-2.5,10.6-0.2,16c0.5,1.2,1.9,4.4,3.5,4.3c0.7,0,1.2-0.6,1.5-1C36.3,87,36.3,84.7,36.3,83.4z"/>
	
		<linearGradient id="SVGID_15_" gradientUnits="userSpaceOnUse" x1="34.9174" y1="84.1506" x2="50.3383" y2="76.1144" gradientTransform="matrix(-1 0 0 1 77.5771 0)">
		<stop  offset="3.968250e-02" style="stop-color:#06BED8"/>
		<stop  offset="1" style="stop-color:#DEFA8E"/>
	</linearGradient>
	<path class="st19" d="M34.7,88.9c0.3,0.5,0.7,1,1.1,1.5c0.1-0.1,0.2-0.2,0.3-0.4c1.5-1.8,1.6-4.1,1.6-5.5
		c0.2-8.7,1.4-10.5-0.4-12.6c-0.1-0.2-0.6-0.7-1.4-1.2c1.7,2.1,0.5,3.8,0.4,12.5C36.3,84.7,36.3,87,34.7,88.9
		C34.7,88.8,34.7,88.8,34.7,88.9z"/>
	<path class="st13" d="M29.8,76.1c0-0.9,0.2-1.6,0.6-3c0.5-1.8,1-2.7,0.7-3c-0.2-0.2-0.7-0.1-0.8,0c-1.7,0.5-2.2,3.6-2.1,5.6
		c0,1.2,0.3,2.5,0.8,2.6c0.1,0,0.2,0,0.4-0.1C29.7,77.6,29.7,76.8,29.8,76.1z"/>
	<path class="st13" d="M28.6,79.4c0,0.2,0.2,0.3,0.3,0.3c0.2,0,0.3-0.2,0.3-0.3c0-0.2-0.2-0.3-0.3-0.3C28.8,79,28.6,79.2,28.6,79.4z
		"/>
</g>
<path class="st20" d="M64.5,93.2c0,0,0.4-3,0.4-6.8c0-6.6-5-10.7-5.7-11.3c-7.7-5.1-11.5-4.6-11.5-4.6c-1.9,0.3-7.8,1.5-12.5,6.7
	C31.7,81,28,88.1,30.1,92.5C41.5,92.7,53,93,64.5,93.2z"/>
<path class="st21" d="M29.6,32.2c0,0-1.6,2.9-1.3,9.8s2.5,16,5.5,19.7c3,3.7,8,5.5,9.2,5.5s1.8,0,1.8,0s0,2.2,0,4.6
	c0,2.3,3,2.3,3,2.3S51,75,51,69c0-1.8,0-2.5,0-2.5s3.6-2.2,7.3-6.1c3.7-3.9,4-7.1,4.8-7.6c0.7-0.5,6.1-2.7,6.4-4.1
	c0.2-1.4,0.6-6-0.4-7.6c-1-1.5-11.5-7.9-11.5-7.9L49,32l-18.6-3.3L29.6,32.2z"/>
<path class="st22" d="M67.4,54c0,0-1.6,1.4-3.3,0.3c-1.7-1.1-1.7-2.4,0.4-3.7s4.9-3,4.2-5.6c-0.8-2.5-2-3.5-3.1-3.9
	c-1.1-0.4-3.1-0.4-4.5,1.5s-3.2,3.1-4.3,1.7s-0.5-3.8,0-4.9c0.5-1.1,1.5-3.2-0.6-3.4c-2.2-0.2-8.3,2.2-15.3,1.9
	c-7-0.3-11.7-0.9-14.8-5.5s-4.3-8.8-2.3-12.8s9.3-9.6,16.2-8.5s8.9,4.4,11.6,6c2.7,1.6,4.7,1.1,6.9,0.6s6.6-0.3,8.9,2.9
	c2.3,3.2,0,7.4,2.9,9.5s5.1,3.8,4.1,6.6c-1.1,2.8-2.1,2.8-1.2,7.7c0.1,2.7-1.2,4.6-1.9,5.8C70.3,51.6,67.4,54,67.4,54z"/>
<path class="st20" d="M69.6,83.9"/>
</svg>
