<?xml version="1.0" encoding="utf-8"?>
<!-- Generator: Adobe Illustrator 22.1.0, SVG Export Plug-In . SVG Version: 6.00 Build 0)  -->
<svg version="1.1" id="Layer_1" xmlns="http://www.w3.org/2000/svg" xmlns:xlink="http://www.w3.org/1999/xlink" x="0px" y="0px"
	 viewBox="0 0 100 100" style="enable-background:new 0 0 100 100;" xml:space="preserve">
<g>
	<g>
		<path d="M54.9,47.9c-0.4-0.4-0.9-0.4-1.3,0c-0.9,0.9-2,1.3-3.2,1.3c-1.2,0-2.3-0.5-3.2-1.3c-0.4-0.4-0.9-0.4-1.3,0
			c-0.4,0.4-0.4,0.9,0,1.3c1.2,1.2,2.8,1.9,4.5,1.9s3.3-0.7,4.5-1.9C55.3,48.9,55.3,48.3,54.9,47.9z"/>
	</g>
</g>
<g>
	<g>
		<path d="M65.5,64.1l-5.1-1.2c-1.9-0.4-3.2-2.1-3.2-4V57c1.4-0.8,2.6-1.9,3.6-3.2H61c2.8,0,5.1-2.3,5.1-5.1c0,0,0-0.1,0-0.1
			c1.4-0.3,2.4-1.6,2.4-3.1v-6.6c0-1.7-1.4-3.2-3.2-3.2h-1.7v0c0-0.5-0.4-0.9-0.9-0.9c-0.2,0-0.3,0.1-0.5,0.1c0,0,0,0,0,0
			c-1.5,1-4.9,1.5-6.7,1.5c-4.4,0-8.7-1.6-12.3-4.5l-4.4-4.7c0.4-0.7,0.9-1.3,1.3-1.8c0.3-0.4,0.3-1-0.1-1.3c-0.4-0.3-1-0.3-1.3,0.1
			c-0.7,0.8-1.3,1.7-1.9,2.7c-1,1.5-1.6,3.2-2,5c-0.3,1.3-0.4,2.6-0.3,3.9c-1.3,0.4-2.2,1.6-2.2,3v0c-2.5-1.9-4-4.8-4-8
			c0-5.5,4.5-10.1,10.1-10.1c1.2,0,2.4,0.2,3.5,0.6c-0.2,0.2-0.5,0.3-0.7,0.5c-0.4,0.3-0.5,0.9-0.2,1.3c0.3,0.4,0.9,0.5,1.3,0.2
			c4.1-3.1,8.5-2.9,8.6-2.9c3.1,0.2,6.1,1.6,8.8,4.2c2.4,2.3,4.2,5.6,5.3,9.8c0.1,0.4,0.5,0.7,0.9,0.7c0.1,0,0.2,0,0.2,0
			c0.5-0.1,0.8-0.6,0.7-1.1c-1.2-4.5-3.2-8.1-5.8-10.7c-3-2.9-6.4-4.5-10-4.7c-0.2,0-3.4-0.1-7.1,1.6c-1.7-0.9-3.6-1.3-5.5-1.3
			c-6.6,0-11.9,5.3-11.9,11.9c0,4.2,2.2,8.1,5.8,10.2v4.4c0,1.7,1.4,3.2,3.2,3.2h2c0.8,3.7,3.3,6.8,6.5,8.6v1.7c0,1.9-1.3,3.6-3.2,4
			l-5.1,1.2c-4.6,1.1-7.8,5.1-7.8,9.8v6.5c0,0.5,0.4,0.9,0.9,0.9h43.3c0.5,0,0.9-0.4,0.9-0.9v-6.5C73.3,69.2,70.1,65.2,65.5,64.1z
			 M63.7,45.7v-8.2h1.7c0.7,0,1.3,0.6,1.3,1.3v6.6c0,0.7-0.6,1.3-1.3,1.3h-1.7V45.7z M63.4,48.7h0.9c0,0,0,0,0,0c0,1.3-0.8,2.5-2,3
			C62.7,50.7,63.1,49.7,63.4,48.7z M37.3,45.7v1.1h-1.7c-0.7,0-1.3-0.6-1.3-1.3v-6.6c0-0.7,0.6-1.3,1.3-1.3h1.7V45.7z M38.1,34.8
			c-0.1,0-0.3,0.1-0.4,0.2c-0.4,0.2-0.8,0.3-1.2,0.5c0-1,0.1-2.1,0.3-3.1c0.2-1.1,0.6-2.2,1.1-3.2c1,1.3,2.2,2.5,3.4,3.6
			c-1.1,1-2.1,1.5-2.6,1.8C38.5,34.6,38.3,34.7,38.1,34.8z M39.2,45.7v-9.1v-0.3c0.1-0.1,0.3-0.1,0.4-0.2c0.5-0.3,1.8-1,3.1-2.2
			c3.8,2.9,8.2,4.4,12.9,4.4c1.6,0,4.3-0.4,6.3-1.1v8.5c0,2.3-0.7,4.4-1.8,6.2h-8.2c-0.5,0-0.9,0.4-0.9,0.9s0.4,0.9,0.9,0.9h6.7
			c-2,2-4.9,3.3-8,3.3C44.3,57,39.2,51.9,39.2,45.7z M71.5,79.5h-6.3v-2.1c0-0.5-0.4-0.9-0.9-0.9s-0.9,0.4-0.9,0.9v2.1H38.1v-2.1
			c0-0.5-0.4-0.9-0.9-0.9s-0.9,0.4-0.9,0.9v2.1H30v-5.6c0-3.8,2.6-7.1,6.4-8l0.9-0.2c0.7,1.3,1.7,2.5,2.8,3.5
			c0.2,0.2,0.4,0.3,0.6,0.3c0.2,0,0.5-0.1,0.7-0.3c0.4-0.4,0.3-1,0-1.3c-0.8-0.8-1.6-1.7-2.2-2.6l2.2-0.5c2.7-0.6,4.6-3,4.6-5.8
			v-0.8c1.4,0.5,2.9,0.8,4.5,0.8c1.8,0,3.4-0.3,5-1v1c0,2.8,1.9,5.2,4.6,5.8l2.2,0.5c-2.5,4-6.8,6.4-11.5,6.4
			c-2.2,0-4.5-0.6-6.4-1.6c-0.5-0.2-1-0.1-1.3,0.4c-0.2,0.5-0.1,1,0.4,1.3c2.2,1.2,4.7,1.8,7.3,1.8c5.6,0,10.7-3,13.4-7.8l0.9,0.2
			c3.7,0.9,6.4,4.2,6.4,8V79.5z"/>
	</g>
</g>
<g>
	<g>
		<circle cx="45.7" cy="40.5" r="0.9"/>
	</g>
</g>
<g>
	<g>
		<circle cx="54.9" cy="40.5" r="0.9"/>
	</g>
</g>
</svg>
