<?xml version="1.0" encoding="utf-8"?>
<!-- Generator: Adobe Illustrator 22.1.0, SVG Export Plug-In . SVG Version: 6.00 Build 0)  -->
<svg version="1.1" id="Layer_1" xmlns="http://www.w3.org/2000/svg" xmlns:xlink="http://www.w3.org/1999/xlink" x="0px" y="0px"
	 viewBox="0 0 100 100" style="enable-background:new 0 0 100 100;" xml:space="preserve">
<g>
	<g>
		<path d="M79.5,57c0-0.1-0.1-0.1-0.1-0.2c-1.6-2-4.6-2.3-6.7-0.7c-2.6,2.1-6.3,5.1-8.7,7c-1.7,1.4-3.8,2.1-6,2.2l-6.5,0.2
			c-0.3,0-0.5-0.1-0.7-0.3L50.2,64c-0.1-0.2-0.1-0.4,0-0.7c0.1-0.2,0.3-0.4,0.5-0.4l6.8-1.3c2.4-0.4,4-2.7,3.8-5.1
			c-0.3-2.4-2.2-4.1-4.6-4.1c-0.1,0-0.1,0-0.2,0l-9-0.4c-3.6-0.1-6.7,0.6-10.3,2.3l-4.7,2.3c-0.7-1.4-2.1-2.3-3.6-2.3h-5.2
			c-2.2,0-4,1.8-4,3.9v19.5c0,2.2,1.8,3.9,4,3.9h5.2c2.2,0,3.9-1.8,4-3.9v-1.3l5-0.9c1.6-0.2,2.6-0.3,4.4-0.3l13.7,0.6
			c4.9,0.2,9.8-1.4,13.6-4.6l9.5-7.9l0,0C80.8,61.8,81.1,58.9,79.5,57z M30.1,77.7c0,0.8-0.6,1.4-1.4,1.4h-5.3
			c-0.8,0-1.4-0.6-1.4-1.4V58.3c0-0.8,0.6-1.4,1.4-1.4h5.3c0.8,0,1.4,0.6,1.4,1.4V77.7z M77.2,61.4l-9.5,7.9
			c-3.3,2.8-7.5,4.2-11.8,4l-13.7-0.6c-1.9-0.1-3.1,0-4.9,0.3c0,0,0,0,0,0l-4.6,0.8V59.3l5.5-2.6c3.2-1.6,5.9-2.2,9.1-2.1l9.1,0.4
			c0.1,0,0.1,0,0.2,0c0,0,0.1,0,0.1,0c1,0,1.9,0.8,2.1,1.8c0.1,1.1-0.6,2.1-1.7,2.3l-6.8,1.3c-1.8,0.3-2.9,2.1-2.6,3.8
			c0.1,0.4,0.2,0.7,0.4,1l0.7,1.2c0.6,1,1.7,1.6,2.9,1.6l6.5-0.2c2.7-0.1,5.4-1.1,7.5-2.8c2.4-2,6.1-5,8.7-7c0.9-0.7,2.2-0.6,3,0.3
			c0,0.1,0.1,0.1,0.1,0.2C78.2,59.4,78.1,60.7,77.2,61.4z"/>
	</g>
</g>
<g>
	<g>
		<path d="M60.2,18.3c-9.2,0-16.7,7.5-16.7,16.7s7.5,16.7,16.7,16.7S76.9,44.3,76.9,35S69.4,18.3,60.2,18.3z M60.2,49.2
			C52.3,49.2,46,42.9,46,35c0,0,0,0,0,0c0-7.8,6.3-14.1,14.2-14.2c7.8,0,14.2,6.3,14.2,14.2S68,49.2,60.2,49.2z"/>
	</g>
</g>
<g>
	<g>
		<path d="M65.1,31.1h-1.7c-0.1-0.6-0.4-1.2-0.7-1.8h2.5c0.7,0,1.3-0.6,1.3-1.3c0-0.7-0.6-1.3-1.3-1.3h-10c-0.7,0-1.3,0.6-1.3,1.3
			c0,0.7,0.6,1.3,1.3,1.3H58c1.2,0,2.2,0.8,2.7,1.8h-5.6c-0.7,0-1.3,0.6-1.3,1.3c0,0.7,0.6,1.3,1.3,1.3h5.6
			c-0.2,0.3-0.4,0.6-0.6,0.8c-0.6,0.6-1.3,0.9-2.1,0.9h-2.9c-0.7,0-1.3,0.6-1.3,1.3c0,0.3,0.2,0.7,0.4,0.9l7.1,6.8
			c0.5,0.5,1.3,0.5,1.8-0.1c0.5-0.5,0.5-1.3-0.1-1.8l-4.8-4.6c1.4-0.1,2.6-0.6,3.6-1.6c0.7-0.7,1.2-1.6,1.5-2.6h1.7
			c0.7,0,1.3-0.6,1.3-1.3S65.9,31.1,65.1,31.1z"/>
	</g>
</g>
</svg>
