<?xml version="1.0" encoding="utf-8"?>
<!-- Generator: Adobe Illustrator 22.1.0, SVG Export Plug-In . SVG Version: 6.00 Build 0)  -->
<svg version="1.1" id="Layer_1" xmlns="http://www.w3.org/2000/svg" xmlns:xlink="http://www.w3.org/1999/xlink" x="0px" y="0px"
	 viewBox="0 0 100 100" style="enable-background:new 0 0 100 100;" xml:space="preserve">
<style type="text/css">
	.st0{fill:none;}
</style>
<g>
	<path class="st0" d="M50,18.3c-12,0-21.7,9.8-21.7,21.7c0,4,1.1,8,3.3,11.4l18.8,30.3l18.3-30.5c2-3.3,3.1-7.2,3.1-11.1
		C71.7,28.1,62,18.3,50,18.3z M50,53c-7.3,0-13-5.9-13-13c0-7.2,5.8-13,13-13s13,5.8,13,13C63,47.1,57.4,53,50,53z"/>
	<path class="st0" d="M50,31.3c-4.8,0-8.7,3.9-8.7,8.7c0,4.8,3.9,8.7,8.7,8.7c4.9,0,8.7-4,8.7-8.7C58.7,35.2,54.8,31.3,50,31.3z"/>
	<path d="M50,14c-14.3,0-26,11.7-26,26c0,4.8,1.3,9.6,3.9,13.7L48.5,87c0.4,0.6,1.1,1,1.8,1c0,0,0,0,0,0c0.8,0,1.5-0.4,1.8-1.1
		l20.1-33.6c2.4-4,3.7-8.6,3.7-13.3C76,25.7,64.3,14,50,14z M68.6,51.1L50.3,81.7L31.6,51.4c-2.1-3.4-3.3-7.4-3.3-11.4
		c0-12,9.8-21.7,21.7-21.7S71.7,28.1,71.7,40C71.7,43.9,70.6,47.8,68.6,51.1z"/>
	<path d="M50,27c-7.2,0-13,5.8-13,13c0,7.1,5.7,13,13,13c7.4,0,13-6,13-13C63,32.8,57.2,27,50,27z M50,48.7c-4.8,0-8.7-3.9-8.7-8.7
		c0-4.8,3.9-8.7,8.7-8.7s8.7,3.9,8.7,8.7C58.7,44.7,54.9,48.7,50,48.7z"/>
</g>
</svg>
