<?xml version="1.0" encoding="utf-8"?>
<!-- Generator: Adobe Illustrator 22.1.0, SVG Export Plug-In . SVG Version: 6.00 Build 0)  -->
<svg version="1.1" id="Layer_1" xmlns="http://www.w3.org/2000/svg" xmlns:xlink="http://www.w3.org/1999/xlink" x="0px" y="0px"
	 viewBox="0 0 100 100" style="enable-background:new 0 0 100 100;" xml:space="preserve">
<style type="text/css">
	.st0{fill:none;}
</style>
<g>
	<path class="st0" d="M33.9,57.5c-0.3-0.7-0.5-1.5-0.6-2.4c-0.6,1.3-1.5,2.5-2.7,3.3l0,1.2C32.6,58.9,33.5,58,33.9,57.5z"/>
	<path class="st0" d="M42.8,58.8l3.1,4.7c0,0,0,0,0.1,0c0,0,0,0,0.1,0l2.5-2.5l-4.8-3.3L42.8,58.8z"/>
	<path class="st0" d="M28.7,59.4c-0.7,0.2-1.5,0.3-2.2,0.3c-0.8,0-1.5-0.1-2.2-0.3v1.1c0,0.4-0.1,0.7-0.2,1l0.9,0.9
		c0.9,0.8,2.2,0.8,3.1,0l0.9-0.9c-0.2-0.3-0.2-0.6-0.2-1L28.7,59.4z"/>
	<path class="st0" d="M19.5,55.1c-0.1,0.9-0.3,1.7-0.6,2.4c0.4,0.5,1.3,1.4,3.2,2.1v-1.2C21,57.6,20.1,56.4,19.5,55.1z"/>
	<path class="st0" d="M24.7,48.9l-1.5,1.6c-0.4,0.4-1,0.4-1.4,0s-0.4-1,0-1.4l1.8-1.9c0.2-0.2,0.4-0.3,0.7-0.3c0.1,0,1.8,0,3.8,0.6
		c2.2,0.7,3.9,1.9,5,3.6c0-0.1,0-0.1,0-0.2c0-0.7,0-1.3-0.1-1.9c-0.1-1.8-0.9-3.5-2-4.7c-1.2-1.2-2.8-1.9-4.5-1.9s-3.3,0.7-4.5,1.9
		c-1.2,1.2-1.9,2.9-2,4.7c0,0.6-0.1,1.2-0.1,1.9c0,0.1,0,0.2,0,0.3c0.1,0,0.1,0,0.2,0c0.6,0,1,0.5,1,1c0,3,2.4,5.5,5.5,5.5
		c2.7,0,5-2,5.4-4.6C30.2,49.5,26,49,24.7,48.9z"/>
	<path class="st0" d="M55.6,54c-1.7,0.9-3.5,1.3-5.4,1.3c-0.3,0-0.5,0-0.8,0c-1.7-0.1-3.3-0.6-4.7-1.4v1.9l5.5,3.7l5.5-3.7V54z"/>
	<path class="st0" d="M49.5,53.3c2.4,0.2,4.7-0.5,6.5-2c0,0,0,0,0,0c0.3-0.2,0.5-0.4,0.8-0.7c2-1.9,3.1-4.4,3.1-7.1v-2.9
		c0-0.2,0-0.3,0.1-0.4c0.6-1.3,1-2.8,1-4.2v-9.8H46.9c-4.2,0-7.6,3.4-7.6,7.6V36c0,1.5,0.3,2.9,1,4.2c0.1,0.1,0.1,0.3,0.1,0.4v2.5
		C40.4,48.6,44.4,53,49.5,53.3z M41.7,34.7v2.4c0,0.6-0.5,1.1-1.1,1.1s-1.1-0.5-1.1-1.1v-2.4c0-1.1,0.8-2,1.8-2.1
		c3.4-0.5,11.7-1.3,15.7,2.7c0.4,0.4,0.4,1.1,0,1.5c-0.4,0.4-1.1,0.4-1.5,0c-1.4-1.4-3.8-2.2-7-2.4C45.8,34.2,43.1,34.5,41.7,34.7
		C41.7,34.7,41.7,34.7,41.7,34.7z"/>
	<path class="st0" d="M78.2,50.1c0-0.2,0-0.3,0.1-0.5l0.5-1c0.3-0.6,0.5-1.3,0.5-2v-4.2h-8.7c-2.4,0-4.4,2-4.4,4.4v0.1
		c0,0.5,0.1,1,0.3,1.5l0.6,1.2c0.1,0.1,0.1,0.3,0.1,0.5v1.9c0,3.1,2.4,5.6,5.3,5.7c1.5,0,2.9-0.5,4-1.5c1.1-1,1.7-2.4,1.7-3.9V50.1z
		 M76.4,47.7c-0.2,0.4-0.6,0.6-0.9,0.6c-0.2,0-0.3,0-0.5-0.1c-1.7-0.8-5.1-1-6.3-1c-0.6,0-1-0.5-1-1.1s0.5-1.1,1-1.1
		c0.2,0,4.8,0,7.2,1.2C76.4,46.6,76.6,47.2,76.4,47.7z"/>
	<path class="st0" d="M75,59.4c-0.7,0.2-1.5,0.3-2.2,0.3c-0.1,0-0.2,0-0.2,0c-0.7,0-1.4-0.1-2-0.4l0,0.4c0,0.2,0,0.4-0.1,0.6
		l2.3,2.3l2.3-2.3c0-0.2-0.1-0.4-0.1-0.6V59.4z"/>
	<path class="st0" d="M51.7,61l2.5,2.5c0,0,0,0,0.1,0c0,0,0,0,0.1,0l3.1-4.7l-1-1.1L51.7,61z"/>
	<path d="M75.9,46.3c-2.4-1.2-7-1.2-7.2-1.2c-0.6,0-1,0.5-1,1.1s0.5,1.1,1,1.1c1.2,0,4.6,0.2,6.3,1c0.2,0.1,0.3,0.1,0.5,0.1
		c0.4,0,0.8-0.2,0.9-0.6C76.6,47.2,76.4,46.6,75.9,46.3z"/>
	<path d="M81.5,61.4l-4.2-1.2c-0.2-0.1-0.3-0.2-0.3-0.4v-1.4c0.3-0.2,0.7-0.5,1-0.8c1.5-1.4,2.3-3.3,2.3-5.4v-1.9l0.4-0.8
		c0.4-0.9,0.7-1.9,0.7-2.9v-5.2c0-0.6-0.5-1-1-1h-9.7c-3.5,0-6.4,2.9-6.4,6.4v0.1c0,0.8,0.2,1.6,0.6,2.4l0.5,1v1.6
		c0,2.6,1.3,5,3.2,6.4l0,1.5c0,0.2,0,0.3-0.8,0.6l-2,0.6l-5.9-2.1c0-0.3-0.1-0.6-0.3-0.8l-1.9-2v-3.3c0.2-0.2,0.4-0.3,0.6-0.5
		c2.4-2.2,3.7-5.4,3.7-8.6v-2.6c0.7-1.6,1.1-3.2,1.1-4.9V25.3c0-0.6-0.5-1-1-1H46.9c-5.3,0-9.6,4.3-9.6,9.6V36
		c0,1.7,0.4,3.3,1.1,4.9v2.3c0,3.8,1.7,7.2,4.3,9.4V56l-1.9,2c-0.2,0.2-0.3,0.5-0.3,0.8L34.3,61c-0.4,0.2-0.9,0.4-1.2,0.7l-1-0.5
		c2.9-1.3,3.8-3,3.9-3.1c0.1-0.3,0.1-0.6,0-0.9c-0.7-1.5-0.8-4.1-0.9-6.3c0-0.7,0-1.4-0.1-2c-0.3-4.8-4-8.5-8.6-8.5
		c-4.5,0-8.2,3.6-8.6,8.5c0,0.6-0.1,1.3-0.1,2c-0.1,2.1-0.2,4.8-0.9,6.3c-0.1,0.3-0.1,0.6,0,0.9c0,0.1,1,1.9,3.9,3.1l-2.7,1.4
		c-1.4,0.7-2.3,2.2-2.3,3.8v7.4c0,0.6,0.5,1,1,1c0.2,0,0.3-0.1,0.5-0.1c-0.1-0.1-0.1-0.3-0.1-0.4v-5.3c0-0.4,0.3-0.8,0.6-0.9v-1.6
		c0-0.8,0.5-1.6,1.2-2l3.4-1.7l1.2,1.1c0.8,0.8,1.9,1.2,2.9,1.2c1.1,0,2.1-0.4,2.9-1.2l1.2-1.1l1.1,0.5C31.1,64,30.8,65,30.8,66v7.8
		c0,0.6,0.5,1,1,1s1-0.5,1-1V66c0-1.4,0.9-2.6,2.2-3.1l6.5-2.4l2.7,4.1c0.3,0.5,0.9,0.9,1.5,0.9c0.1,0,0.1,0,0.2,0
		c0.6,0,1.1-0.2,1.5-0.6l1.7-1.7v10.5c0,0.6,0.5,1,1,1c0.6,0,1-0.5,1-1V63.3l1.7,1.7c0.4,0.4,0.9,0.6,1.5,0.6c0.1,0,0.1,0,0.2,0
		c0.6-0.1,1.2-0.4,1.5-0.9l2.7-4.1l6.5,2.4c1.3,0.5,2.2,1.7,2.2,3.1v7.8c0,0.6,0.5,1,1,1s1-0.5,1-1V66c0-1.4-0.6-2.7-1.5-3.7
		l0.2-0.1c0.3-0.1,0.6-0.2,0.9-0.3l2.6,2.6v9.3c0,0.6,0.5,1,1,1s1-0.5,1-1v-9.3l2.6-2.6c0.1,0.1,0.3,0.1,0.4,0.2l4.2,1.2
		c1,0.3,1.6,1.2,1.6,2.1v8.3c0,0.6,0.5,1,1,1s1-0.5,1-1v-8.3C84.6,63.5,83.3,61.9,81.5,61.4z M22.2,59.6c-1.9-0.7-2.8-1.6-3.2-2.1
		c0.3-0.7,0.5-1.5,0.6-2.4c0.6,1.3,1.5,2.5,2.7,3.3V59.6z M28,62.3c-0.9,0.8-2.2,0.8-3.1,0L24,61.4c0.2-0.3,0.2-0.6,0.2-1v-1.1
		c0.7,0.2,1.5,0.3,2.2,0.3c0.8,0,1.5-0.1,2.2-0.3l0,1.1c0,0.4,0.1,0.7,0.2,1L28,62.3z M26.4,57.7c-3,0-5.5-2.4-5.5-5.5
		c0-0.6-0.5-1-1-1c-0.1,0-0.1,0-0.2,0c0-0.1,0-0.2,0-0.3c0-0.7,0-1.3,0.1-1.9c0.1-1.8,0.9-3.5,2-4.7c1.2-1.2,2.8-1.9,4.5-1.9
		s3.3,0.7,4.5,1.9c1.2,1.2,1.9,2.9,2,4.7c0,0.6,0.1,1.2,0.1,1.9c0,0.1,0,0.1,0,0.2c-1.1-1.7-2.8-2.9-5-3.6c-2-0.6-3.8-0.6-3.8-0.6
		c-0.3,0-0.5,0.1-0.7,0.3l-1.8,1.9c-0.4,0.4-0.4,1,0,1.4s1,0.4,1.4,0l1.5-1.6c1.3,0.1,5.5,0.6,7.1,4.1
		C31.4,55.7,29.1,57.7,26.4,57.7z M30.7,59.6l0-1.2c1.2-0.8,2.1-1.9,2.7-3.3c0.1,0.9,0.3,1.7,0.6,2.4C33.5,58,32.6,58.9,30.7,59.6z
		 M40.4,43.2v-2.5c0-0.2,0-0.3-0.1-0.4c-0.6-1.3-1-2.8-1-4.2v-2.2c0-4.2,3.4-7.6,7.6-7.6H61V36c0,1.5-0.3,2.9-1,4.2
		c-0.1,0.1-0.1,0.3-0.1,0.4v2.9c0,2.7-1.1,5.3-3.1,7.1c-0.2,0.2-0.5,0.5-0.8,0.7c0,0,0,0,0,0c-1.9,1.4-4.2,2.1-6.5,2
		C44.4,53,40.4,48.6,40.4,43.2z M46.1,63.5C46.1,63.5,46,63.5,46.1,63.5c-0.1,0-0.1,0-0.1,0l-3.1-4.7l1-1.1l4.8,3.3L46.1,63.5z
		 M50.2,59.6l-5.5-3.7V54c1.4,0.8,3,1.2,4.7,1.4c0.3,0,0.5,0,0.8,0c1.9,0,3.8-0.5,5.4-1.3v1.8L50.2,59.6z M54.4,63.5
		C54.4,63.5,54.3,63.5,54.4,63.5c-0.1,0-0.1,0-0.1,0L51.7,61l4.8-3.3l1,1.1L54.4,63.5z M72.8,62.6l-2.3-2.3c0-0.2,0.1-0.4,0.1-0.6
		l0-0.4c0.6,0.2,1.3,0.3,2,0.4c0.1,0,0.2,0,0.2,0c0.8,0,1.5-0.1,2.2-0.3v0.4c0,0.2,0,0.4,0.1,0.6L72.8,62.6z M76.6,56.1
		c-1.1,1-2.5,1.6-4,1.5c-2.9-0.1-5.3-2.7-5.3-5.7v-1.9c0-0.2,0-0.3-0.1-0.5l-0.6-1.2c-0.2-0.5-0.3-1-0.3-1.5v-0.1
		c0-2.4,2-4.4,4.4-4.4h8.7v4.2c0,0.7-0.2,1.4-0.5,2l-0.5,1c-0.1,0.1-0.1,0.3-0.1,0.5v2.2C78.2,53.7,77.6,55.1,76.6,56.1z"/>
	<path d="M78.8,66.4c-0.6,0-1.1,0.5-1.1,1.1v6.7c0,0.6,0.5,1.1,1.1,1.1s1.1-0.5,1.1-1.1v-6.7C79.8,66.9,79.4,66.4,78.8,66.4z"/>
	<path d="M17.2,74.6c0.2,0.4,0.5,0.6,1,0.6c0.6,0,1-0.5,1-1.1v-5.3c0-0.6-0.5-1-1-1c-0.2,0-0.3,0-0.4,0.1v5.8
		C17.7,74.1,17.5,74.5,17.2,74.6z"/>
	<path d="M17.1,68.9v5.3c0,0.1,0,0.3,0.1,0.4c0.3-0.2,0.5-0.5,0.5-0.9v-5.8C17.4,68.1,17.1,68.4,17.1,68.9z"/>
	<path d="M48.6,34.3c3.3,0.2,5.6,1,7,2.4c0.4,0.4,1.1,0.4,1.5,0c0.4-0.4,0.4-1.1,0-1.5c-4-4-12.3-3.2-15.7-2.7
		c-1.1,0.2-1.8,1.1-1.8,2.1v2.4c0,0.6,0.5,1.1,1.1,1.1s1.1-0.5,1.1-1.1v-2.4c0,0,0-0.1,0.1-0.1C43.1,34.5,45.8,34.2,48.6,34.3z"/>
	<path d="M36.2,68.7c-0.6,0-1.1,0.5-1.1,1.1v4.5c0,0.6,0.5,1.1,1.1,1.1s1.1-0.5,1.1-1.1v-4.5C37.2,69.1,36.7,68.7,36.2,68.7z"/>
	<path d="M60.9,68.7c-0.6,0-1.1,0.5-1.1,1.1v4.5c0,0.6,0.5,1.1,1.1,1.1s1.1-0.5,1.1-1.1v-4.5C61.9,69.1,61.4,68.7,60.9,68.7z"/>
</g>
</svg>
