<?xml version="1.0" encoding="utf-8"?>
<!-- Generator: Adobe Illustrator 15.1.0, SVG Export Plug-In  -->
<!DOCTYPE svg PUBLIC "-//W3C//DTD SVG 1.1//EN" "http://www.w3.org/Graphics/SVG/1.1/DTD/svg11.dtd" [
	<!ENTITY ns_flows "http://ns.adobe.com/Flows/1.0/">
]>
<svg version="1.1"
	 xmlns="http://www.w3.org/2000/svg" xmlns:xlink="http://www.w3.org/1999/xlink" xmlns:a="http://ns.adobe.com/AdobeSVGViewerExtensions/3.0/"
	 x="0px" y="0px" width="50px" height="50px" viewBox="-2.271 -6.626 50 50" enable-background="new -2.271 -6.626 50 50"
	 xml:space="preserve">
<defs>
</defs>
<path fill="#858585" d="M46.459,4.469c-1.728,0.758-3.569,1.26-5.487,1.504c1.975-1.179,3.48-3.032,4.189-5.265
	c-1.841,1.098-3.873,1.873-6.039,2.305C37.373,1.153,34.882,0,32.163,0c-5.272,0-9.517,4.28-9.517,9.527
	c0,0.755,0.063,1.481,0.221,2.172C14.948,11.313,7.941,7.518,3.235,1.736C2.413,3.163,1.931,4.794,1.931,6.551
	c0,3.299,1.699,6.223,4.231,7.916c-1.53-0.029-3.032-0.473-4.303-1.173c0,0.029,0,0.066,0,0.104c0,4.628,3.301,8.473,7.631,9.358
	c-0.775,0.213-1.621,0.313-2.498,0.313c-0.61,0-1.226-0.033-1.803-0.161c1.234,3.771,4.736,6.544,8.9,6.635
	c-3.241,2.534-7.355,4.062-11.81,4.062c-0.781,0-1.53-0.034-2.279-0.13c4.219,2.72,9.219,4.273,14.611,4.273
	c17.527,0,27.109-14.519,27.109-27.104c0-0.421-0.015-0.827-0.036-1.23C43.575,8.072,45.164,6.397,46.459,4.469z"/>
</svg>
