<svg version="1.1" id="Layer_1" xmlns="http://www.w3.org/2000/svg" x="0" y="0" viewBox="0 0 50 50" xml:space="preserve"><style></style><path d="M19 32.6l15-7.8L19 17v15.6z" fill="none"/><linearGradient id="SVGID_1_" gradientUnits="userSpaceOnUse" x1=".78" y1="25.326" x2="49.127" y2="25.326"><stop offset="0" stop-color="#858585"/><stop offset="1" stop-color="#858585"/></linearGradient><path d="M47.8 12.8c-.7-1.7-1.9-2.9-3.6-3.5-3-1.1-28.8-1.2-37.1-.3-1.6.2-3 .9-4 2.1C0 14.8.4 33.3 2 37.7c.7 1.8 1.9 3 3.7 3.6 4.1 1.3 36.2 1.3 39.3-.3 1.2-.6 2.1-1.4 2.6-2.6 2-4.4 2-21 .2-25.6zM19 32.6V17l15 7.8-15 7.8z" fill="url(#SVGID_1_)"/></svg>